G04 #@! TF.GenerationSoftware,KiCad,Pcbnew,8.0.2*
G04 #@! TF.CreationDate,2024-06-23T16:14:43-05:00*
G04 #@! TF.ProjectId,6KeyMacroPad,364b6579-4d61-4637-926f-5061642e6b69,rev?*
G04 #@! TF.SameCoordinates,Original*
G04 #@! TF.FileFunction,Soldermask,Bot*
G04 #@! TF.FilePolarity,Negative*
%FSLAX46Y46*%
G04 Gerber Fmt 4.6, Leading zero omitted, Abs format (unit mm)*
G04 Created by KiCad (PCBNEW 8.0.2) date 2024-06-23 16:14:43*
%MOMM*%
%LPD*%
G01*
G04 APERTURE LIST*
G04 Aperture macros list*
%AMRoundRect*
0 Rectangle with rounded corners*
0 $1 Rounding radius*
0 $2 $3 $4 $5 $6 $7 $8 $9 X,Y pos of 4 corners*
0 Add a 4 corners polygon primitive as box body*
4,1,4,$2,$3,$4,$5,$6,$7,$8,$9,$2,$3,0*
0 Add four circle primitives for the rounded corners*
1,1,$1+$1,$2,$3*
1,1,$1+$1,$4,$5*
1,1,$1+$1,$6,$7*
1,1,$1+$1,$8,$9*
0 Add four rect primitives between the rounded corners*
20,1,$1+$1,$2,$3,$4,$5,0*
20,1,$1+$1,$4,$5,$6,$7,0*
20,1,$1+$1,$6,$7,$8,$9,0*
20,1,$1+$1,$8,$9,$2,$3,0*%
G04 Aperture macros list end*
%ADD10R,1.800000X1.100000*%
%ADD11RoundRect,0.082000X-0.718000X0.328000X-0.718000X-0.328000X0.718000X-0.328000X0.718000X0.328000X0*%
%ADD12RoundRect,0.250000X-1.025000X-1.000000X1.025000X-1.000000X1.025000X1.000000X-1.025000X1.000000X0*%
%ADD13C,1.750000*%
%ADD14C,3.050000*%
%ADD15C,4.000000*%
%ADD16RoundRect,0.250000X0.475000X-0.250000X0.475000X0.250000X-0.475000X0.250000X-0.475000X-0.250000X0*%
%ADD17RoundRect,0.250000X-0.262500X-0.450000X0.262500X-0.450000X0.262500X0.450000X-0.262500X0.450000X0*%
%ADD18RoundRect,0.250000X0.450000X-0.262500X0.450000X0.262500X-0.450000X0.262500X-0.450000X-0.262500X0*%
%ADD19RoundRect,0.250000X-0.450000X0.262500X-0.450000X-0.262500X0.450000X-0.262500X0.450000X0.262500X0*%
%ADD20RoundRect,0.175000X0.175000X0.325000X-0.175000X0.325000X-0.175000X-0.325000X0.175000X-0.325000X0*%
%ADD21RoundRect,0.150000X0.200000X0.150000X-0.200000X0.150000X-0.200000X-0.150000X0.200000X-0.150000X0*%
%ADD22RoundRect,0.250000X-0.475000X0.250000X-0.475000X-0.250000X0.475000X-0.250000X0.475000X0.250000X0*%
%ADD23RoundRect,0.250000X0.250000X0.475000X-0.250000X0.475000X-0.250000X-0.475000X0.250000X-0.475000X0*%
%ADD24RoundRect,0.250000X-0.325000X-0.450000X0.325000X-0.450000X0.325000X0.450000X-0.325000X0.450000X0*%
%ADD25R,2.100000X1.800000*%
%ADD26RoundRect,0.225000X0.375000X-0.225000X0.375000X0.225000X-0.375000X0.225000X-0.375000X-0.225000X0*%
%ADD27RoundRect,0.250000X0.262500X0.450000X-0.262500X0.450000X-0.262500X-0.450000X0.262500X-0.450000X0*%
%ADD28RoundRect,0.250000X-0.250000X-0.475000X0.250000X-0.475000X0.250000X0.475000X-0.250000X0.475000X0*%
%ADD29RoundRect,0.250000X0.375000X0.625000X-0.375000X0.625000X-0.375000X-0.625000X0.375000X-0.625000X0*%
%ADD30R,0.600000X2.450000*%
%ADD31R,0.300000X2.450000*%
%ADD32C,0.650000*%
%ADD33R,0.550000X1.600000*%
%ADD34R,1.600000X0.550000*%
G04 APERTURE END LIST*
D10*
X144700000Y-113950000D03*
X150900000Y-113950000D03*
X144700000Y-110250000D03*
X150900000Y-110250000D03*
D11*
X187106250Y-84246250D03*
X187106250Y-85746250D03*
X192306250Y-85746250D03*
X192306250Y-84246250D03*
D12*
X195548250Y-94138750D03*
X182621250Y-96678750D03*
D13*
X194786250Y-99218750D03*
D14*
X192246250Y-94138750D03*
D15*
X189706250Y-99218750D03*
D14*
X185896250Y-96678750D03*
D13*
X184626250Y-99218750D03*
D11*
X148887500Y-84302500D03*
X148887500Y-85802500D03*
X154087500Y-85802500D03*
X154087500Y-84302500D03*
D12*
X157448250Y-94138750D03*
X144521250Y-96678750D03*
D13*
X156686250Y-99218750D03*
D14*
X154146250Y-94138750D03*
D15*
X151606250Y-99218750D03*
D14*
X147796250Y-96678750D03*
D13*
X146526250Y-99218750D03*
D11*
X148887500Y-103302500D03*
X148887500Y-104802500D03*
X154087500Y-104802500D03*
X154087500Y-103302500D03*
D12*
X195548250Y-75088750D03*
X182621250Y-77628750D03*
D13*
X194786250Y-80168750D03*
D14*
X192246250Y-75088750D03*
D15*
X189706250Y-80168750D03*
D14*
X185896250Y-77628750D03*
D13*
X184626250Y-80168750D03*
D11*
X168056250Y-84246250D03*
X168056250Y-85746250D03*
X173256250Y-85746250D03*
X173256250Y-84246250D03*
X168056250Y-103296250D03*
X168056250Y-104796250D03*
X173256250Y-104796250D03*
X173256250Y-103296250D03*
D12*
X176498250Y-75088750D03*
X163571250Y-77628750D03*
D13*
X175736250Y-80168750D03*
D14*
X173196250Y-75088750D03*
D15*
X170656250Y-80168750D03*
D14*
X166846250Y-77628750D03*
D13*
X165576250Y-80168750D03*
D12*
X176498250Y-94138750D03*
X163571250Y-96678750D03*
D13*
X175736250Y-99218750D03*
D14*
X173196250Y-94138750D03*
D15*
X170656250Y-99218750D03*
D14*
X166846250Y-96678750D03*
D13*
X165576250Y-99218750D03*
D12*
X157448250Y-75088750D03*
X144521250Y-77628750D03*
D13*
X156686250Y-80168750D03*
D14*
X154146250Y-75088750D03*
D15*
X151606250Y-80168750D03*
D14*
X147796250Y-77628750D03*
D13*
X146526250Y-80168750D03*
D11*
X187087500Y-103202500D03*
X187087500Y-104702500D03*
X192287500Y-104702500D03*
X192287500Y-103202500D03*
D16*
X176775000Y-110100000D03*
X176775000Y-108200000D03*
X163050000Y-103000000D03*
X163050000Y-104900000D03*
D17*
X150487500Y-107900000D03*
X152312500Y-107900000D03*
D18*
X153700000Y-116012500D03*
X153700000Y-114187500D03*
D19*
X159900000Y-91712500D03*
X159900000Y-89887500D03*
D20*
X162163000Y-73850000D03*
D21*
X162163000Y-75550000D03*
X160163000Y-75550000D03*
X160163000Y-73650000D03*
D16*
X146600000Y-85950000D03*
X146600000Y-84050000D03*
D22*
X169000000Y-108175000D03*
X169000000Y-110075000D03*
D23*
X159550000Y-104450000D03*
X157650000Y-104450000D03*
D16*
X146600000Y-104950000D03*
X146600000Y-103050000D03*
X165100000Y-104900000D03*
X165100000Y-103000000D03*
D17*
X164837500Y-72250000D03*
X166662500Y-72250000D03*
D24*
X168837500Y-68750000D03*
X170887500Y-68750000D03*
D25*
X171400000Y-107950000D03*
X174300000Y-107950000D03*
X174300000Y-110250000D03*
X171400000Y-110250000D03*
D26*
X178593750Y-100868750D03*
X178593750Y-97568750D03*
X197643750Y-81818750D03*
X197643750Y-78518750D03*
X178575000Y-81950000D03*
X178575000Y-78650000D03*
D19*
X162300000Y-91712500D03*
X162300000Y-89887500D03*
D27*
X157412500Y-72250000D03*
X155587500Y-72250000D03*
D28*
X164100000Y-101250000D03*
X166000000Y-101250000D03*
D26*
X196956250Y-100868750D03*
X196956250Y-97568750D03*
X158900000Y-81550000D03*
X158900000Y-78250000D03*
D16*
X184800000Y-86150000D03*
X184800000Y-84250000D03*
X184600000Y-104900000D03*
X184600000Y-103000000D03*
D29*
X149600000Y-72136000D03*
X146800000Y-72136000D03*
D16*
X165800000Y-86150000D03*
X165800000Y-84250000D03*
D30*
X164356250Y-69491250D03*
X163581250Y-69491250D03*
D31*
X162881250Y-69491250D03*
X162381250Y-69491250D03*
X161881250Y-69491250D03*
X161381250Y-69491250D03*
X160881250Y-69491250D03*
X160381250Y-69491250D03*
X159881250Y-69491250D03*
X159381250Y-69491250D03*
D30*
X158681250Y-69491250D03*
X157906250Y-69491250D03*
D32*
X164021250Y-67546250D03*
X158241250Y-67546250D03*
D16*
X172125000Y-115075000D03*
X172125000Y-113175000D03*
X169925000Y-115050000D03*
X169925000Y-113150000D03*
D33*
X163600000Y-106750000D03*
X162800000Y-106750000D03*
X162000000Y-106750000D03*
X161200000Y-106750000D03*
X160400000Y-106750000D03*
X159600000Y-106750000D03*
X158800000Y-106750000D03*
X158000000Y-106750000D03*
D34*
X156550000Y-108200000D03*
X156550000Y-109000000D03*
X156550000Y-109800000D03*
X156550000Y-110600000D03*
X156550000Y-111400000D03*
X156550000Y-112200000D03*
X156550000Y-113000000D03*
X156550000Y-113800000D03*
D33*
X158000000Y-115250000D03*
X158800000Y-115250000D03*
X159600000Y-115250000D03*
X160400000Y-115250000D03*
X161200000Y-115250000D03*
X162000000Y-115250000D03*
X162800000Y-115250000D03*
X163600000Y-115250000D03*
D34*
X165050000Y-113800000D03*
X165050000Y-113000000D03*
X165050000Y-112200000D03*
X165050000Y-111400000D03*
X165050000Y-110600000D03*
X165050000Y-109800000D03*
X165050000Y-109000000D03*
X165050000Y-108200000D03*
D26*
X159300000Y-100868750D03*
X159300000Y-97568750D03*
D19*
X194750000Y-103187500D03*
X194750000Y-105012500D03*
M02*
