G04 #@! TF.GenerationSoftware,KiCad,Pcbnew,8.0.2*
G04 #@! TF.CreationDate,2024-06-23T16:14:43-05:00*
G04 #@! TF.ProjectId,6KeyMacroPad,364b6579-4d61-4637-926f-5061642e6b69,rev?*
G04 #@! TF.SameCoordinates,Original*
G04 #@! TF.FileFunction,Profile,NP*
%FSLAX46Y46*%
G04 Gerber Fmt 4.6, Leading zero omitted, Abs format (unit mm)*
G04 Created by KiCad (PCBNEW 8.0.2) date 2024-06-23 16:14:43*
%MOMM*%
%LPD*%
G01*
G04 APERTURE LIST*
G04 #@! TA.AperFunction,Profile*
%ADD10C,0.050000*%
G04 #@! TD*
G04 #@! TA.AperFunction,Profile*
%ADD11C,0.100000*%
G04 #@! TD*
G04 APERTURE END LIST*
D10*
X142868750Y-119062500D02*
G75*
G02*
X142075000Y-118268750I50J793800D01*
G01*
X198437500Y-66675000D02*
G75*
G02*
X199231300Y-67468750I0J-793800D01*
G01*
X199231250Y-67468750D02*
X199225000Y-118268750D01*
X155575000Y-65881250D02*
G75*
G02*
X154781250Y-66675000I-793700J-50D01*
G01*
X142080664Y-72231250D02*
X142075000Y-118268750D01*
X199225000Y-118268750D02*
G75*
G02*
X198431250Y-119062500I-793800J50D01*
G01*
X142868750Y-119062500D02*
X198431250Y-119062500D01*
X155575000Y-65881250D02*
X155575000Y-61912500D01*
X142081250Y-67468750D02*
G75*
G02*
X142875000Y-66675050I793750J-50D01*
G01*
X142081250Y-67468750D02*
X142080664Y-72231250D01*
X167481250Y-66675000D02*
G75*
G02*
X166687500Y-65881250I50J793800D01*
G01*
X142875000Y-66675000D02*
X154781250Y-66675000D01*
X155575000Y-61912500D02*
X166687500Y-61912500D01*
X198437500Y-66675000D02*
X167481250Y-66675000D01*
X166687500Y-61912500D02*
X166687500Y-65881250D01*
D11*
X188006251Y-85699092D02*
X188006251Y-84293408D01*
X188911798Y-83496251D02*
X190500703Y-83496251D01*
X190500702Y-86496250D02*
X188911798Y-86496250D01*
X191406249Y-84293408D02*
X191406249Y-85699092D01*
X187956766Y-84076530D02*
G75*
G02*
X188006251Y-84293408I-450505J-216876D01*
G01*
X187956766Y-84076530D02*
G75*
G02*
X188659539Y-83427951I450515J216878D01*
G01*
X188006251Y-85699093D02*
G75*
G02*
X187956766Y-85915970I-499990J-1D01*
G01*
X188659539Y-86564547D02*
G75*
G02*
X187956766Y-85915970I-252258J431700D01*
G01*
X188659540Y-86564549D02*
G75*
G02*
X188911798Y-86496250I252261J-431710D01*
G01*
X188911797Y-83496250D02*
G75*
G02*
X188659539Y-83427951I3J500009D01*
G01*
X190500702Y-86496250D02*
G75*
G02*
X190752961Y-86564549I-2J-500011D01*
G01*
X190752961Y-83427952D02*
G75*
G02*
X190500703Y-83496251I-252261J431711D01*
G01*
X190752961Y-83427952D02*
G75*
G02*
X191455733Y-84076530I252259J-431699D01*
G01*
X191406249Y-84293407D02*
G75*
G02*
X191455732Y-84076529I499941J16D01*
G01*
X191455734Y-85915969D02*
G75*
G02*
X190752961Y-86564549I-450514J-216880D01*
G01*
X191455734Y-85915970D02*
G75*
G02*
X191406259Y-85699092I449916J216719D01*
G01*
X149787501Y-85755342D02*
X149787501Y-84349658D01*
X150693048Y-83552501D02*
X152281953Y-83552501D01*
X152281952Y-86552500D02*
X150693048Y-86552500D01*
X153187499Y-84349658D02*
X153187499Y-85755342D01*
X149738016Y-84132780D02*
G75*
G02*
X149787501Y-84349658I-450505J-216876D01*
G01*
X149738016Y-84132780D02*
G75*
G02*
X150440789Y-83484201I450515J216878D01*
G01*
X149787501Y-85755343D02*
G75*
G02*
X149738016Y-85972220I-499990J-1D01*
G01*
X150440789Y-86620797D02*
G75*
G02*
X149738016Y-85972220I-252258J431700D01*
G01*
X150440790Y-86620799D02*
G75*
G02*
X150693048Y-86552500I252261J-431710D01*
G01*
X150693047Y-83552500D02*
G75*
G02*
X150440789Y-83484201I3J500009D01*
G01*
X152281952Y-86552500D02*
G75*
G02*
X152534211Y-86620799I-2J-500011D01*
G01*
X152534211Y-83484202D02*
G75*
G02*
X152281953Y-83552501I-252261J431711D01*
G01*
X152534211Y-83484202D02*
G75*
G02*
X153236983Y-84132780I252259J-431699D01*
G01*
X153187499Y-84349657D02*
G75*
G02*
X153236982Y-84132779I499941J16D01*
G01*
X153236984Y-85972219D02*
G75*
G02*
X152534211Y-86620799I-450514J-216880D01*
G01*
X153236984Y-85972220D02*
G75*
G02*
X153187509Y-85755342I449916J216719D01*
G01*
X149787501Y-104755342D02*
X149787501Y-103349658D01*
X150693048Y-102552501D02*
X152281953Y-102552501D01*
X152281952Y-105552500D02*
X150693048Y-105552500D01*
X153187499Y-103349658D02*
X153187499Y-104755342D01*
X149738016Y-103132780D02*
G75*
G02*
X149787501Y-103349658I-450505J-216876D01*
G01*
X149738016Y-103132780D02*
G75*
G02*
X150440789Y-102484201I450515J216878D01*
G01*
X149787501Y-104755343D02*
G75*
G02*
X149738016Y-104972220I-499990J-1D01*
G01*
X150440789Y-105620797D02*
G75*
G02*
X149738016Y-104972220I-252258J431700D01*
G01*
X150440790Y-105620799D02*
G75*
G02*
X150693048Y-105552500I252261J-431710D01*
G01*
X150693047Y-102552500D02*
G75*
G02*
X150440789Y-102484201I3J500009D01*
G01*
X152281952Y-105552500D02*
G75*
G02*
X152534211Y-105620799I-2J-500011D01*
G01*
X152534211Y-102484202D02*
G75*
G02*
X152281953Y-102552501I-252261J431711D01*
G01*
X152534211Y-102484202D02*
G75*
G02*
X153236983Y-103132780I252259J-431699D01*
G01*
X153187499Y-103349657D02*
G75*
G02*
X153236982Y-103132779I499941J16D01*
G01*
X153236984Y-104972219D02*
G75*
G02*
X152534211Y-105620799I-450514J-216880D01*
G01*
X153236984Y-104972220D02*
G75*
G02*
X153187509Y-104755342I449916J216719D01*
G01*
X168956251Y-85699092D02*
X168956251Y-84293408D01*
X169861798Y-83496251D02*
X171450703Y-83496251D01*
X171450702Y-86496250D02*
X169861798Y-86496250D01*
X172356249Y-84293408D02*
X172356249Y-85699092D01*
X168906766Y-84076530D02*
G75*
G02*
X168956251Y-84293408I-450505J-216876D01*
G01*
X168906766Y-84076530D02*
G75*
G02*
X169609539Y-83427951I450515J216878D01*
G01*
X168956251Y-85699093D02*
G75*
G02*
X168906766Y-85915970I-499990J-1D01*
G01*
X169609539Y-86564547D02*
G75*
G02*
X168906766Y-85915970I-252258J431700D01*
G01*
X169609540Y-86564549D02*
G75*
G02*
X169861798Y-86496250I252261J-431710D01*
G01*
X169861797Y-83496250D02*
G75*
G02*
X169609539Y-83427951I3J500009D01*
G01*
X171450702Y-86496250D02*
G75*
G02*
X171702961Y-86564549I-2J-500011D01*
G01*
X171702961Y-83427952D02*
G75*
G02*
X171450703Y-83496251I-252261J431711D01*
G01*
X171702961Y-83427952D02*
G75*
G02*
X172405733Y-84076530I252259J-431699D01*
G01*
X172356249Y-84293407D02*
G75*
G02*
X172405732Y-84076529I499941J16D01*
G01*
X172405734Y-85915969D02*
G75*
G02*
X171702961Y-86564549I-450514J-216880D01*
G01*
X172405734Y-85915970D02*
G75*
G02*
X172356259Y-85699092I449916J216719D01*
G01*
X168956251Y-104749092D02*
X168956251Y-103343408D01*
X169861798Y-102546251D02*
X171450703Y-102546251D01*
X171450702Y-105546250D02*
X169861798Y-105546250D01*
X172356249Y-103343408D02*
X172356249Y-104749092D01*
X168906766Y-103126530D02*
G75*
G02*
X168956251Y-103343408I-450505J-216876D01*
G01*
X168906766Y-103126530D02*
G75*
G02*
X169609539Y-102477951I450515J216878D01*
G01*
X168956251Y-104749093D02*
G75*
G02*
X168906766Y-104965970I-499990J-1D01*
G01*
X169609539Y-105614547D02*
G75*
G02*
X168906766Y-104965970I-252258J431700D01*
G01*
X169609540Y-105614549D02*
G75*
G02*
X169861798Y-105546250I252261J-431710D01*
G01*
X169861797Y-102546250D02*
G75*
G02*
X169609539Y-102477951I3J500009D01*
G01*
X171450702Y-105546250D02*
G75*
G02*
X171702961Y-105614549I-2J-500011D01*
G01*
X171702961Y-102477952D02*
G75*
G02*
X171450703Y-102546251I-252261J431711D01*
G01*
X171702961Y-102477952D02*
G75*
G02*
X172405733Y-103126530I252259J-431699D01*
G01*
X172356249Y-103343407D02*
G75*
G02*
X172405732Y-103126529I499941J16D01*
G01*
X172405734Y-104965969D02*
G75*
G02*
X171702961Y-105614549I-450514J-216880D01*
G01*
X172405734Y-104965970D02*
G75*
G02*
X172356259Y-104749092I449916J216719D01*
G01*
X187987501Y-104655342D02*
X187987501Y-103249658D01*
X188893048Y-102452501D02*
X190481953Y-102452501D01*
X190481952Y-105452500D02*
X188893048Y-105452500D01*
X191387499Y-103249658D02*
X191387499Y-104655342D01*
X187938016Y-103032780D02*
G75*
G02*
X187987501Y-103249658I-450505J-216876D01*
G01*
X187938016Y-103032780D02*
G75*
G02*
X188640789Y-102384201I450515J216878D01*
G01*
X187987501Y-104655343D02*
G75*
G02*
X187938016Y-104872220I-499990J-1D01*
G01*
X188640789Y-105520797D02*
G75*
G02*
X187938016Y-104872220I-252258J431700D01*
G01*
X188640790Y-105520799D02*
G75*
G02*
X188893048Y-105452500I252261J-431710D01*
G01*
X188893047Y-102452500D02*
G75*
G02*
X188640789Y-102384201I3J500009D01*
G01*
X190481952Y-105452500D02*
G75*
G02*
X190734211Y-105520799I-2J-500011D01*
G01*
X190734211Y-102384202D02*
G75*
G02*
X190481953Y-102452501I-252261J431711D01*
G01*
X190734211Y-102384202D02*
G75*
G02*
X191436983Y-103032780I252259J-431699D01*
G01*
X191387499Y-103249657D02*
G75*
G02*
X191436982Y-103032779I499941J16D01*
G01*
X191436984Y-104872219D02*
G75*
G02*
X190734211Y-105520799I-450514J-216880D01*
G01*
X191436984Y-104872220D02*
G75*
G02*
X191387509Y-104655342I449916J216719D01*
G01*
M02*
