M48
; DRILL file {KiCad 8.0.2} date 2024-06-23T16:16:01-0500
; FORMAT={-:-/ absolute / inch / decimal}
; #@! TF.CreationDate,2024-06-23T16:16:01-05:00
; #@! TF.GenerationSoftware,Kicad,Pcbnew,8.0.2
; #@! TF.FileFunction,Plated,1,2,PTH
FMAT,2
INCH
; #@! TA.AperFunction,Plated,PTH,ViaDrill
T1C0.0118
; #@! TA.AperFunction,Plated,PTH,ComponentDrill
T2C0.0236
%
G90
G05
T1
X5.685Y-3.5551
X5.689Y-4.2362
X5.7165Y-4.0551
X5.7165Y-4.2609
X5.717Y-2.84
X5.717Y-3.3071
X5.7776Y-4.2028
X5.9724Y-2.8366
X5.9921Y-2.7795
X6.0433Y-2.8642
X6.063Y-4.2028
X6.0709Y-2.7795
X6.0787Y-2.685
X6.1385Y-4.1076
X6.16Y-4.04
X6.2057Y-3.5561
X6.2111Y-4.0103
X6.2205Y-3.4409
X6.2205Y-3.4744
X6.2362Y-3.5236
X6.2362Y-3.5866
X6.2402Y-3.3189
X6.2441Y-2.4882
X6.2598Y-2.8386
X6.2598Y-2.8937
X6.2756Y-2.9449
X6.2756Y-3.0079
X6.2756Y-3.4134
X6.2756Y-3.4961
X6.2815Y-3.2559
X6.2835Y-4.0118
X6.3091Y-2.8633
X6.311Y-3.2205
X6.311Y-3.2835
X6.311Y-3.3504
X6.315Y-4.0
X6.3465Y-2.5984
X6.3465Y-3.998
X6.372Y-4.0256
X6.378Y-3.2205
X6.378Y-3.2835
X6.378Y-3.3504
X6.3858Y-3.9468
X6.3858Y-3.4134
X6.3858Y-3.4961
X6.3858Y-3.9134
X6.4055Y-4.0
X6.4151Y-3.2185
X6.4151Y-3.4744
X6.4178Y-2.9724
X6.4252Y-2.8386
X6.44Y-3.9
X6.4488Y-2.4882
X6.4646Y-3.315
X6.5256Y-3.4744
X6.5285Y-3.5571
X6.5551Y-4.1299
X6.5551Y-4.1772
X6.5906Y-2.685
X6.5984Y-2.7795
X6.6142Y-3.4409
X6.6535Y-4.3012
X6.6772Y-2.7795
X6.7953Y-2.7087
X6.8406Y-4.4587
X6.8681Y-4.0059
X6.9429Y-3.2579
X6.9587Y-4.2126
X7.1181Y-3.0551
X7.1181Y-3.6122
X7.1181Y-3.8071
X7.126Y-4.5276
X7.1654Y-3.3957
X7.1654Y-3.5236
X7.1654Y-4.1339
X7.1654Y-4.2717
X7.2145Y-3.311
X7.2165Y-4.0551
X7.7293Y-4.3376
X7.7313Y-3.2212
X7.7786Y-4.3515
X7.7854Y-3.5827
X7.8046Y-4.3693
X7.8101Y-3.6122
T2
G00X6.1737Y-2.5038
M15
G01X6.1737Y-2.5274
M16
G05
G00X6.1737Y-2.6585
M15
G01X6.1737Y-2.7018
M16
G05
G00X6.5138Y-2.5038
M15
G01X6.5138Y-2.5274
M16
G05
G00X6.5138Y-2.6585
M15
G01X6.5138Y-2.7018
M16
G05
M30
