M48
; DRILL file {KiCad 8.0.2} date 2024-06-23T16:16:01-0500
; FORMAT={-:-/ absolute / inch / decimal}
; #@! TF.CreationDate,2024-06-23T16:16:01-05:00
; #@! TF.GenerationSoftware,Kicad,Pcbnew,8.0.2
; #@! TF.FileFunction,NonPlated,1,2,NPTH
FMAT,2
INCH
; #@! TA.AperFunction,NonPlated,NPTH,ComponentDrill
T1C0.0256
; #@! TA.AperFunction,NonPlated,NPTH,ComponentDrill
T2C0.0689
; #@! TA.AperFunction,NonPlated,NPTH,ComponentDrill
T3C0.1201
; #@! TA.AperFunction,NonPlated,NPTH,ComponentDrill
T4C0.1575
%
G90
G05
T1
X6.23Y-2.6593
X6.4575Y-2.6593
T2
X5.7687Y-3.1562
X5.7687Y-3.9062
X6.1688Y-3.1562
X6.1688Y-3.9062
X6.5187Y-3.1562
X6.5187Y-3.9062
X6.9188Y-3.1562
X6.9188Y-3.9062
X7.2687Y-3.1562
X7.2687Y-3.9062
X7.6688Y-3.1562
X7.6688Y-3.9062
T3
X5.8187Y-3.0562
X5.8187Y-3.8062
X6.0687Y-2.9562
X6.0687Y-3.7062
X6.5687Y-3.0562
X6.5687Y-3.8062
X6.8187Y-2.9562
X6.8187Y-3.7062
X7.3187Y-3.0562
X7.3187Y-3.8062
X7.5687Y-2.9562
X7.5687Y-3.7062
T4
X5.9688Y-3.1562
X5.9688Y-3.9062
X6.7188Y-3.1562
X6.7188Y-3.9062
X7.4688Y-3.1562
X7.4688Y-3.9062
M30
