G04 #@! TF.GenerationSoftware,KiCad,Pcbnew,8.0.2*
G04 #@! TF.CreationDate,2024-06-23T16:14:43-05:00*
G04 #@! TF.ProjectId,6KeyMacroPad,364b6579-4d61-4637-926f-5061642e6b69,rev?*
G04 #@! TF.SameCoordinates,Original*
G04 #@! TF.FileFunction,Copper,L2,Bot*
G04 #@! TF.FilePolarity,Positive*
%FSLAX46Y46*%
G04 Gerber Fmt 4.6, Leading zero omitted, Abs format (unit mm)*
G04 Created by KiCad (PCBNEW 8.0.2) date 2024-06-23 16:14:43*
%MOMM*%
%LPD*%
G01*
G04 APERTURE LIST*
G04 Aperture macros list*
%AMRoundRect*
0 Rectangle with rounded corners*
0 $1 Rounding radius*
0 $2 $3 $4 $5 $6 $7 $8 $9 X,Y pos of 4 corners*
0 Add a 4 corners polygon primitive as box body*
4,1,4,$2,$3,$4,$5,$6,$7,$8,$9,$2,$3,0*
0 Add four circle primitives for the rounded corners*
1,1,$1+$1,$2,$3*
1,1,$1+$1,$4,$5*
1,1,$1+$1,$6,$7*
1,1,$1+$1,$8,$9*
0 Add four rect primitives between the rounded corners*
20,1,$1+$1,$2,$3,$4,$5,0*
20,1,$1+$1,$4,$5,$6,$7,0*
20,1,$1+$1,$6,$7,$8,$9,0*
20,1,$1+$1,$8,$9,$2,$3,0*%
G04 Aperture macros list end*
G04 #@! TA.AperFunction,SMDPad,CuDef*
%ADD10R,1.800000X1.100000*%
G04 #@! TD*
G04 #@! TA.AperFunction,SMDPad,CuDef*
%ADD11RoundRect,0.082000X-0.718000X0.328000X-0.718000X-0.328000X0.718000X-0.328000X0.718000X0.328000X0*%
G04 #@! TD*
G04 #@! TA.AperFunction,SMDPad,CuDef*
%ADD12RoundRect,0.250000X-1.025000X-1.000000X1.025000X-1.000000X1.025000X1.000000X-1.025000X1.000000X0*%
G04 #@! TD*
G04 #@! TA.AperFunction,SMDPad,CuDef*
%ADD13RoundRect,0.250000X0.475000X-0.250000X0.475000X0.250000X-0.475000X0.250000X-0.475000X-0.250000X0*%
G04 #@! TD*
G04 #@! TA.AperFunction,SMDPad,CuDef*
%ADD14RoundRect,0.250000X-0.262500X-0.450000X0.262500X-0.450000X0.262500X0.450000X-0.262500X0.450000X0*%
G04 #@! TD*
G04 #@! TA.AperFunction,SMDPad,CuDef*
%ADD15RoundRect,0.250000X0.450000X-0.262500X0.450000X0.262500X-0.450000X0.262500X-0.450000X-0.262500X0*%
G04 #@! TD*
G04 #@! TA.AperFunction,SMDPad,CuDef*
%ADD16RoundRect,0.250000X-0.450000X0.262500X-0.450000X-0.262500X0.450000X-0.262500X0.450000X0.262500X0*%
G04 #@! TD*
G04 #@! TA.AperFunction,SMDPad,CuDef*
%ADD17RoundRect,0.175000X0.175000X0.325000X-0.175000X0.325000X-0.175000X-0.325000X0.175000X-0.325000X0*%
G04 #@! TD*
G04 #@! TA.AperFunction,SMDPad,CuDef*
%ADD18RoundRect,0.150000X0.200000X0.150000X-0.200000X0.150000X-0.200000X-0.150000X0.200000X-0.150000X0*%
G04 #@! TD*
G04 #@! TA.AperFunction,SMDPad,CuDef*
%ADD19RoundRect,0.250000X-0.475000X0.250000X-0.475000X-0.250000X0.475000X-0.250000X0.475000X0.250000X0*%
G04 #@! TD*
G04 #@! TA.AperFunction,SMDPad,CuDef*
%ADD20RoundRect,0.250000X0.250000X0.475000X-0.250000X0.475000X-0.250000X-0.475000X0.250000X-0.475000X0*%
G04 #@! TD*
G04 #@! TA.AperFunction,SMDPad,CuDef*
%ADD21RoundRect,0.250000X-0.325000X-0.450000X0.325000X-0.450000X0.325000X0.450000X-0.325000X0.450000X0*%
G04 #@! TD*
G04 #@! TA.AperFunction,SMDPad,CuDef*
%ADD22R,2.100000X1.800000*%
G04 #@! TD*
G04 #@! TA.AperFunction,SMDPad,CuDef*
%ADD23RoundRect,0.225000X0.375000X-0.225000X0.375000X0.225000X-0.375000X0.225000X-0.375000X-0.225000X0*%
G04 #@! TD*
G04 #@! TA.AperFunction,SMDPad,CuDef*
%ADD24RoundRect,0.250000X0.262500X0.450000X-0.262500X0.450000X-0.262500X-0.450000X0.262500X-0.450000X0*%
G04 #@! TD*
G04 #@! TA.AperFunction,SMDPad,CuDef*
%ADD25RoundRect,0.250000X-0.250000X-0.475000X0.250000X-0.475000X0.250000X0.475000X-0.250000X0.475000X0*%
G04 #@! TD*
G04 #@! TA.AperFunction,SMDPad,CuDef*
%ADD26RoundRect,0.250000X0.375000X0.625000X-0.375000X0.625000X-0.375000X-0.625000X0.375000X-0.625000X0*%
G04 #@! TD*
G04 #@! TA.AperFunction,ComponentPad*
%ADD27O,1.000000X2.100000*%
G04 #@! TD*
G04 #@! TA.AperFunction,ComponentPad*
%ADD28O,1.000000X1.600000*%
G04 #@! TD*
G04 #@! TA.AperFunction,SMDPad,CuDef*
%ADD29R,0.600000X2.450000*%
G04 #@! TD*
G04 #@! TA.AperFunction,SMDPad,CuDef*
%ADD30R,0.300000X2.450000*%
G04 #@! TD*
G04 #@! TA.AperFunction,SMDPad,CuDef*
%ADD31R,0.550000X1.600000*%
G04 #@! TD*
G04 #@! TA.AperFunction,SMDPad,CuDef*
%ADD32R,1.600000X0.550000*%
G04 #@! TD*
G04 #@! TA.AperFunction,ViaPad*
%ADD33C,0.600000*%
G04 #@! TD*
G04 #@! TA.AperFunction,Conductor*
%ADD34C,0.381000*%
G04 #@! TD*
G04 #@! TA.AperFunction,Conductor*
%ADD35C,0.254000*%
G04 #@! TD*
G04 #@! TA.AperFunction,Conductor*
%ADD36C,0.200000*%
G04 #@! TD*
G04 APERTURE END LIST*
D10*
X144700000Y-113950000D03*
X150900000Y-113950000D03*
X144700000Y-110250000D03*
X150900000Y-110250000D03*
D11*
X187106250Y-84246250D03*
X187106250Y-85746250D03*
X192306250Y-85746250D03*
X192306250Y-84246250D03*
D12*
X195548250Y-94138750D03*
X182621250Y-96678750D03*
D11*
X148887500Y-84302500D03*
X148887500Y-85802500D03*
X154087500Y-85802500D03*
X154087500Y-84302500D03*
D12*
X157448250Y-94138750D03*
X144521250Y-96678750D03*
D11*
X148887500Y-103302500D03*
X148887500Y-104802500D03*
X154087500Y-104802500D03*
X154087500Y-103302500D03*
D12*
X195548250Y-75088750D03*
X182621250Y-77628750D03*
D11*
X168056250Y-84246250D03*
X168056250Y-85746250D03*
X173256250Y-85746250D03*
X173256250Y-84246250D03*
X168056250Y-103296250D03*
X168056250Y-104796250D03*
X173256250Y-104796250D03*
X173256250Y-103296250D03*
D12*
X176498250Y-75088750D03*
X163571250Y-77628750D03*
X176498250Y-94138750D03*
X163571250Y-96678750D03*
X157448250Y-75088750D03*
X144521250Y-77628750D03*
D11*
X187087500Y-103202500D03*
X187087500Y-104702500D03*
X192287500Y-104702500D03*
X192287500Y-103202500D03*
D13*
X176775000Y-110100000D03*
X176775000Y-108200000D03*
X163050000Y-103000000D03*
X163050000Y-104900000D03*
D14*
X150487500Y-107900000D03*
X152312500Y-107900000D03*
D15*
X153700000Y-116012500D03*
X153700000Y-114187500D03*
D16*
X159900000Y-91712500D03*
X159900000Y-89887500D03*
D17*
X162163000Y-73850000D03*
D18*
X162163000Y-75550000D03*
X160163000Y-75550000D03*
X160163000Y-73650000D03*
D13*
X146600000Y-85950000D03*
X146600000Y-84050000D03*
D19*
X169000000Y-108175000D03*
X169000000Y-110075000D03*
D20*
X159550000Y-104450000D03*
X157650000Y-104450000D03*
D13*
X146600000Y-104950000D03*
X146600000Y-103050000D03*
X165100000Y-104900000D03*
X165100000Y-103000000D03*
D14*
X164837500Y-72250000D03*
X166662500Y-72250000D03*
D21*
X168837500Y-68750000D03*
X170887500Y-68750000D03*
D22*
X171400000Y-107950000D03*
X174300000Y-107950000D03*
X174300000Y-110250000D03*
X171400000Y-110250000D03*
D23*
X178593750Y-100868750D03*
X178593750Y-97568750D03*
X197643750Y-81818750D03*
X197643750Y-78518750D03*
X178575000Y-81950000D03*
X178575000Y-78650000D03*
D16*
X162300000Y-91712500D03*
X162300000Y-89887500D03*
D24*
X157412500Y-72250000D03*
X155587500Y-72250000D03*
D25*
X164100000Y-101250000D03*
X166000000Y-101250000D03*
D23*
X196956250Y-100868750D03*
X196956250Y-97568750D03*
X158900000Y-81550000D03*
X158900000Y-78250000D03*
D13*
X184800000Y-86150000D03*
X184800000Y-84250000D03*
X184600000Y-104900000D03*
X184600000Y-103000000D03*
D26*
X149600000Y-72136000D03*
X146800000Y-72136000D03*
D13*
X165800000Y-86150000D03*
X165800000Y-84250000D03*
D27*
X165451250Y-68076250D03*
D28*
X165451250Y-63896250D03*
D27*
X156811250Y-68076250D03*
D28*
X156811250Y-63896250D03*
D29*
X164356250Y-69491250D03*
X163581250Y-69491250D03*
D30*
X162881250Y-69491250D03*
X162381250Y-69491250D03*
X161881250Y-69491250D03*
X161381250Y-69491250D03*
X160881250Y-69491250D03*
X160381250Y-69491250D03*
X159881250Y-69491250D03*
X159381250Y-69491250D03*
D29*
X158681250Y-69491250D03*
X157906250Y-69491250D03*
D13*
X172125000Y-115075000D03*
X172125000Y-113175000D03*
X169925000Y-115050000D03*
X169925000Y-113150000D03*
D31*
X163600000Y-106750000D03*
X162800000Y-106750000D03*
X162000000Y-106750000D03*
X161200000Y-106750000D03*
X160400000Y-106750000D03*
X159600000Y-106750000D03*
X158800000Y-106750000D03*
X158000000Y-106750000D03*
D32*
X156550000Y-108200000D03*
X156550000Y-109000000D03*
X156550000Y-109800000D03*
X156550000Y-110600000D03*
X156550000Y-111400000D03*
X156550000Y-112200000D03*
X156550000Y-113000000D03*
X156550000Y-113800000D03*
D31*
X158000000Y-115250000D03*
X158800000Y-115250000D03*
X159600000Y-115250000D03*
X160400000Y-115250000D03*
X161200000Y-115250000D03*
X162000000Y-115250000D03*
X162800000Y-115250000D03*
X163600000Y-115250000D03*
D32*
X165050000Y-113800000D03*
X165050000Y-113000000D03*
X165050000Y-112200000D03*
X165050000Y-111400000D03*
X165050000Y-110600000D03*
X165050000Y-109800000D03*
X165050000Y-109000000D03*
X165050000Y-108200000D03*
D23*
X159300000Y-100868750D03*
X159300000Y-97568750D03*
D16*
X194750000Y-103187500D03*
X194750000Y-105012500D03*
D33*
X159400000Y-76400000D03*
X162700000Y-101600000D03*
X169600000Y-70600000D03*
X167600000Y-70600000D03*
X182000000Y-105000000D03*
X162200000Y-86700000D03*
X154200000Y-70600000D03*
X158000000Y-88250000D03*
X162200000Y-88800000D03*
X162000000Y-81800000D03*
X182000000Y-89500000D03*
X153500000Y-72750000D03*
X160300000Y-81800000D03*
X173750000Y-113250000D03*
X163576000Y-99060000D03*
X158400000Y-91100000D03*
X160300000Y-85100000D03*
X182000000Y-86250000D03*
X176750000Y-107000000D03*
X160300000Y-83400000D03*
X159400000Y-86700000D03*
X162000000Y-83400000D03*
X163012999Y-75500000D03*
X158400000Y-89500000D03*
X159400000Y-74800000D03*
X154000000Y-106750000D03*
X162944250Y-81750000D03*
X152200000Y-70600000D03*
X165750000Y-88250000D03*
X162000000Y-85100000D03*
X156464000Y-102616000D03*
X159400000Y-88800000D03*
X169000000Y-109250000D03*
X162944250Y-88250000D03*
X146750000Y-106750000D03*
X160400000Y-101600000D03*
X182000000Y-108500000D03*
X172600000Y-68800000D03*
X158500000Y-84300000D03*
X157762001Y-101862001D03*
X145210750Y-72136000D03*
X145200000Y-108227000D03*
X166500000Y-104900000D03*
X183248250Y-84100000D03*
X181000000Y-115000000D03*
X145200000Y-103000000D03*
X164200000Y-84200000D03*
X145210750Y-84000000D03*
X183300000Y-103000000D03*
X159550000Y-82700000D03*
X196375000Y-81818750D03*
X176350000Y-82750000D03*
X196325000Y-110175000D03*
X159600000Y-101900000D03*
X174450000Y-101750000D03*
X162199265Y-100249265D03*
X161850000Y-102250000D03*
X159000000Y-72100000D03*
X151700000Y-72050000D03*
X163200000Y-72100000D03*
X161200000Y-101550000D03*
X162200000Y-99400000D03*
X144500000Y-107600000D03*
X144400000Y-90300000D03*
X165825000Y-90350000D03*
X157625000Y-90325000D03*
X160250000Y-72727000D03*
X159000000Y-73500000D03*
X197577462Y-110528749D03*
X197750000Y-91000000D03*
X198237996Y-110980078D03*
X180800000Y-96700000D03*
X180800000Y-77600000D03*
X198377000Y-91750000D03*
X180800000Y-91750000D03*
X158000000Y-87400000D03*
X168000000Y-87400000D03*
X166500000Y-106100000D03*
X155917500Y-104332500D03*
X167400000Y-68200000D03*
X163800000Y-63200000D03*
X161200000Y-66000000D03*
X158600000Y-63200000D03*
X154400000Y-68200000D03*
D34*
X171225000Y-110075000D02*
X171400000Y-110250000D01*
D35*
X171704000Y-110250000D02*
X174004000Y-107950000D01*
D34*
X172100000Y-113150000D02*
X172125000Y-113175000D01*
X172125000Y-112000000D02*
X177225000Y-112000000D01*
X173250000Y-88250000D02*
X189500000Y-88250000D01*
X160440500Y-106709500D02*
X160400000Y-106750000D01*
X176525000Y-107950000D02*
X176775000Y-108200000D01*
X159700000Y-103334500D02*
X160084500Y-103334500D01*
X162269000Y-109800000D02*
X165050000Y-109800000D01*
X157906250Y-70593750D02*
X157906250Y-69491250D01*
X159400000Y-86700000D02*
X159400000Y-88800000D01*
X146600000Y-85950000D02*
X146600000Y-87850000D01*
X157077000Y-105023000D02*
X157650000Y-104450000D01*
X166662500Y-72250000D02*
X166662500Y-72337500D01*
D35*
X174004000Y-107950000D02*
X174300000Y-107950000D01*
D34*
X160400000Y-101600000D02*
X160400000Y-102076515D01*
X153500000Y-71750000D02*
X153750000Y-71500000D01*
X166662500Y-72250000D02*
X165572000Y-71159500D01*
X184800000Y-86150000D02*
X182100000Y-86150000D01*
X154087500Y-88087500D02*
X154250000Y-88250000D01*
X154308000Y-105023000D02*
X157077000Y-105023000D01*
X164356250Y-70765750D02*
X164356250Y-69491250D01*
X162700000Y-101600000D02*
X163200000Y-101100000D01*
X177900000Y-108200000D02*
X176775000Y-108200000D01*
X146600000Y-106250000D02*
X144873485Y-106250000D01*
X159400000Y-74800000D02*
X159400000Y-76400000D01*
X165750000Y-88250000D02*
X165750000Y-86200000D01*
X154837500Y-71500000D02*
X155587500Y-72250000D01*
X154250000Y-88250000D02*
X158000000Y-88250000D01*
X147000000Y-88250000D02*
X154250000Y-88250000D01*
X174300000Y-107950000D02*
X176525000Y-107950000D01*
X169000000Y-110075000D02*
X169000000Y-109250000D01*
X154087500Y-106662500D02*
X154000000Y-106750000D01*
X191750000Y-88250000D02*
X192306250Y-87693750D01*
X169000000Y-110075000D02*
X171225000Y-110075000D01*
X162000000Y-83400000D02*
X162000000Y-85100000D01*
X166662500Y-72337500D02*
X165150000Y-73850000D01*
X182000000Y-108500000D02*
X190750000Y-108500000D01*
X177225000Y-112000000D02*
X178250000Y-110975000D01*
X192287500Y-106962500D02*
X192287500Y-104702500D01*
X173256250Y-104796250D02*
X174546250Y-104796250D01*
X143409500Y-107713985D02*
X143409500Y-113659500D01*
X158765500Y-103334500D02*
X159700000Y-103334500D01*
X162700000Y-101600000D02*
X162700000Y-102650000D01*
X159700000Y-102776515D02*
X159700000Y-103334500D01*
X176775000Y-108200000D02*
X176775000Y-107025000D01*
X189500000Y-88250000D02*
X189500000Y-89000000D01*
X165750000Y-88250000D02*
X173250000Y-88250000D01*
X162000000Y-81800000D02*
X162000000Y-83400000D01*
X165572000Y-71159500D02*
X164750000Y-71159500D01*
X182100000Y-86150000D02*
X182000000Y-86250000D01*
X165050000Y-109800000D02*
X166343144Y-109800000D01*
X184600000Y-104900000D02*
X182100000Y-104900000D01*
X163200000Y-101100000D02*
X163950000Y-101100000D01*
X163950000Y-101100000D02*
X164100000Y-101250000D01*
X160400000Y-106750000D02*
X160400000Y-107931000D01*
X143700000Y-113950000D02*
X144700000Y-113950000D01*
X192306250Y-87693750D02*
X192306250Y-85746250D01*
X164750000Y-71159500D02*
X164356250Y-70765750D01*
X172125000Y-113175000D02*
X172125000Y-112000000D01*
X146600000Y-106600000D02*
X146750000Y-106750000D01*
X176775000Y-107025000D02*
X176750000Y-107000000D01*
X160400000Y-102076515D02*
X159700000Y-102776515D01*
X162700000Y-102650000D02*
X163050000Y-103000000D01*
X160300000Y-81800000D02*
X160300000Y-83400000D01*
X154087500Y-104802500D02*
X154087500Y-106662500D01*
X190750000Y-108500000D02*
X192287500Y-106962500D01*
X160300000Y-83400000D02*
X160300000Y-85100000D01*
X153500000Y-72750000D02*
X153500000Y-71750000D01*
X153750000Y-71500000D02*
X154837500Y-71500000D01*
X165750000Y-86200000D02*
X165800000Y-86150000D01*
X173256250Y-85746250D02*
X173256250Y-88243750D01*
X162944250Y-81750000D02*
X162944250Y-88250000D01*
X162163000Y-73850000D02*
X163012999Y-74699999D01*
X146600000Y-87850000D02*
X147000000Y-88250000D01*
X169925000Y-113150000D02*
X172100000Y-113150000D01*
X146600000Y-106250000D02*
X146600000Y-106600000D01*
X153462500Y-113950000D02*
X153700000Y-114187500D01*
X157340500Y-71159500D02*
X157906250Y-70593750D01*
X160440500Y-103690500D02*
X160440500Y-106709500D01*
X160400000Y-107931000D02*
X162269000Y-109800000D01*
X157650000Y-103802000D02*
X156464000Y-102616000D01*
D35*
X171400000Y-110250000D02*
X171704000Y-110250000D01*
D34*
X173256250Y-88243750D02*
X173250000Y-88250000D01*
X160084500Y-103334500D02*
X160440500Y-103690500D01*
X158400000Y-89500000D02*
X158400000Y-91100000D01*
X154087500Y-85802500D02*
X154087500Y-88087500D01*
X189000000Y-89500000D02*
X182000000Y-89500000D01*
X157650000Y-104450000D02*
X158765500Y-103334500D01*
X172125000Y-113175000D02*
X173675000Y-113175000D01*
X178250000Y-110975000D02*
X178250000Y-108550000D01*
X163050000Y-103000000D02*
X165100000Y-103000000D01*
X156678000Y-71159500D02*
X157340500Y-71159500D01*
X155587500Y-72250000D02*
X156678000Y-71159500D01*
X162200000Y-86700000D02*
X162200000Y-88800000D01*
X178250000Y-108550000D02*
X177900000Y-108200000D01*
X143409500Y-113659500D02*
X143700000Y-113950000D01*
X166343144Y-109800000D02*
X168543144Y-112000000D01*
X157650000Y-104450000D02*
X157650000Y-103802000D01*
X173675000Y-113175000D02*
X173750000Y-113250000D01*
X144873485Y-106250000D02*
X143409500Y-107713985D01*
X189500000Y-88250000D02*
X191750000Y-88250000D01*
X146600000Y-104950000D02*
X146600000Y-106250000D01*
X174546250Y-104796250D02*
X176750000Y-107000000D01*
X163012999Y-74699999D02*
X163012999Y-75500000D01*
X150900000Y-113950000D02*
X153462500Y-113950000D01*
X168543144Y-112000000D02*
X172125000Y-112000000D01*
X182100000Y-104900000D02*
X182000000Y-105000000D01*
X165150000Y-73850000D02*
X162163000Y-73850000D01*
X154087500Y-104802500D02*
X154308000Y-105023000D01*
X144700000Y-113950000D02*
X150900000Y-113950000D01*
X189500000Y-89000000D02*
X189000000Y-89500000D01*
D35*
X169225000Y-107950000D02*
X169000000Y-108175000D01*
X171400000Y-107950000D02*
X169225000Y-107950000D01*
X168975000Y-108200000D02*
X169000000Y-108175000D01*
X165100000Y-108150000D02*
X165050000Y-108200000D01*
X165050000Y-108200000D02*
X168975000Y-108200000D01*
X176775000Y-110100000D02*
X174450000Y-110100000D01*
X167775000Y-109375000D02*
X167400000Y-109000000D01*
X173073000Y-111477000D02*
X168752000Y-111477000D01*
X174450000Y-110100000D02*
X174300000Y-110250000D01*
X167400000Y-109000000D02*
X165050000Y-109000000D01*
X174300000Y-110250000D02*
X173073000Y-111477000D01*
X168752000Y-111477000D02*
X167775000Y-110500000D01*
X167775000Y-110500000D02*
X167775000Y-109375000D01*
X159550000Y-106700000D02*
X159600000Y-106750000D01*
X159550000Y-104450000D02*
X159550000Y-106700000D01*
D34*
X165100000Y-104900000D02*
X165100000Y-105250000D01*
X168056250Y-84246250D02*
X168056250Y-83443750D01*
X167925000Y-112294000D02*
X167925000Y-114650000D01*
X165750000Y-84200000D02*
X165800000Y-84250000D01*
X145200000Y-103000000D02*
X146750000Y-103000000D01*
X145210750Y-72136000D02*
X146800000Y-72136000D01*
X156900000Y-82700000D02*
X158500000Y-84300000D01*
X150160500Y-108227000D02*
X150487500Y-107900000D01*
X169925000Y-115050000D02*
X172100000Y-115050000D01*
X168056250Y-83443750D02*
X168700000Y-82800000D01*
X168056250Y-102006250D02*
X168056250Y-103296250D01*
X165100000Y-104900000D02*
X163050000Y-104900000D01*
X167839762Y-103296250D02*
X168056250Y-103296250D01*
X168052500Y-84250000D02*
X168056250Y-84246250D01*
X146750000Y-103000000D02*
X146800000Y-103050000D01*
X172100000Y-115050000D02*
X172125000Y-115075000D01*
X181000000Y-115000000D02*
X180925000Y-115075000D01*
X153600000Y-82700000D02*
X156900000Y-82700000D01*
X145200000Y-108227000D02*
X150160500Y-108227000D01*
X166500000Y-104900000D02*
X166500000Y-104636012D01*
X184650000Y-84100000D02*
X184800000Y-84250000D01*
X166703750Y-103296250D02*
X168056250Y-103296250D01*
X175040500Y-83440500D02*
X182588750Y-83440500D01*
X168700000Y-82800000D02*
X174400000Y-82800000D01*
X174400000Y-82800000D02*
X175040500Y-83440500D01*
X148887500Y-83312500D02*
X148900000Y-83300000D01*
X165100000Y-105250000D02*
X163600000Y-106750000D01*
X148887500Y-102892500D02*
X148887500Y-103302500D01*
X166231000Y-110600000D02*
X167925000Y-112294000D01*
X157762001Y-101862001D02*
X149917999Y-101862001D01*
X183300000Y-103000000D02*
X184600000Y-103000000D01*
X165800000Y-84250000D02*
X168052500Y-84250000D01*
X149500000Y-82700000D02*
X153600000Y-82700000D01*
X180925000Y-115075000D02*
X172125000Y-115075000D01*
X148887500Y-84302500D02*
X148887500Y-83312500D01*
X145260750Y-84050000D02*
X145210750Y-84000000D01*
X184800000Y-84250000D02*
X187102500Y-84250000D01*
X167300000Y-101250000D02*
X168056250Y-102006250D01*
X187102500Y-84250000D02*
X187106250Y-84246250D01*
X149917999Y-101862001D02*
X148887500Y-102892500D01*
X166500000Y-104636012D02*
X167839762Y-103296250D01*
X184600000Y-103000000D02*
X186885000Y-103000000D01*
X164200000Y-84200000D02*
X165750000Y-84200000D01*
X146600000Y-84050000D02*
X148635000Y-84050000D01*
X163050000Y-106500000D02*
X162800000Y-106750000D01*
X168325000Y-115050000D02*
X169925000Y-115050000D01*
X146800000Y-103050000D02*
X148760000Y-103050000D01*
X186885000Y-103000000D02*
X187087500Y-103202500D01*
X165050000Y-110600000D02*
X166231000Y-110600000D01*
X182588750Y-83440500D02*
X183248250Y-84100000D01*
X163050000Y-104900000D02*
X163050000Y-106500000D01*
X165100000Y-104900000D02*
X166703750Y-103296250D01*
X148900000Y-83300000D02*
X149500000Y-82700000D01*
X148635000Y-84050000D02*
X148887500Y-84302500D01*
X183248250Y-84100000D02*
X184650000Y-84100000D01*
X167925000Y-114650000D02*
X168325000Y-115050000D01*
X148760000Y-103050000D02*
X149006250Y-103296250D01*
X146600000Y-84050000D02*
X145260750Y-84050000D01*
X166000000Y-101250000D02*
X167300000Y-101250000D01*
D35*
X157448250Y-75088750D02*
X157448250Y-76798250D01*
X157448250Y-76798250D02*
X158900000Y-78250000D01*
X181200000Y-82625000D02*
X193450000Y-82625000D01*
X194256250Y-81818750D02*
X196375000Y-81818750D01*
X165050000Y-112200000D02*
X166104000Y-112200000D01*
X190121000Y-116379000D02*
X196325000Y-110175000D01*
X158900000Y-82050000D02*
X159550000Y-82700000D01*
X158900000Y-81550000D02*
X158900000Y-82050000D01*
X180525000Y-81950000D02*
X181200000Y-82625000D01*
X166946000Y-113042000D02*
X166946000Y-115044909D01*
X196375000Y-81818750D02*
X197643750Y-81818750D01*
X193450000Y-82625000D02*
X194256250Y-81818750D01*
X166104000Y-112200000D02*
X166946000Y-113042000D01*
X176350000Y-82750000D02*
X177281250Y-81818750D01*
X168280091Y-116379000D02*
X190121000Y-116379000D01*
X166946000Y-115044909D02*
X168280091Y-116379000D01*
X177281250Y-81818750D02*
X178593750Y-81818750D01*
X178575000Y-81950000D02*
X180525000Y-81950000D01*
X157448250Y-95717000D02*
X159300000Y-97568750D01*
X157448250Y-94138750D02*
X157448250Y-95717000D01*
X159300000Y-101600000D02*
X159300000Y-100868750D01*
X196229250Y-101595750D02*
X196956250Y-100868750D01*
X178593750Y-100868750D02*
X179320750Y-101595750D01*
X159600000Y-101900000D02*
X159300000Y-101600000D01*
X165050000Y-113000000D02*
X166104000Y-113000000D01*
X196956250Y-110443750D02*
X196956250Y-100868750D01*
X166492000Y-113388000D02*
X166492000Y-115232962D01*
X166492000Y-115232962D02*
X168092038Y-116833000D01*
X166104000Y-113000000D02*
X166492000Y-113388000D01*
X190567000Y-116833000D02*
X196956250Y-110443750D01*
X179320750Y-101595750D02*
X196229250Y-101595750D01*
X168092038Y-116833000D02*
X190567000Y-116833000D01*
X177831250Y-100868750D02*
X178593750Y-100868750D01*
X174450000Y-101750000D02*
X176950000Y-101750000D01*
X176950000Y-101750000D02*
X177831250Y-100868750D01*
X176498250Y-76423250D02*
X178593750Y-78518750D01*
X176498250Y-75088750D02*
X176498250Y-76423250D01*
X176498250Y-95473250D02*
X178593750Y-97568750D01*
X176498250Y-94138750D02*
X176498250Y-95473250D01*
X195548250Y-75088750D02*
X195548250Y-76423250D01*
X195548250Y-76423250D02*
X197643750Y-78518750D01*
X195548250Y-94138750D02*
X195548250Y-96048250D01*
X195548250Y-96048250D02*
X197068750Y-97568750D01*
D36*
X160938000Y-88962000D02*
X160012500Y-89887500D01*
X160875000Y-98693200D02*
X160875000Y-98925000D01*
X160900000Y-74813000D02*
X160163000Y-75550000D01*
X160381250Y-70966250D02*
X160381250Y-69491250D01*
X160875000Y-93437501D02*
X160875000Y-98693200D01*
X160875000Y-98925000D02*
X162199265Y-100249265D01*
X160815000Y-71400000D02*
X160381250Y-70966250D01*
X160012500Y-89887500D02*
X159900000Y-89887500D01*
X160200000Y-75550000D02*
X160950000Y-76300000D01*
X160900000Y-71400000D02*
X160815000Y-71400000D01*
X159900000Y-91412500D02*
X159900000Y-92462501D01*
X161850000Y-102250000D02*
X161825000Y-102275000D01*
X161381250Y-69491250D02*
X161381250Y-70918750D01*
X160938000Y-76312000D02*
X160938000Y-88962000D01*
X162000000Y-104849999D02*
X162000000Y-106750000D01*
X161381250Y-70918750D02*
X160900000Y-71400000D01*
X160900000Y-71400000D02*
X160900000Y-74813000D01*
X161825000Y-104674999D02*
X162000000Y-104849999D01*
X160950000Y-76300000D02*
X160938000Y-76312000D01*
X160163000Y-75550000D02*
X160200000Y-75550000D01*
X161825000Y-102275000D02*
X161825000Y-104674999D01*
X159900000Y-92462501D02*
X160875000Y-93437501D01*
D35*
X158681250Y-71781250D02*
X159000000Y-72100000D01*
X163581250Y-71718750D02*
X163581250Y-69491250D01*
X163200000Y-72100000D02*
X163581250Y-71718750D01*
X159000000Y-72487000D02*
X160163000Y-73650000D01*
X149686000Y-72050000D02*
X149600000Y-72136000D01*
X151700000Y-72050000D02*
X149686000Y-72050000D01*
X159000000Y-72100000D02*
X159000000Y-72487000D01*
X158681250Y-69491250D02*
X158681250Y-71781250D01*
D36*
X161325000Y-98506800D02*
X161659100Y-98840900D01*
X162300000Y-92462501D02*
X161325000Y-93437501D01*
X161388000Y-88975500D02*
X162300000Y-89887500D01*
X161881250Y-69491250D02*
X161881250Y-71118750D01*
X161417000Y-74804000D02*
X162163000Y-75550000D01*
X161200000Y-101550000D02*
X161200000Y-106750000D01*
X162163000Y-75550000D02*
X161388000Y-76325000D01*
X161659100Y-98859100D02*
X162200000Y-99400000D01*
X160881250Y-69491250D02*
X160881250Y-68099750D01*
X161388000Y-76325000D02*
X161388000Y-88975500D01*
X160881250Y-68099750D02*
X161163000Y-67818000D01*
X161544000Y-67818000D02*
X161881250Y-68155250D01*
X161881250Y-68155250D02*
X161881250Y-69491250D01*
X161163000Y-67818000D02*
X161544000Y-67818000D01*
X162300000Y-91412500D02*
X162300000Y-92462501D01*
X161881250Y-71118750D02*
X161417000Y-71583000D01*
X161659100Y-98840900D02*
X161659100Y-98859100D01*
X161417000Y-71583000D02*
X161417000Y-74804000D01*
X161325000Y-93437501D02*
X161325000Y-98506800D01*
D35*
X194735000Y-103202500D02*
X194750000Y-103187500D01*
X192287500Y-103202500D02*
X194735000Y-103202500D01*
X196196250Y-84246250D02*
X197300000Y-85350000D01*
X144500000Y-107600000D02*
X147900000Y-107600000D01*
X144400000Y-90300000D02*
X157600000Y-90300000D01*
X165825000Y-90350000D02*
X196025000Y-90350000D01*
X147900000Y-107600000D02*
X148887500Y-106612500D01*
X192306250Y-84246250D02*
X196196250Y-84246250D01*
X148887500Y-106612500D02*
X148887500Y-104802500D01*
X157600000Y-90300000D02*
X157625000Y-90325000D01*
X196025000Y-90350000D02*
X197300000Y-89075000D01*
X197300000Y-85350000D02*
X197300000Y-88750000D01*
X197300000Y-89075000D02*
X197300000Y-88750000D01*
X180625000Y-87275000D02*
X185577500Y-87275000D01*
X185577500Y-87275000D02*
X187106250Y-85746250D01*
X173256250Y-84246250D02*
X177596250Y-84246250D01*
X177596250Y-84246250D02*
X180625000Y-87275000D01*
X144700000Y-110250000D02*
X150900000Y-110250000D01*
X156250000Y-107900000D02*
X156550000Y-108200000D01*
X152312500Y-108837500D02*
X150900000Y-110250000D01*
X152312500Y-107900000D02*
X152312500Y-108837500D01*
X152312500Y-107900000D02*
X156250000Y-107900000D01*
X153700000Y-116950000D02*
X154500000Y-117750000D01*
X154500000Y-117750000D02*
X158954000Y-117750000D01*
X158954000Y-117750000D02*
X160400000Y-116304000D01*
X153700000Y-116012500D02*
X153700000Y-116950000D01*
X160400000Y-116304000D02*
X160400000Y-115250000D01*
X160250000Y-72727000D02*
X159881250Y-72358250D01*
X157412500Y-72250000D02*
X157750000Y-72250000D01*
X159881250Y-72358250D02*
X159881250Y-69491250D01*
X157750000Y-72250000D02*
X159000000Y-73500000D01*
X162573000Y-72359712D02*
X162573000Y-71177000D01*
X162963288Y-72750000D02*
X162573000Y-72359712D01*
X162573000Y-71177000D02*
X162881250Y-70868750D01*
X162881250Y-70868750D02*
X162881250Y-69491250D01*
X164837500Y-72250000D02*
X164337500Y-72750000D01*
X164337500Y-72750000D02*
X162963288Y-72750000D01*
X142703464Y-107296536D02*
X144521250Y-105478750D01*
X143600000Y-78550000D02*
X143600000Y-95757500D01*
X144521250Y-105478750D02*
X144521250Y-96678750D01*
X143600000Y-95757500D02*
X144521250Y-96678750D01*
X160854000Y-118250000D02*
X144500000Y-118250000D01*
X142702242Y-116452242D02*
X142703464Y-107296536D01*
X144521250Y-77628750D02*
X143600000Y-78550000D01*
X144500000Y-118250000D02*
X142702242Y-116452242D01*
X162800000Y-116304000D02*
X160854000Y-118250000D01*
X162800000Y-115250000D02*
X162800000Y-116304000D01*
X197577462Y-110528749D02*
X197513304Y-110528749D01*
X163571250Y-91000000D02*
X163571250Y-96678750D01*
X163671250Y-91100000D02*
X163571250Y-91000000D01*
X197650000Y-91100000D02*
X163671250Y-91100000D01*
X197513304Y-110528749D02*
X190755053Y-117287000D01*
X163571250Y-77628750D02*
X163571250Y-91000000D01*
X165050000Y-114433015D02*
X165050000Y-113800000D01*
X197750000Y-91000000D02*
X197650000Y-91100000D01*
X190755053Y-117287000D02*
X167903985Y-117287000D01*
X167903985Y-117287000D02*
X165050000Y-114433015D01*
X191434993Y-117741000D02*
X166091000Y-117741000D01*
X198195915Y-110980078D02*
X191434993Y-117741000D01*
X198377000Y-91750000D02*
X180800000Y-91750000D01*
X180828750Y-77628750D02*
X180800000Y-77600000D01*
X166091000Y-117741000D02*
X163600000Y-115250000D01*
X182621250Y-77628750D02*
X180828750Y-77628750D01*
X198237996Y-110980078D02*
X198195915Y-110980078D01*
X182600000Y-96700000D02*
X182621250Y-96678750D01*
X180800000Y-96700000D02*
X182600000Y-96700000D01*
X154902500Y-84302500D02*
X158000000Y-87400000D01*
X168000000Y-85802500D02*
X168056250Y-85746250D01*
X168000000Y-87400000D02*
X168000000Y-85802500D01*
X154087500Y-84302500D02*
X154902500Y-84302500D01*
X155917500Y-104332500D02*
X154887500Y-103302500D01*
X166752500Y-106100000D02*
X168056250Y-104796250D01*
X154887500Y-103302500D02*
X154087500Y-103302500D01*
X166500000Y-106100000D02*
X166752500Y-106100000D01*
X186700000Y-106300000D02*
X187087500Y-105912500D01*
X178296250Y-103296250D02*
X181300000Y-106300000D01*
X181300000Y-106300000D02*
X186700000Y-106300000D01*
X187087500Y-105912500D02*
X187087500Y-104702500D01*
X173256250Y-103296250D02*
X178296250Y-103296250D01*
X167400000Y-114856856D02*
X167400000Y-112550000D01*
X166250000Y-111400000D02*
X165050000Y-111400000D01*
X194750000Y-105012500D02*
X194750000Y-110400000D01*
X168468144Y-115925000D02*
X167400000Y-114856856D01*
X189225000Y-115925000D02*
X168468144Y-115925000D01*
X194750000Y-110400000D02*
X189225000Y-115925000D01*
X167400000Y-112550000D02*
X166250000Y-111400000D01*
G04 #@! TA.AperFunction,Conductor*
G36*
X148743039Y-110897185D02*
G01*
X148788794Y-110949989D01*
X148800000Y-111001500D01*
X148800000Y-113400000D01*
X149376000Y-113400000D01*
X149443039Y-113419685D01*
X149488794Y-113472489D01*
X149500000Y-113524000D01*
X149500000Y-113700000D01*
X151026000Y-113700000D01*
X151093039Y-113719685D01*
X151138794Y-113772489D01*
X151150000Y-113824000D01*
X151150000Y-115000000D01*
X151847828Y-115000000D01*
X151847844Y-114999999D01*
X151907372Y-114993598D01*
X151907379Y-114993596D01*
X152042086Y-114943354D01*
X152042093Y-114943350D01*
X152157187Y-114857190D01*
X152157190Y-114857187D01*
X152243350Y-114742093D01*
X152243355Y-114742084D01*
X152286180Y-114627263D01*
X152328050Y-114571329D01*
X152393514Y-114546911D01*
X152461788Y-114561762D01*
X152511193Y-114611167D01*
X152520068Y-114631590D01*
X152565642Y-114769121D01*
X152565643Y-114769124D01*
X152657684Y-114918345D01*
X152751304Y-115011965D01*
X152784789Y-115073288D01*
X152779805Y-115142980D01*
X152751305Y-115187327D01*
X152657287Y-115281345D01*
X152565187Y-115430663D01*
X152565186Y-115430666D01*
X152510001Y-115597203D01*
X152510001Y-115597204D01*
X152510000Y-115597204D01*
X152499500Y-115699983D01*
X152499500Y-116325001D01*
X152499501Y-116325019D01*
X152510000Y-116427796D01*
X152510001Y-116427799D01*
X152557183Y-116570183D01*
X152565186Y-116594334D01*
X152657288Y-116743656D01*
X152781344Y-116867712D01*
X152930666Y-116959814D01*
X153002907Y-116983752D01*
X153060352Y-117023525D01*
X153085520Y-117077266D01*
X153096612Y-117133029D01*
X153096615Y-117133039D01*
X153118104Y-117184914D01*
X153118105Y-117184918D01*
X153143914Y-117247228D01*
X153143919Y-117247237D01*
X153154178Y-117262590D01*
X153154179Y-117262591D01*
X153212590Y-117350010D01*
X153273399Y-117410819D01*
X153306884Y-117472142D01*
X153301900Y-117541834D01*
X153260028Y-117597767D01*
X153194564Y-117622184D01*
X153185718Y-117622500D01*
X144811281Y-117622500D01*
X144744242Y-117602815D01*
X144723600Y-117586181D01*
X143366101Y-116228682D01*
X143332616Y-116167359D01*
X143329782Y-116140992D01*
X143329932Y-115020391D01*
X143349626Y-114953357D01*
X143402436Y-114907609D01*
X143471595Y-114897675D01*
X143528244Y-114921144D01*
X143557910Y-114943352D01*
X143557913Y-114943354D01*
X143692620Y-114993596D01*
X143692627Y-114993598D01*
X143752155Y-114999999D01*
X143752172Y-115000000D01*
X144450000Y-115000000D01*
X144950000Y-115000000D01*
X145647828Y-115000000D01*
X145647844Y-114999999D01*
X145707372Y-114993598D01*
X145707379Y-114993596D01*
X145842086Y-114943354D01*
X145842093Y-114943350D01*
X145957187Y-114857190D01*
X145957190Y-114857187D01*
X146043350Y-114742093D01*
X146043354Y-114742086D01*
X146093596Y-114607379D01*
X146093598Y-114607372D01*
X146099999Y-114547844D01*
X149500000Y-114547844D01*
X149506401Y-114607372D01*
X149506403Y-114607379D01*
X149556645Y-114742086D01*
X149556649Y-114742093D01*
X149642809Y-114857187D01*
X149642812Y-114857190D01*
X149757906Y-114943350D01*
X149757913Y-114943354D01*
X149892620Y-114993596D01*
X149892627Y-114993598D01*
X149952155Y-114999999D01*
X149952172Y-115000000D01*
X150650000Y-115000000D01*
X150650000Y-114200000D01*
X149500000Y-114200000D01*
X149500000Y-114547844D01*
X146099999Y-114547844D01*
X146100000Y-114547827D01*
X146100000Y-114200000D01*
X144950000Y-114200000D01*
X144950000Y-115000000D01*
X144450000Y-115000000D01*
X144450000Y-113824000D01*
X144469685Y-113756961D01*
X144522489Y-113711206D01*
X144574000Y-113700000D01*
X146100000Y-113700000D01*
X146100000Y-113524000D01*
X146119685Y-113456961D01*
X146172489Y-113411206D01*
X146224000Y-113400000D01*
X146800000Y-113400000D01*
X146800000Y-111001500D01*
X146819685Y-110934461D01*
X146872489Y-110888706D01*
X146924000Y-110877500D01*
X148676000Y-110877500D01*
X148743039Y-110897185D01*
G37*
G04 #@! TD.AperFunction*
G04 #@! TA.AperFunction,Conductor*
G36*
X155194580Y-108547185D02*
G01*
X155240335Y-108599989D01*
X155250830Y-108664751D01*
X155249500Y-108677127D01*
X155249500Y-108677129D01*
X155249500Y-108677133D01*
X155249500Y-109322870D01*
X155249501Y-109322879D01*
X155256367Y-109386751D01*
X155256367Y-109413257D01*
X155255909Y-109417516D01*
X155255909Y-109417517D01*
X155249500Y-109477127D01*
X155249500Y-109477129D01*
X155249500Y-109477133D01*
X155249500Y-110122870D01*
X155249501Y-110122879D01*
X155256367Y-110186751D01*
X155256367Y-110213257D01*
X155255909Y-110217516D01*
X155255909Y-110217517D01*
X155249500Y-110277127D01*
X155249500Y-110277129D01*
X155249500Y-110277133D01*
X155249500Y-110922870D01*
X155249501Y-110922879D01*
X155256367Y-110986751D01*
X155256367Y-111013257D01*
X155255909Y-111017516D01*
X155255909Y-111017517D01*
X155249500Y-111077127D01*
X155249500Y-111077129D01*
X155249500Y-111077133D01*
X155249500Y-111722870D01*
X155249501Y-111722879D01*
X155256367Y-111786751D01*
X155256367Y-111813257D01*
X155255909Y-111817516D01*
X155255909Y-111817517D01*
X155249500Y-111877127D01*
X155249500Y-111877129D01*
X155249500Y-111877133D01*
X155249500Y-112522870D01*
X155249501Y-112522879D01*
X155256367Y-112586751D01*
X155256367Y-112613257D01*
X155255909Y-112617516D01*
X155255909Y-112617517D01*
X155249500Y-112677127D01*
X155249500Y-112677129D01*
X155249500Y-112677133D01*
X155249500Y-113322870D01*
X155249501Y-113322879D01*
X155256367Y-113386751D01*
X155256367Y-113413257D01*
X155255909Y-113417516D01*
X155255909Y-113417517D01*
X155249500Y-113477127D01*
X155249500Y-113477129D01*
X155249500Y-113477133D01*
X155249500Y-114122870D01*
X155249501Y-114122876D01*
X155255908Y-114182483D01*
X155306202Y-114317328D01*
X155306206Y-114317335D01*
X155392452Y-114432544D01*
X155392455Y-114432547D01*
X155507664Y-114518793D01*
X155507671Y-114518797D01*
X155642517Y-114569091D01*
X155642516Y-114569091D01*
X155649444Y-114569835D01*
X155702127Y-114575500D01*
X157100500Y-114575499D01*
X157167539Y-114595184D01*
X157213294Y-114647987D01*
X157224500Y-114699499D01*
X157224500Y-116097870D01*
X157224501Y-116097876D01*
X157230908Y-116157483D01*
X157281202Y-116292328D01*
X157281206Y-116292335D01*
X157367452Y-116407544D01*
X157367455Y-116407547D01*
X157482664Y-116493793D01*
X157482671Y-116493797D01*
X157527618Y-116510561D01*
X157617517Y-116544091D01*
X157677127Y-116550500D01*
X158322872Y-116550499D01*
X158382483Y-116544091D01*
X158382486Y-116544089D01*
X158386744Y-116543632D01*
X158413254Y-116543632D01*
X158417514Y-116544089D01*
X158417517Y-116544091D01*
X158477127Y-116550500D01*
X158966719Y-116550499D01*
X159033758Y-116570183D01*
X159079513Y-116622987D01*
X159089457Y-116692146D01*
X159060432Y-116755702D01*
X159054400Y-116762180D01*
X158730400Y-117086181D01*
X158669077Y-117119666D01*
X158642719Y-117122500D01*
X154811281Y-117122500D01*
X154744242Y-117102815D01*
X154723600Y-117086181D01*
X154649574Y-117012155D01*
X154616089Y-116950832D01*
X154621073Y-116881140D01*
X154649570Y-116836797D01*
X154742712Y-116743656D01*
X154834814Y-116594334D01*
X154889999Y-116427797D01*
X154900500Y-116325009D01*
X154900499Y-115699992D01*
X154889999Y-115597203D01*
X154834814Y-115430666D01*
X154742712Y-115281344D01*
X154648695Y-115187327D01*
X154615210Y-115126004D01*
X154620194Y-115056312D01*
X154648695Y-115011964D01*
X154742317Y-114918342D01*
X154834356Y-114769124D01*
X154834358Y-114769119D01*
X154889505Y-114602697D01*
X154889506Y-114602690D01*
X154899999Y-114499986D01*
X154900000Y-114499973D01*
X154900000Y-114437500D01*
X153574000Y-114437500D01*
X153506961Y-114417815D01*
X153461206Y-114365011D01*
X153450000Y-114313500D01*
X153450000Y-113937500D01*
X153950000Y-113937500D01*
X154899999Y-113937500D01*
X154899999Y-113875028D01*
X154899998Y-113875013D01*
X154889505Y-113772302D01*
X154834358Y-113605880D01*
X154834356Y-113605875D01*
X154742315Y-113456654D01*
X154618345Y-113332684D01*
X154469124Y-113240643D01*
X154469119Y-113240641D01*
X154302697Y-113185494D01*
X154302690Y-113185493D01*
X154199986Y-113175000D01*
X153950000Y-113175000D01*
X153950000Y-113937500D01*
X153450000Y-113937500D01*
X153450000Y-113175000D01*
X153200029Y-113175000D01*
X153200012Y-113175001D01*
X153097302Y-113185494D01*
X152930880Y-113240641D01*
X152930875Y-113240643D01*
X152781654Y-113332684D01*
X152657684Y-113456654D01*
X152565643Y-113605875D01*
X152565641Y-113605880D01*
X152541706Y-113678113D01*
X152501933Y-113735558D01*
X152437417Y-113762381D01*
X152368642Y-113750066D01*
X152317442Y-113702523D01*
X152300000Y-113639109D01*
X152300000Y-113352172D01*
X152299999Y-113352155D01*
X152293598Y-113292627D01*
X152293596Y-113292620D01*
X152243354Y-113157913D01*
X152243350Y-113157906D01*
X152157190Y-113042812D01*
X152157187Y-113042809D01*
X152042093Y-112956649D01*
X152042086Y-112956645D01*
X151907379Y-112906403D01*
X151899832Y-112904620D01*
X151900343Y-112902456D01*
X151846192Y-112880025D01*
X151806345Y-112822632D01*
X151800000Y-112783475D01*
X151800000Y-111417030D01*
X151819685Y-111349991D01*
X151872489Y-111304236D01*
X151900116Y-111296657D01*
X151899932Y-111295876D01*
X151907479Y-111294092D01*
X151907481Y-111294091D01*
X151907483Y-111294091D01*
X152042331Y-111243796D01*
X152157546Y-111157546D01*
X152243796Y-111042331D01*
X152294091Y-110907483D01*
X152300500Y-110847873D01*
X152300499Y-109788280D01*
X152320183Y-109721242D01*
X152336818Y-109700600D01*
X152560250Y-109477169D01*
X152799911Y-109237508D01*
X152825307Y-109199501D01*
X152830342Y-109191966D01*
X152868576Y-109134743D01*
X152868583Y-109134733D01*
X152890755Y-109081204D01*
X152899995Y-109058896D01*
X152943835Y-109004495D01*
X152949434Y-109000827D01*
X153043656Y-108942712D01*
X153167712Y-108818656D01*
X153259814Y-108669334D01*
X153278648Y-108612495D01*
X153318421Y-108555051D01*
X153382937Y-108528228D01*
X153396354Y-108527500D01*
X155127541Y-108527500D01*
X155194580Y-108547185D01*
G37*
G04 #@! TD.AperFunction*
G04 #@! TA.AperFunction,Conductor*
G36*
X192480539Y-104472185D02*
G01*
X192526294Y-104524989D01*
X192537500Y-104576500D01*
X192537500Y-105612500D01*
X193043647Y-105612500D01*
X193157430Y-105597520D01*
X193157435Y-105597518D01*
X193299006Y-105538878D01*
X193299012Y-105538875D01*
X193398095Y-105462845D01*
X193463264Y-105437650D01*
X193531709Y-105451688D01*
X193581699Y-105500501D01*
X193591288Y-105522215D01*
X193599032Y-105545586D01*
X193615186Y-105594333D01*
X193615187Y-105594336D01*
X193626699Y-105613000D01*
X193707288Y-105743656D01*
X193831344Y-105867712D01*
X193980666Y-105959814D01*
X194037505Y-105978648D01*
X194094948Y-106018418D01*
X194121772Y-106082934D01*
X194122500Y-106096353D01*
X194122500Y-110088719D01*
X194102815Y-110155758D01*
X194086181Y-110176400D01*
X189001400Y-115261181D01*
X188940077Y-115294666D01*
X188913719Y-115297500D01*
X181910801Y-115297500D01*
X181843762Y-115277815D01*
X181798007Y-115225011D01*
X181787581Y-115159616D01*
X181805565Y-115000000D01*
X181805565Y-114999996D01*
X181785369Y-114820750D01*
X181785368Y-114820745D01*
X181725788Y-114650476D01*
X181678677Y-114575500D01*
X181629816Y-114497738D01*
X181502262Y-114370184D01*
X181440449Y-114331344D01*
X181349523Y-114274211D01*
X181179254Y-114214631D01*
X181179249Y-114214630D01*
X181000004Y-114194435D01*
X180999996Y-114194435D01*
X180820750Y-114214630D01*
X180820745Y-114214631D01*
X180650476Y-114274211D01*
X180559551Y-114331344D01*
X180507079Y-114364315D01*
X180505998Y-114364994D01*
X180440026Y-114384000D01*
X179956000Y-114384000D01*
X179888961Y-114364315D01*
X179843206Y-114311511D01*
X179832000Y-114260000D01*
X179832000Y-106018781D01*
X179851685Y-105951742D01*
X179904489Y-105905987D01*
X179973647Y-105896043D01*
X180037203Y-105925068D01*
X180043681Y-105931100D01*
X180812589Y-106700008D01*
X180859617Y-106747036D01*
X180899994Y-106787413D01*
X180899996Y-106787414D01*
X180940731Y-106814632D01*
X181002767Y-106856083D01*
X181036215Y-106869937D01*
X181116965Y-106903386D01*
X181176274Y-106915183D01*
X181238192Y-106927499D01*
X181238196Y-106927500D01*
X181238197Y-106927500D01*
X186761804Y-106927500D01*
X186761805Y-106927499D01*
X186883035Y-106903386D01*
X186963784Y-106869937D01*
X186997233Y-106856083D01*
X187100008Y-106787411D01*
X187187411Y-106700008D01*
X187574911Y-106312508D01*
X187597130Y-106279255D01*
X187643583Y-106209733D01*
X187670845Y-106143917D01*
X187690886Y-106095534D01*
X187702290Y-106038199D01*
X187734674Y-105976291D01*
X187795389Y-105941716D01*
X187865159Y-105945455D01*
X187890116Y-105957548D01*
X187931524Y-105983698D01*
X188019043Y-106018781D01*
X188101013Y-106051640D01*
X188101014Y-106051640D01*
X188101016Y-106051641D01*
X188280007Y-106087780D01*
X188280001Y-106087780D01*
X188296321Y-106088060D01*
X188462583Y-106090921D01*
X188642711Y-106060959D01*
X188814440Y-105998885D01*
X188828837Y-105990494D01*
X188830151Y-105989840D01*
X188864193Y-105969944D01*
X188926763Y-105953000D01*
X190407892Y-105953000D01*
X190408014Y-105953007D01*
X190416105Y-105953006D01*
X190416108Y-105953007D01*
X190448242Y-105953003D01*
X190510807Y-105969936D01*
X190538630Y-105986192D01*
X190538631Y-105986192D01*
X190544724Y-105989752D01*
X190546406Y-105990591D01*
X190560579Y-105998850D01*
X190631537Y-106024499D01*
X190727340Y-106059129D01*
X190732301Y-106060922D01*
X190912422Y-106090882D01*
X191092723Y-106087780D01*
X191094991Y-106087741D01*
X191146212Y-106077399D01*
X191273975Y-106051603D01*
X191443460Y-105983663D01*
X191597846Y-105886163D01*
X191732033Y-105762328D01*
X191807195Y-105662104D01*
X191863165Y-105620281D01*
X191906398Y-105612500D01*
X192037500Y-105612500D01*
X192037500Y-104576500D01*
X192057185Y-104509461D01*
X192109989Y-104463706D01*
X192161500Y-104452500D01*
X192413500Y-104452500D01*
X192480539Y-104472185D01*
G37*
G04 #@! TD.AperFunction*
G04 #@! TA.AperFunction,Conductor*
G36*
X160487681Y-107803089D02*
G01*
X160499261Y-107816452D01*
X160567454Y-107907546D01*
X160567455Y-107907547D01*
X160600309Y-107932141D01*
X160642181Y-107988074D01*
X160650000Y-108031409D01*
X160650000Y-108050000D01*
X160722828Y-108050000D01*
X160722839Y-108049999D01*
X160784395Y-108043380D01*
X160810909Y-108043380D01*
X160817514Y-108044090D01*
X160817517Y-108044091D01*
X160877127Y-108050500D01*
X161522872Y-108050499D01*
X161582483Y-108044091D01*
X161582486Y-108044089D01*
X161586744Y-108043632D01*
X161613254Y-108043632D01*
X161617514Y-108044089D01*
X161617517Y-108044091D01*
X161677127Y-108050500D01*
X162322872Y-108050499D01*
X162382483Y-108044091D01*
X162382486Y-108044089D01*
X162386744Y-108043632D01*
X162413254Y-108043632D01*
X162417514Y-108044089D01*
X162417517Y-108044091D01*
X162477127Y-108050500D01*
X163122872Y-108050499D01*
X163182483Y-108044091D01*
X163182486Y-108044089D01*
X163186744Y-108043632D01*
X163213254Y-108043632D01*
X163217514Y-108044089D01*
X163217517Y-108044091D01*
X163277127Y-108050500D01*
X163625500Y-108050499D01*
X163692539Y-108070183D01*
X163738294Y-108122987D01*
X163749500Y-108174499D01*
X163749500Y-108522869D01*
X163749501Y-108522879D01*
X163756367Y-108586751D01*
X163756367Y-108613257D01*
X163755909Y-108617516D01*
X163755909Y-108617517D01*
X163749500Y-108677127D01*
X163749500Y-108677129D01*
X163749500Y-108677133D01*
X163749500Y-109322870D01*
X163749501Y-109322876D01*
X163756619Y-109389092D01*
X163756619Y-109415599D01*
X163750000Y-109477169D01*
X163750000Y-109550000D01*
X163768591Y-109550000D01*
X163835630Y-109569685D01*
X163867855Y-109599686D01*
X163892454Y-109632546D01*
X163892455Y-109632546D01*
X163892456Y-109632548D01*
X163983540Y-109700734D01*
X164025411Y-109756668D01*
X164030395Y-109826359D01*
X163996909Y-109887682D01*
X163983540Y-109899266D01*
X163892456Y-109967451D01*
X163892454Y-109967454D01*
X163867856Y-110000312D01*
X163811924Y-110042182D01*
X163768591Y-110050000D01*
X163750000Y-110050000D01*
X163750000Y-110122844D01*
X163756619Y-110184398D01*
X163756620Y-110210909D01*
X163755909Y-110217514D01*
X163755909Y-110217517D01*
X163749500Y-110277127D01*
X163749500Y-110277133D01*
X163749500Y-110277135D01*
X163749500Y-110922870D01*
X163749501Y-110922879D01*
X163756367Y-110986751D01*
X163756367Y-111013257D01*
X163755909Y-111017516D01*
X163755909Y-111017517D01*
X163749500Y-111077127D01*
X163749500Y-111077129D01*
X163749500Y-111077133D01*
X163749500Y-111722870D01*
X163749501Y-111722879D01*
X163756367Y-111786751D01*
X163756367Y-111813257D01*
X163755909Y-111817516D01*
X163755909Y-111817517D01*
X163749500Y-111877127D01*
X163749500Y-111877129D01*
X163749500Y-111877133D01*
X163749500Y-112522870D01*
X163749501Y-112522879D01*
X163756367Y-112586751D01*
X163756367Y-112613257D01*
X163755909Y-112617516D01*
X163755909Y-112617517D01*
X163749500Y-112677127D01*
X163749500Y-112677129D01*
X163749500Y-112677133D01*
X163749500Y-113322870D01*
X163749501Y-113322879D01*
X163756367Y-113386751D01*
X163756367Y-113413257D01*
X163755909Y-113417516D01*
X163755909Y-113417517D01*
X163749500Y-113477127D01*
X163749500Y-113477128D01*
X163749500Y-113477132D01*
X163749500Y-113825500D01*
X163729815Y-113892539D01*
X163677011Y-113938294D01*
X163625500Y-113949500D01*
X163277130Y-113949500D01*
X163277120Y-113949501D01*
X163213248Y-113956367D01*
X163186742Y-113956367D01*
X163182483Y-113955909D01*
X163122873Y-113949500D01*
X163122864Y-113949500D01*
X162477129Y-113949500D01*
X162477120Y-113949501D01*
X162413248Y-113956367D01*
X162386742Y-113956367D01*
X162382483Y-113955909D01*
X162322873Y-113949500D01*
X162322864Y-113949500D01*
X161677129Y-113949500D01*
X161677120Y-113949501D01*
X161613248Y-113956367D01*
X161586742Y-113956367D01*
X161582483Y-113955909D01*
X161522873Y-113949500D01*
X161522864Y-113949500D01*
X160877129Y-113949500D01*
X160877120Y-113949501D01*
X160813248Y-113956367D01*
X160786742Y-113956367D01*
X160782483Y-113955909D01*
X160722873Y-113949500D01*
X160722864Y-113949500D01*
X160077129Y-113949500D01*
X160077120Y-113949501D01*
X160013248Y-113956367D01*
X159986742Y-113956367D01*
X159982483Y-113955909D01*
X159922873Y-113949500D01*
X159922864Y-113949500D01*
X159277129Y-113949500D01*
X159277120Y-113949501D01*
X159213248Y-113956367D01*
X159186742Y-113956367D01*
X159182483Y-113955909D01*
X159122873Y-113949500D01*
X159122864Y-113949500D01*
X158477129Y-113949500D01*
X158477120Y-113949501D01*
X158413248Y-113956367D01*
X158386742Y-113956367D01*
X158382483Y-113955909D01*
X158322873Y-113949500D01*
X158322867Y-113949500D01*
X157974499Y-113949500D01*
X157907460Y-113929815D01*
X157861705Y-113877011D01*
X157850499Y-113825500D01*
X157850499Y-113477129D01*
X157850499Y-113477128D01*
X157844091Y-113417517D01*
X157844089Y-113417513D01*
X157843632Y-113413255D01*
X157843632Y-113386745D01*
X157844089Y-113382486D01*
X157844091Y-113382483D01*
X157850500Y-113322873D01*
X157850499Y-112677128D01*
X157844091Y-112617517D01*
X157844089Y-112617513D01*
X157843632Y-112613255D01*
X157843632Y-112586745D01*
X157844089Y-112582486D01*
X157844091Y-112582483D01*
X157850500Y-112522873D01*
X157850499Y-111877128D01*
X157844091Y-111817517D01*
X157844089Y-111817513D01*
X157843632Y-111813255D01*
X157843632Y-111786745D01*
X157844089Y-111782486D01*
X157844091Y-111782483D01*
X157850500Y-111722873D01*
X157850499Y-111077128D01*
X157844091Y-111017517D01*
X157844089Y-111017513D01*
X157843632Y-111013255D01*
X157843632Y-110986745D01*
X157844089Y-110982486D01*
X157844091Y-110982483D01*
X157850500Y-110922873D01*
X157850499Y-110277128D01*
X157844091Y-110217517D01*
X157844089Y-110217513D01*
X157843632Y-110213255D01*
X157843632Y-110186745D01*
X157844089Y-110182486D01*
X157844091Y-110182483D01*
X157850500Y-110122873D01*
X157850499Y-109477128D01*
X157844091Y-109417517D01*
X157844089Y-109417513D01*
X157843632Y-109413255D01*
X157843632Y-109386745D01*
X157844089Y-109382486D01*
X157844091Y-109382483D01*
X157850500Y-109322873D01*
X157850499Y-108677128D01*
X157844091Y-108617517D01*
X157844089Y-108617513D01*
X157843632Y-108613255D01*
X157843632Y-108586745D01*
X157844089Y-108582486D01*
X157844091Y-108582483D01*
X157850500Y-108522873D01*
X157850499Y-108174498D01*
X157870183Y-108107460D01*
X157922987Y-108061705D01*
X157974499Y-108050499D01*
X158322871Y-108050499D01*
X158322872Y-108050499D01*
X158382483Y-108044091D01*
X158382486Y-108044089D01*
X158386744Y-108043632D01*
X158413254Y-108043632D01*
X158417514Y-108044089D01*
X158417517Y-108044091D01*
X158477127Y-108050500D01*
X159122872Y-108050499D01*
X159182483Y-108044091D01*
X159182486Y-108044089D01*
X159186744Y-108043632D01*
X159213254Y-108043632D01*
X159217514Y-108044089D01*
X159217517Y-108044091D01*
X159277127Y-108050500D01*
X159922872Y-108050499D01*
X159982483Y-108044091D01*
X159982483Y-108044090D01*
X159989096Y-108043380D01*
X160015607Y-108043381D01*
X160077157Y-108049999D01*
X160077172Y-108050000D01*
X160150000Y-108050000D01*
X160150000Y-108031409D01*
X160169685Y-107964370D01*
X160199691Y-107932141D01*
X160232546Y-107907546D01*
X160300734Y-107816457D01*
X160356667Y-107774588D01*
X160426358Y-107769604D01*
X160487681Y-107803089D01*
G37*
G04 #@! TD.AperFunction*
G04 #@! TA.AperFunction,Conductor*
G36*
X143528738Y-111222138D02*
G01*
X143557668Y-111243795D01*
X143557671Y-111243797D01*
X143692517Y-111294091D01*
X143700062Y-111295874D01*
X143699557Y-111298010D01*
X143753795Y-111320468D01*
X143793650Y-111377856D01*
X143800000Y-111417029D01*
X143800000Y-112783475D01*
X143780315Y-112850514D01*
X143727511Y-112896269D01*
X143699979Y-112903822D01*
X143700168Y-112904620D01*
X143692620Y-112906403D01*
X143557913Y-112956645D01*
X143557907Y-112956648D01*
X143528526Y-112978643D01*
X143463061Y-113003059D01*
X143394789Y-112988206D01*
X143345384Y-112938800D01*
X143330218Y-112879363D01*
X143330426Y-111321385D01*
X143350120Y-111254351D01*
X143402930Y-111208603D01*
X143472090Y-111198669D01*
X143528738Y-111222138D01*
G37*
G04 #@! TD.AperFunction*
G04 #@! TA.AperFunction,Conductor*
G36*
X143626554Y-107363377D02*
G01*
X143682487Y-107405249D01*
X143706904Y-107470713D01*
X143706440Y-107493442D01*
X143694435Y-107599995D01*
X143694435Y-107600003D01*
X143714630Y-107779249D01*
X143714631Y-107779254D01*
X143774211Y-107949523D01*
X143837658Y-108050498D01*
X143870184Y-108102262D01*
X143997738Y-108229816D01*
X144150478Y-108325789D01*
X144320745Y-108385368D01*
X144333451Y-108386799D01*
X144397864Y-108413865D01*
X144436609Y-108469065D01*
X144474209Y-108576519D01*
X144480638Y-108586751D01*
X144570184Y-108729262D01*
X144697738Y-108856816D01*
X144763080Y-108897873D01*
X144850479Y-108952790D01*
X144866678Y-108958458D01*
X144923455Y-108999179D01*
X144949203Y-109064131D01*
X144935747Y-109132693D01*
X144887361Y-109183097D01*
X144825725Y-109199500D01*
X143752129Y-109199500D01*
X143752123Y-109199501D01*
X143692516Y-109205908D01*
X143557671Y-109256202D01*
X143557664Y-109256206D01*
X143529022Y-109277648D01*
X143463558Y-109302065D01*
X143395285Y-109287213D01*
X143345880Y-109237808D01*
X143330712Y-109178364D01*
X143330713Y-109175500D01*
X143330922Y-107607839D01*
X143350616Y-107540804D01*
X143367236Y-107520181D01*
X143495541Y-107391876D01*
X143556862Y-107358393D01*
X143626554Y-107363377D01*
G37*
G04 #@! TD.AperFunction*
G04 #@! TA.AperFunction,Conductor*
G36*
X154280539Y-104572185D02*
G01*
X154326294Y-104624989D01*
X154337500Y-104676500D01*
X154337500Y-105712500D01*
X154843647Y-105712500D01*
X154957430Y-105697520D01*
X154957435Y-105697518D01*
X155099006Y-105638878D01*
X155099007Y-105638878D01*
X155220586Y-105545586D01*
X155313878Y-105424007D01*
X155313878Y-105424006D01*
X155372518Y-105282435D01*
X155372520Y-105282430D01*
X155387500Y-105168640D01*
X155387766Y-105164595D01*
X155388693Y-105164655D01*
X155407185Y-105101681D01*
X155459989Y-105055926D01*
X155529147Y-105045982D01*
X155565311Y-105057004D01*
X155567971Y-105058284D01*
X155567978Y-105058289D01*
X155731592Y-105115540D01*
X155738245Y-105117868D01*
X155738250Y-105117869D01*
X155917496Y-105138065D01*
X155917500Y-105138065D01*
X155917504Y-105138065D01*
X156096749Y-105117869D01*
X156096752Y-105117868D01*
X156096755Y-105117868D01*
X156267022Y-105058289D01*
X156419762Y-104962316D01*
X156442969Y-104939108D01*
X156504288Y-104905625D01*
X156573979Y-104910608D01*
X156629914Y-104952479D01*
X156654006Y-105014189D01*
X156660494Y-105077696D01*
X156715641Y-105244119D01*
X156715643Y-105244124D01*
X156807684Y-105393345D01*
X156931654Y-105517315D01*
X157080875Y-105609356D01*
X157080880Y-105609358D01*
X157169657Y-105638776D01*
X157227102Y-105678549D01*
X157253925Y-105743064D01*
X157246835Y-105799814D01*
X157230909Y-105842514D01*
X157230908Y-105842516D01*
X157224501Y-105902116D01*
X157224500Y-105902135D01*
X157224500Y-107300500D01*
X157204815Y-107367539D01*
X157152011Y-107413294D01*
X157100500Y-107424500D01*
X156705449Y-107424500D01*
X156638410Y-107404815D01*
X156636558Y-107403602D01*
X156622062Y-107393916D01*
X156547239Y-107343920D01*
X156547226Y-107343913D01*
X156507600Y-107327500D01*
X156433035Y-107296614D01*
X156433027Y-107296612D01*
X156311807Y-107272500D01*
X156311803Y-107272500D01*
X153396354Y-107272500D01*
X153329315Y-107252815D01*
X153283560Y-107200011D01*
X153278648Y-107187504D01*
X153274339Y-107174500D01*
X153259814Y-107130666D01*
X153167712Y-106981344D01*
X153043656Y-106857288D01*
X152943538Y-106795535D01*
X152894336Y-106765187D01*
X152894331Y-106765185D01*
X152892862Y-106764698D01*
X152727797Y-106710001D01*
X152727795Y-106710000D01*
X152625010Y-106699500D01*
X151999998Y-106699500D01*
X151999980Y-106699501D01*
X151897203Y-106710000D01*
X151897200Y-106710001D01*
X151730668Y-106765185D01*
X151730663Y-106765187D01*
X151581342Y-106857289D01*
X151487681Y-106950951D01*
X151426358Y-106984436D01*
X151356666Y-106979452D01*
X151312319Y-106950951D01*
X151218657Y-106857289D01*
X151218656Y-106857288D01*
X151118538Y-106795535D01*
X151069336Y-106765187D01*
X151069331Y-106765185D01*
X151067862Y-106764698D01*
X150902797Y-106710001D01*
X150902795Y-106710000D01*
X150800010Y-106699500D01*
X150174998Y-106699500D01*
X150174980Y-106699501D01*
X150072203Y-106710000D01*
X150072200Y-106710001D01*
X149905668Y-106765185D01*
X149905663Y-106765187D01*
X149756345Y-106857287D01*
X149698449Y-106915183D01*
X149637125Y-106948667D01*
X149567434Y-106943682D01*
X149511500Y-106901811D01*
X149487084Y-106836346D01*
X149490966Y-106801762D01*
X149489698Y-106801510D01*
X149514999Y-106674307D01*
X149515000Y-106674304D01*
X149515000Y-106171923D01*
X149534685Y-106104884D01*
X149587489Y-106059129D01*
X149656647Y-106049185D01*
X149705209Y-106067079D01*
X149725757Y-106080056D01*
X149731524Y-106083698D01*
X149901013Y-106151640D01*
X149901014Y-106151640D01*
X149901016Y-106151641D01*
X150080007Y-106187780D01*
X150080001Y-106187780D01*
X150096321Y-106188060D01*
X150262583Y-106190921D01*
X150442711Y-106160959D01*
X150614440Y-106098885D01*
X150628837Y-106090494D01*
X150630151Y-106089840D01*
X150664193Y-106069944D01*
X150726763Y-106053000D01*
X152207892Y-106053000D01*
X152208014Y-106053007D01*
X152216105Y-106053006D01*
X152216108Y-106053007D01*
X152248242Y-106053003D01*
X152310807Y-106069936D01*
X152338630Y-106086192D01*
X152338631Y-106086192D01*
X152344724Y-106089752D01*
X152346406Y-106090591D01*
X152360579Y-106098850D01*
X152477631Y-106141160D01*
X152515007Y-106154671D01*
X152532301Y-106160922D01*
X152712422Y-106190882D01*
X152892723Y-106187780D01*
X152894991Y-106187741D01*
X152939213Y-106178812D01*
X153073975Y-106151603D01*
X153243460Y-106083663D01*
X153397846Y-105986163D01*
X153532033Y-105862328D01*
X153607195Y-105762104D01*
X153663165Y-105720281D01*
X153706398Y-105712500D01*
X153837500Y-105712500D01*
X153837500Y-104676500D01*
X153857185Y-104609461D01*
X153909989Y-104563706D01*
X153961500Y-104552500D01*
X154213500Y-104552500D01*
X154280539Y-104572185D01*
G37*
G04 #@! TD.AperFunction*
G04 #@! TA.AperFunction,Conductor*
G36*
X146793039Y-104719685D02*
G01*
X146838794Y-104772489D01*
X146850000Y-104824000D01*
X146850000Y-105949999D01*
X147124972Y-105949999D01*
X147124986Y-105949998D01*
X147227697Y-105939505D01*
X147394119Y-105884358D01*
X147394124Y-105884356D01*
X147543345Y-105792315D01*
X147667317Y-105668343D01*
X147674337Y-105656962D01*
X147726283Y-105610235D01*
X147795246Y-105599011D01*
X147855363Y-105623678D01*
X147875737Y-105639312D01*
X148017437Y-105698007D01*
X148131323Y-105713000D01*
X148135989Y-105712999D01*
X148203028Y-105732676D01*
X148248788Y-105785475D01*
X148260000Y-105836999D01*
X148260000Y-106301219D01*
X148240315Y-106368258D01*
X148223681Y-106388900D01*
X147676400Y-106936181D01*
X147615077Y-106969666D01*
X147588719Y-106972500D01*
X145041672Y-106972500D01*
X144975700Y-106953494D01*
X144849523Y-106874211D01*
X144679254Y-106814631D01*
X144679249Y-106814630D01*
X144500004Y-106794435D01*
X144499996Y-106794435D01*
X144393443Y-106806440D01*
X144324621Y-106794385D01*
X144273242Y-106747036D01*
X144255618Y-106679425D01*
X144277345Y-106613020D01*
X144291876Y-106595542D01*
X145008661Y-105878758D01*
X145021346Y-105859773D01*
X145077333Y-105775983D01*
X145090723Y-105743656D01*
X145104671Y-105709984D01*
X145104671Y-105709983D01*
X145124636Y-105661784D01*
X145148750Y-105540553D01*
X145148750Y-105416946D01*
X145148750Y-105406675D01*
X145168435Y-105339636D01*
X145221239Y-105293881D01*
X145290397Y-105283937D01*
X145353953Y-105312962D01*
X145390456Y-105367671D01*
X145440641Y-105519119D01*
X145440643Y-105519124D01*
X145532684Y-105668345D01*
X145656654Y-105792315D01*
X145805875Y-105884356D01*
X145805880Y-105884358D01*
X145972302Y-105939505D01*
X145972309Y-105939506D01*
X146075019Y-105949999D01*
X146349999Y-105949999D01*
X146350000Y-105949998D01*
X146350000Y-104824000D01*
X146369685Y-104756961D01*
X146422489Y-104711206D01*
X146474000Y-104700000D01*
X146726000Y-104700000D01*
X146793039Y-104719685D01*
G37*
G04 #@! TD.AperFunction*
G04 #@! TA.AperFunction,Conductor*
G36*
X177923774Y-101760299D02*
G01*
X178071042Y-101809099D01*
X178170405Y-101819250D01*
X178605468Y-101819249D01*
X178672507Y-101838933D01*
X178693149Y-101855568D01*
X178833339Y-101995758D01*
X178878837Y-102041256D01*
X178920743Y-102083162D01*
X179023510Y-102151829D01*
X179023523Y-102151836D01*
X179114490Y-102189515D01*
X179137715Y-102199135D01*
X179137719Y-102199135D01*
X179137720Y-102199136D01*
X179258944Y-102223250D01*
X179258947Y-102223250D01*
X182645310Y-102223250D01*
X182712349Y-102242935D01*
X182758104Y-102295739D01*
X182768048Y-102364897D01*
X182739023Y-102428453D01*
X182732991Y-102434931D01*
X182670184Y-102497737D01*
X182574211Y-102650476D01*
X182514631Y-102820745D01*
X182514630Y-102820750D01*
X182494435Y-102999996D01*
X182494435Y-103000003D01*
X182514630Y-103179249D01*
X182514631Y-103179254D01*
X182574211Y-103349523D01*
X182656704Y-103480809D01*
X182670184Y-103502262D01*
X182797738Y-103629816D01*
X182838878Y-103655666D01*
X182913706Y-103702684D01*
X182950478Y-103725789D01*
X183074928Y-103769336D01*
X183120745Y-103785368D01*
X183120750Y-103785369D01*
X183299996Y-103805565D01*
X183300000Y-103805565D01*
X183300004Y-103805565D01*
X183479249Y-103785369D01*
X183479250Y-103785368D01*
X183479255Y-103785368D01*
X183494418Y-103780061D01*
X183564196Y-103776499D01*
X183623054Y-103809422D01*
X183656344Y-103842712D01*
X183659628Y-103844737D01*
X183659653Y-103844753D01*
X183661445Y-103846746D01*
X183662011Y-103847193D01*
X183661934Y-103847289D01*
X183706379Y-103896699D01*
X183717603Y-103965661D01*
X183689761Y-104029744D01*
X183659665Y-104055826D01*
X183656660Y-104057679D01*
X183656655Y-104057683D01*
X183532684Y-104181654D01*
X183440643Y-104330875D01*
X183440641Y-104330880D01*
X183385494Y-104497302D01*
X183385493Y-104497309D01*
X183375000Y-104600013D01*
X183375000Y-104650000D01*
X184726000Y-104650000D01*
X184793039Y-104669685D01*
X184838794Y-104722489D01*
X184850000Y-104774000D01*
X184850000Y-105026000D01*
X184830315Y-105093039D01*
X184777511Y-105138794D01*
X184726000Y-105150000D01*
X183375001Y-105150000D01*
X183375001Y-105199986D01*
X183385494Y-105302697D01*
X183440641Y-105469119D01*
X183440645Y-105469128D01*
X183449451Y-105483404D01*
X183467891Y-105550796D01*
X183446968Y-105617460D01*
X183393326Y-105662229D01*
X183343912Y-105672500D01*
X181611281Y-105672500D01*
X181544242Y-105652815D01*
X181523600Y-105636181D01*
X178696261Y-102808841D01*
X178696259Y-102808839D01*
X178684836Y-102801207D01*
X178673490Y-102793626D01*
X178637660Y-102769685D01*
X178593488Y-102740170D01*
X178593476Y-102740163D01*
X178550680Y-102722437D01*
X178479285Y-102692864D01*
X178479277Y-102692862D01*
X178358057Y-102668750D01*
X178358053Y-102668750D01*
X174922840Y-102668750D01*
X174855801Y-102649065D01*
X174810046Y-102596261D01*
X174800102Y-102527103D01*
X174829127Y-102463547D01*
X174856868Y-102439756D01*
X174904521Y-102409814D01*
X174925700Y-102396505D01*
X174991672Y-102377500D01*
X177011804Y-102377500D01*
X177011805Y-102377499D01*
X177133035Y-102353386D01*
X177219158Y-102317712D01*
X177247233Y-102306083D01*
X177350008Y-102237411D01*
X177437411Y-102150008D01*
X177797094Y-101790323D01*
X177858415Y-101756840D01*
X177923774Y-101760299D01*
G37*
G04 #@! TD.AperFunction*
G04 #@! TA.AperFunction,Conductor*
G36*
X178052008Y-103943435D02*
G01*
X178072650Y-103960069D01*
X179564900Y-105452319D01*
X179598385Y-105513642D01*
X179593401Y-105583334D01*
X179551529Y-105639267D01*
X179486065Y-105663684D01*
X179477219Y-105664000D01*
X174545127Y-105664000D01*
X174478088Y-105644315D01*
X174432333Y-105591511D01*
X174422389Y-105522353D01*
X174446751Y-105464513D01*
X174482628Y-105417757D01*
X174482628Y-105417756D01*
X174541268Y-105276185D01*
X174541270Y-105276180D01*
X174556250Y-105162396D01*
X174556250Y-105046250D01*
X173130250Y-105046250D01*
X173063211Y-105026565D01*
X173017456Y-104973761D01*
X173006250Y-104922250D01*
X173006250Y-104670250D01*
X173025935Y-104603211D01*
X173078739Y-104557456D01*
X173130250Y-104546250D01*
X174556250Y-104546250D01*
X174556250Y-104430103D01*
X174541270Y-104316319D01*
X174541268Y-104316314D01*
X174482628Y-104174743D01*
X174482625Y-104174737D01*
X174443107Y-104123237D01*
X174417912Y-104058068D01*
X174431950Y-103989623D01*
X174480764Y-103939633D01*
X174541482Y-103923750D01*
X177984969Y-103923750D01*
X178052008Y-103943435D01*
G37*
G04 #@! TD.AperFunction*
G04 #@! TA.AperFunction,Conductor*
G36*
X158766058Y-101933066D02*
G01*
X158777977Y-101948208D01*
X158787562Y-101962553D01*
X158807680Y-102017561D01*
X158814630Y-102079249D01*
X158874210Y-102249521D01*
X158939473Y-102353386D01*
X158970184Y-102402262D01*
X159097738Y-102529816D01*
X159140767Y-102556853D01*
X159218455Y-102605668D01*
X159250478Y-102625789D01*
X159407510Y-102680737D01*
X159420745Y-102685368D01*
X159420750Y-102685369D01*
X159599996Y-102705565D01*
X159600000Y-102705565D01*
X159600004Y-102705565D01*
X159779249Y-102685369D01*
X159779252Y-102685368D01*
X159779255Y-102685368D01*
X159949522Y-102625789D01*
X160102262Y-102529816D01*
X160229816Y-102402262D01*
X160325789Y-102249522D01*
X160358458Y-102156160D01*
X160399180Y-102099383D01*
X160464133Y-102073636D01*
X160532694Y-102087092D01*
X160583097Y-102135479D01*
X160599500Y-102197114D01*
X160599500Y-103413770D01*
X160579815Y-103480809D01*
X160527011Y-103526564D01*
X160457853Y-103536508D01*
X160394297Y-103507483D01*
X160387819Y-103501451D01*
X160268657Y-103382289D01*
X160268656Y-103382288D01*
X160175888Y-103325069D01*
X160119336Y-103290187D01*
X160119331Y-103290185D01*
X160072757Y-103274752D01*
X159952797Y-103235001D01*
X159952795Y-103235000D01*
X159850010Y-103224500D01*
X159249998Y-103224500D01*
X159249980Y-103224501D01*
X159147203Y-103235000D01*
X159147200Y-103235001D01*
X158980668Y-103290185D01*
X158980663Y-103290187D01*
X158831342Y-103382289D01*
X158707288Y-103506343D01*
X158707283Y-103506349D01*
X158705241Y-103509661D01*
X158703247Y-103511453D01*
X158702807Y-103512011D01*
X158702711Y-103511935D01*
X158653291Y-103556383D01*
X158584328Y-103567602D01*
X158520247Y-103539755D01*
X158494168Y-103509656D01*
X158492319Y-103506659D01*
X158492316Y-103506655D01*
X158368345Y-103382684D01*
X158219124Y-103290643D01*
X158219119Y-103290641D01*
X158052697Y-103235494D01*
X158052690Y-103235493D01*
X157949986Y-103225000D01*
X157900000Y-103225000D01*
X157900000Y-104576000D01*
X157880315Y-104643039D01*
X157827511Y-104688794D01*
X157776000Y-104700000D01*
X157524000Y-104700000D01*
X157456961Y-104680315D01*
X157411206Y-104627511D01*
X157400000Y-104576000D01*
X157400000Y-103225000D01*
X157399999Y-103224999D01*
X157350029Y-103225000D01*
X157350011Y-103225001D01*
X157247302Y-103235494D01*
X157080880Y-103290641D01*
X157080875Y-103290643D01*
X156931654Y-103382684D01*
X156807684Y-103506654D01*
X156715643Y-103655875D01*
X156715641Y-103655880D01*
X156693585Y-103722443D01*
X156653812Y-103779888D01*
X156589297Y-103806711D01*
X156520521Y-103794396D01*
X156488198Y-103771120D01*
X156419762Y-103702684D01*
X156267021Y-103606710D01*
X156096749Y-103547130D01*
X156052861Y-103542185D01*
X155988447Y-103515117D01*
X155979065Y-103506646D01*
X155414618Y-102942199D01*
X155381133Y-102880876D01*
X155379363Y-102870723D01*
X155373007Y-102822437D01*
X155351156Y-102769685D01*
X155332421Y-102724454D01*
X155324952Y-102654984D01*
X155356227Y-102592505D01*
X155416316Y-102556853D01*
X155446982Y-102553001D01*
X157321388Y-102553001D01*
X157387360Y-102572007D01*
X157408938Y-102585565D01*
X157412479Y-102587790D01*
X157521071Y-102625788D01*
X157582746Y-102647369D01*
X157582751Y-102647370D01*
X157761997Y-102667566D01*
X157762001Y-102667566D01*
X157762005Y-102667566D01*
X157941250Y-102647370D01*
X157941253Y-102647369D01*
X157941256Y-102647369D01*
X158111523Y-102587790D01*
X158264263Y-102491817D01*
X158391817Y-102364263D01*
X158487790Y-102211523D01*
X158547369Y-102041256D01*
X158551655Y-102003215D01*
X158578720Y-101938803D01*
X158636314Y-101899247D01*
X158706151Y-101897108D01*
X158766058Y-101933066D01*
G37*
G04 #@! TD.AperFunction*
G04 #@! TA.AperFunction,Conductor*
G36*
X164582336Y-98448934D02*
G01*
X164628091Y-98501738D01*
X164638035Y-98570896D01*
X164615621Y-98626126D01*
X164613638Y-98628854D01*
X164533207Y-98786707D01*
X164533206Y-98786710D01*
X164478464Y-98955193D01*
X164450750Y-99130171D01*
X164450750Y-99307328D01*
X164478464Y-99482306D01*
X164533206Y-99650789D01*
X164533207Y-99650792D01*
X164613638Y-99808643D01*
X164639336Y-99844014D01*
X164662816Y-99909820D01*
X164646990Y-99977874D01*
X164596885Y-100026569D01*
X164528407Y-100040444D01*
X164509391Y-100036535D01*
X164509311Y-100036911D01*
X164502690Y-100035493D01*
X164399986Y-100025000D01*
X164350000Y-100025000D01*
X164350000Y-101376000D01*
X164330315Y-101443039D01*
X164277511Y-101488794D01*
X164226000Y-101500000D01*
X163100001Y-101500000D01*
X163100001Y-101774986D01*
X163110494Y-101877697D01*
X163136771Y-101956999D01*
X163136772Y-101957000D01*
X163176000Y-101957000D01*
X163243039Y-101976685D01*
X163288794Y-102029489D01*
X163300000Y-102081000D01*
X163300000Y-102750000D01*
X165226000Y-102750000D01*
X165293039Y-102769685D01*
X165338794Y-102822489D01*
X165350000Y-102874000D01*
X165350000Y-103126000D01*
X165330315Y-103193039D01*
X165277511Y-103238794D01*
X165226000Y-103250000D01*
X162924000Y-103250000D01*
X162856961Y-103230315D01*
X162811206Y-103177511D01*
X162800000Y-103126000D01*
X162800000Y-102000000D01*
X162698596Y-102000000D01*
X162631557Y-101980315D01*
X162585802Y-101927511D01*
X162581554Y-101916954D01*
X162579486Y-101911043D01*
X162575789Y-101900478D01*
X162575188Y-101899522D01*
X162518371Y-101809098D01*
X162479816Y-101747738D01*
X162352262Y-101620184D01*
X162199521Y-101524210D01*
X162068122Y-101478232D01*
X162011345Y-101437510D01*
X161985855Y-101375070D01*
X161985368Y-101370745D01*
X161985367Y-101370742D01*
X161985366Y-101370737D01*
X161926688Y-101203045D01*
X161923126Y-101133266D01*
X161957854Y-101072639D01*
X162019848Y-101040411D01*
X162057613Y-101038870D01*
X162199262Y-101054830D01*
X162199265Y-101054830D01*
X162199269Y-101054830D01*
X162378514Y-101034634D01*
X162378517Y-101034633D01*
X162378520Y-101034633D01*
X162548787Y-100975054D01*
X162701527Y-100879081D01*
X162829081Y-100751527D01*
X162871007Y-100684801D01*
X162923341Y-100638512D01*
X162992394Y-100627864D01*
X163056242Y-100656239D01*
X163094615Y-100714628D01*
X163100000Y-100750775D01*
X163100000Y-101000000D01*
X163850000Y-101000000D01*
X163850000Y-100025000D01*
X163849999Y-100024999D01*
X163800029Y-100025000D01*
X163800011Y-100025001D01*
X163697302Y-100035494D01*
X163530880Y-100090641D01*
X163530875Y-100090643D01*
X163381654Y-100182684D01*
X163257680Y-100306658D01*
X163231178Y-100349625D01*
X163179230Y-100396348D01*
X163110267Y-100407569D01*
X163046185Y-100379725D01*
X163007330Y-100321655D01*
X163002421Y-100270642D01*
X163004830Y-100249265D01*
X163001111Y-100216260D01*
X162984634Y-100070015D01*
X162984633Y-100070010D01*
X162973051Y-100036911D01*
X162925054Y-99899743D01*
X162925052Y-99899740D01*
X162925052Y-99899739D01*
X162919679Y-99891187D01*
X162900679Y-99823950D01*
X162919680Y-99759244D01*
X162925789Y-99749522D01*
X162985368Y-99579255D01*
X162985369Y-99579249D01*
X163005565Y-99400003D01*
X163005565Y-99399996D01*
X162985369Y-99220750D01*
X162985368Y-99220745D01*
X162933055Y-99071244D01*
X162925789Y-99050478D01*
X162829816Y-98897738D01*
X162702262Y-98770184D01*
X162549518Y-98674208D01*
X162538318Y-98670289D01*
X162481543Y-98629566D01*
X162455798Y-98564612D01*
X162469256Y-98496051D01*
X162517645Y-98445650D01*
X162579272Y-98429249D01*
X164515297Y-98429249D01*
X164582336Y-98448934D01*
G37*
G04 #@! TD.AperFunction*
G04 #@! TA.AperFunction,Conductor*
G36*
X151837539Y-67195185D02*
G01*
X151883294Y-67247989D01*
X151894500Y-67299500D01*
X151894500Y-69676000D01*
X151894501Y-69676009D01*
X151906052Y-69783450D01*
X151906054Y-69783462D01*
X151917260Y-69834972D01*
X151951384Y-69937499D01*
X151951386Y-69937503D01*
X151951387Y-69937504D01*
X151955313Y-69943613D01*
X151975000Y-70010651D01*
X151975000Y-70100000D01*
X152015585Y-70100000D01*
X152082624Y-70119685D01*
X152096788Y-70130288D01*
X152183660Y-70205564D01*
X152183661Y-70205565D01*
X152183664Y-70205567D01*
X152183666Y-70205568D01*
X152183668Y-70205569D01*
X152288306Y-70253357D01*
X152314541Y-70265338D01*
X152381580Y-70285023D01*
X152381584Y-70285024D01*
X152524000Y-70305500D01*
X152524003Y-70305500D01*
X154143651Y-70305500D01*
X154150735Y-70305301D01*
X154172001Y-70304704D01*
X154185885Y-70303924D01*
X154189571Y-70303613D01*
X154210429Y-70303613D01*
X154214115Y-70303924D01*
X154227999Y-70304704D01*
X154248791Y-70305287D01*
X154256349Y-70305500D01*
X154256353Y-70305500D01*
X156408410Y-70305500D01*
X156408416Y-70305500D01*
X156524666Y-70291951D01*
X156580171Y-70278835D01*
X156690195Y-70238913D01*
X156808381Y-70156854D01*
X156819865Y-70146161D01*
X156833738Y-70133246D01*
X156896217Y-70101970D01*
X156918234Y-70100000D01*
X156982250Y-70100000D01*
X157049289Y-70119685D01*
X157095044Y-70172489D01*
X157106250Y-70224000D01*
X157106250Y-70764094D01*
X157112651Y-70823622D01*
X157112653Y-70823632D01*
X157137252Y-70889585D01*
X157142236Y-70959276D01*
X157108750Y-71020599D01*
X157047427Y-71054083D01*
X157033673Y-71056275D01*
X156997202Y-71060001D01*
X156997200Y-71060001D01*
X156830668Y-71115185D01*
X156830663Y-71115187D01*
X156681345Y-71207287D01*
X156587327Y-71301305D01*
X156526003Y-71334789D01*
X156456312Y-71329805D01*
X156411965Y-71301304D01*
X156318345Y-71207684D01*
X156169124Y-71115643D01*
X156169119Y-71115641D01*
X156002697Y-71060494D01*
X156002690Y-71060493D01*
X155899986Y-71050000D01*
X155837500Y-71050000D01*
X155837500Y-73455082D01*
X155864870Y-73505207D01*
X155859886Y-73574899D01*
X155834662Y-73614151D01*
X155835016Y-73614431D01*
X155832168Y-73618031D01*
X155831393Y-73619239D01*
X155830539Y-73620093D01*
X155738437Y-73769413D01*
X155738436Y-73769416D01*
X155701489Y-73880914D01*
X155661716Y-73938358D01*
X155597200Y-73965181D01*
X155528424Y-73952866D01*
X155486785Y-73918528D01*
X155486682Y-73918620D01*
X155486122Y-73917981D01*
X155485401Y-73917387D01*
X155484005Y-73915567D01*
X155319436Y-73750998D01*
X155319429Y-73750992D01*
X155216973Y-73672375D01*
X155175770Y-73615947D01*
X155171615Y-73546201D01*
X155205827Y-73485281D01*
X155267544Y-73452528D01*
X155292458Y-73449999D01*
X155337499Y-73449998D01*
X155337500Y-73449998D01*
X155337500Y-72500000D01*
X154575001Y-72500000D01*
X154575001Y-72749986D01*
X154585494Y-72852697D01*
X154640641Y-73019119D01*
X154640643Y-73019124D01*
X154732684Y-73168346D01*
X154737161Y-73174007D01*
X154736131Y-73174820D01*
X154765974Y-73229473D01*
X154760990Y-73299165D01*
X154719118Y-73355098D01*
X154653654Y-73379515D01*
X154612715Y-73375606D01*
X154493374Y-73343628D01*
X154262632Y-73313251D01*
X154262627Y-73313250D01*
X154262622Y-73313250D01*
X154029878Y-73313250D01*
X154029872Y-73313250D01*
X154029867Y-73313251D01*
X153799127Y-73343628D01*
X153574302Y-73403870D01*
X153359289Y-73492930D01*
X153359273Y-73492938D01*
X153157725Y-73609303D01*
X153157709Y-73609314D01*
X152973070Y-73750992D01*
X152973063Y-73750998D01*
X152808498Y-73915563D01*
X152808492Y-73915570D01*
X152666814Y-74100209D01*
X152666803Y-74100225D01*
X152550438Y-74301773D01*
X152550430Y-74301789D01*
X152461370Y-74516802D01*
X152401128Y-74741627D01*
X152370751Y-74972367D01*
X152370750Y-74972384D01*
X152370750Y-75205115D01*
X152370751Y-75205132D01*
X152382902Y-75297432D01*
X152401129Y-75435876D01*
X152426751Y-75531500D01*
X152461370Y-75660697D01*
X152550430Y-75875710D01*
X152550438Y-75875726D01*
X152666803Y-76077274D01*
X152666814Y-76077290D01*
X152808492Y-76261929D01*
X152808498Y-76261936D01*
X152973063Y-76426501D01*
X152973070Y-76426507D01*
X153069390Y-76500416D01*
X153157718Y-76568192D01*
X153157725Y-76568196D01*
X153359273Y-76684561D01*
X153359289Y-76684569D01*
X153574302Y-76773629D01*
X153574304Y-76773629D01*
X153574310Y-76773632D01*
X153799124Y-76833871D01*
X154029878Y-76864250D01*
X154029885Y-76864250D01*
X154262615Y-76864250D01*
X154262622Y-76864250D01*
X154493376Y-76833871D01*
X154718190Y-76773632D01*
X154818934Y-76731903D01*
X154933210Y-76684569D01*
X154933213Y-76684567D01*
X154933219Y-76684565D01*
X155134782Y-76568192D01*
X155319431Y-76426506D01*
X155484006Y-76261931D01*
X155485401Y-76260113D01*
X155485956Y-76259707D01*
X155486682Y-76258880D01*
X155486867Y-76259042D01*
X155541825Y-76218905D01*
X155611571Y-76214745D01*
X155672494Y-76248952D01*
X155701489Y-76296586D01*
X155731389Y-76386819D01*
X155738436Y-76408083D01*
X155738437Y-76408086D01*
X155749799Y-76426506D01*
X155830538Y-76557406D01*
X155954594Y-76681462D01*
X156103916Y-76773564D01*
X156270453Y-76828749D01*
X156373241Y-76839250D01*
X156714847Y-76839249D01*
X156781886Y-76858933D01*
X156827641Y-76911737D01*
X156836464Y-76939058D01*
X156844862Y-76981277D01*
X156844865Y-76981289D01*
X156863123Y-77025366D01*
X156876148Y-77056810D01*
X156892167Y-77095483D01*
X156893674Y-77097738D01*
X156938044Y-77164143D01*
X156960840Y-77198260D01*
X156960841Y-77198261D01*
X157763181Y-78000600D01*
X157796666Y-78061923D01*
X157799500Y-78088281D01*
X157799500Y-78523337D01*
X157799501Y-78523355D01*
X157809650Y-78622707D01*
X157809651Y-78622710D01*
X157862996Y-78783694D01*
X157863001Y-78783705D01*
X157952029Y-78928040D01*
X157952032Y-78928044D01*
X158071955Y-79047967D01*
X158071959Y-79047970D01*
X158216294Y-79136998D01*
X158216297Y-79136999D01*
X158216303Y-79137003D01*
X158377292Y-79190349D01*
X158476655Y-79200500D01*
X159323344Y-79200499D01*
X159323352Y-79200498D01*
X159323355Y-79200498D01*
X159412693Y-79191372D01*
X159422708Y-79190349D01*
X159583697Y-79137003D01*
X159728044Y-79047968D01*
X159847968Y-78928044D01*
X159937003Y-78783697D01*
X159990349Y-78622708D01*
X160000500Y-78523345D01*
X160000499Y-77976656D01*
X160000419Y-77975876D01*
X159990349Y-77877292D01*
X159990348Y-77877289D01*
X159965352Y-77801855D01*
X159937003Y-77716303D01*
X159936999Y-77716297D01*
X159936998Y-77716294D01*
X159847970Y-77571959D01*
X159847967Y-77571955D01*
X159728044Y-77452032D01*
X159728040Y-77452029D01*
X159583705Y-77363001D01*
X159583699Y-77362998D01*
X159583697Y-77362997D01*
X159583694Y-77362996D01*
X159422709Y-77309651D01*
X159323352Y-77299500D01*
X159323345Y-77299500D01*
X158888281Y-77299500D01*
X158821242Y-77279815D01*
X158800600Y-77263181D01*
X158573002Y-77035583D01*
X158539517Y-76974260D01*
X158544501Y-76904568D01*
X158586373Y-76848635D01*
X158621679Y-76830196D01*
X158626045Y-76828749D01*
X158626047Y-76828749D01*
X158792584Y-76773564D01*
X158941906Y-76681462D01*
X159065962Y-76557406D01*
X159158064Y-76408084D01*
X159213249Y-76241547D01*
X159221337Y-76162369D01*
X159247732Y-76097680D01*
X159304913Y-76057528D01*
X159374724Y-76054664D01*
X159435001Y-76089997D01*
X159442671Y-76098968D01*
X159444919Y-76101866D01*
X159561129Y-76218076D01*
X159561133Y-76218079D01*
X159561135Y-76218081D01*
X159702602Y-76301744D01*
X159728999Y-76309413D01*
X159860426Y-76347597D01*
X159860429Y-76347597D01*
X159860431Y-76347598D01*
X159897306Y-76350500D01*
X160099903Y-76350500D01*
X160166942Y-76370185D01*
X160187584Y-76386819D01*
X160301181Y-76500416D01*
X160334666Y-76561739D01*
X160337500Y-76588097D01*
X160337500Y-82056060D01*
X160317815Y-82123099D01*
X160265011Y-82168854D01*
X160195853Y-82178798D01*
X160132297Y-82149773D01*
X160125819Y-82143741D01*
X160052262Y-82070184D01*
X160052258Y-82070181D01*
X160042885Y-82064292D01*
X159996592Y-82011959D01*
X159985942Y-81942906D01*
X159989063Y-81929353D01*
X159988932Y-81929325D01*
X159990349Y-81922706D01*
X159996306Y-81864396D01*
X160000500Y-81823345D01*
X160000499Y-81276656D01*
X159999070Y-81262670D01*
X159990349Y-81177292D01*
X159990348Y-81177289D01*
X159986690Y-81166250D01*
X159937003Y-81016303D01*
X159936999Y-81016297D01*
X159936998Y-81016294D01*
X159847970Y-80871959D01*
X159847967Y-80871955D01*
X159728044Y-80752032D01*
X159728040Y-80752029D01*
X159583705Y-80663001D01*
X159583699Y-80662998D01*
X159583697Y-80662997D01*
X159583694Y-80662996D01*
X159422709Y-80609651D01*
X159323346Y-80599500D01*
X158476662Y-80599500D01*
X158476644Y-80599501D01*
X158377292Y-80609650D01*
X158377289Y-80609651D01*
X158216305Y-80662996D01*
X158216294Y-80663001D01*
X158071959Y-80752029D01*
X158071955Y-80752032D01*
X157952032Y-80871955D01*
X157952029Y-80871959D01*
X157863001Y-81016294D01*
X157862996Y-81016305D01*
X157809651Y-81177290D01*
X157799500Y-81276647D01*
X157799500Y-81823337D01*
X157799501Y-81823355D01*
X157809650Y-81922707D01*
X157809651Y-81922710D01*
X157862996Y-82083694D01*
X157863001Y-82083705D01*
X157952029Y-82228040D01*
X157952032Y-82228044D01*
X158071955Y-82347967D01*
X158071959Y-82347970D01*
X158216294Y-82436998D01*
X158216297Y-82436999D01*
X158216303Y-82437003D01*
X158301566Y-82465256D01*
X158377291Y-82490349D01*
X158383220Y-82490954D01*
X158417649Y-82494471D01*
X158482340Y-82520865D01*
X158492729Y-82530148D01*
X158724146Y-82761565D01*
X158757631Y-82822888D01*
X158759685Y-82835361D01*
X158764630Y-82879249D01*
X158824210Y-83049521D01*
X158865470Y-83115185D01*
X158920184Y-83202262D01*
X159047738Y-83329816D01*
X159094184Y-83359000D01*
X159182721Y-83414632D01*
X159200478Y-83425789D01*
X159304598Y-83462222D01*
X159370745Y-83485368D01*
X159370750Y-83485369D01*
X159549996Y-83505565D01*
X159550000Y-83505565D01*
X159550004Y-83505565D01*
X159729249Y-83485369D01*
X159729252Y-83485368D01*
X159729255Y-83485368D01*
X159899522Y-83425789D01*
X160052262Y-83329816D01*
X160125819Y-83256259D01*
X160187142Y-83222774D01*
X160256834Y-83227758D01*
X160312767Y-83269630D01*
X160337184Y-83335094D01*
X160337500Y-83343940D01*
X160337500Y-88661902D01*
X160317815Y-88728941D01*
X160301185Y-88749578D01*
X160235683Y-88815081D01*
X160212582Y-88838182D01*
X160151258Y-88871666D01*
X160124901Y-88874500D01*
X159399998Y-88874500D01*
X159399980Y-88874501D01*
X159297203Y-88885000D01*
X159297200Y-88885001D01*
X159130668Y-88940185D01*
X159130663Y-88940187D01*
X158981342Y-89032289D01*
X158857289Y-89156342D01*
X158765187Y-89305663D01*
X158765186Y-89305666D01*
X158710001Y-89472203D01*
X158710001Y-89472204D01*
X158710000Y-89472204D01*
X158699500Y-89574983D01*
X158699500Y-90200001D01*
X158699501Y-90200019D01*
X158710000Y-90302796D01*
X158710001Y-90302799D01*
X158765185Y-90469331D01*
X158765187Y-90469336D01*
X158776719Y-90488032D01*
X158857287Y-90618655D01*
X158857289Y-90618657D01*
X158950951Y-90712319D01*
X158984436Y-90773642D01*
X158979452Y-90843334D01*
X158950951Y-90887681D01*
X158857289Y-90981342D01*
X158765187Y-91130663D01*
X158765186Y-91130666D01*
X158710001Y-91297203D01*
X158710001Y-91297204D01*
X158710000Y-91297204D01*
X158699500Y-91399983D01*
X158699500Y-92025001D01*
X158699501Y-92025019D01*
X158710000Y-92127796D01*
X158710001Y-92127799D01*
X158745621Y-92235292D01*
X158748023Y-92305120D01*
X158712291Y-92365162D01*
X158649771Y-92396355D01*
X158615313Y-92397654D01*
X158523261Y-92388250D01*
X156373248Y-92388250D01*
X156373231Y-92388251D01*
X156270453Y-92398750D01*
X156270450Y-92398751D01*
X156103918Y-92453935D01*
X156103913Y-92453937D01*
X155954592Y-92546039D01*
X155830539Y-92670092D01*
X155738437Y-92819413D01*
X155738436Y-92819416D01*
X155701489Y-92930914D01*
X155661716Y-92988358D01*
X155597200Y-93015181D01*
X155528424Y-93002866D01*
X155486785Y-92968528D01*
X155486682Y-92968620D01*
X155486122Y-92967981D01*
X155485401Y-92967387D01*
X155484005Y-92965567D01*
X155319436Y-92800998D01*
X155319429Y-92800992D01*
X155134790Y-92659314D01*
X155134788Y-92659312D01*
X155134782Y-92659308D01*
X155134777Y-92659305D01*
X155134774Y-92659303D01*
X154933226Y-92542938D01*
X154933210Y-92542930D01*
X154718197Y-92453870D01*
X154512487Y-92398750D01*
X154493376Y-92393629D01*
X154493375Y-92393628D01*
X154493372Y-92393628D01*
X154262632Y-92363251D01*
X154262627Y-92363250D01*
X154262622Y-92363250D01*
X154029878Y-92363250D01*
X154029872Y-92363250D01*
X154029867Y-92363251D01*
X153799127Y-92393628D01*
X153574302Y-92453870D01*
X153359289Y-92542930D01*
X153359273Y-92542938D01*
X153157725Y-92659303D01*
X153157709Y-92659314D01*
X152973070Y-92800992D01*
X152973063Y-92800998D01*
X152808498Y-92965563D01*
X152808492Y-92965570D01*
X152666814Y-93150209D01*
X152666803Y-93150225D01*
X152550438Y-93351773D01*
X152550430Y-93351789D01*
X152461370Y-93566802D01*
X152401128Y-93791627D01*
X152370751Y-94022367D01*
X152370750Y-94022384D01*
X152370750Y-94255115D01*
X152370751Y-94255132D01*
X152401128Y-94485872D01*
X152461370Y-94710697D01*
X152550430Y-94925710D01*
X152550438Y-94925726D01*
X152666803Y-95127274D01*
X152666814Y-95127290D01*
X152808492Y-95311929D01*
X152808498Y-95311936D01*
X152973063Y-95476501D01*
X152973070Y-95476507D01*
X153104553Y-95577397D01*
X153157718Y-95618192D01*
X153157725Y-95618196D01*
X153359273Y-95734561D01*
X153359289Y-95734569D01*
X153574302Y-95823629D01*
X153574304Y-95823629D01*
X153574310Y-95823632D01*
X153799124Y-95883871D01*
X154029878Y-95914250D01*
X154029885Y-95914250D01*
X154262615Y-95914250D01*
X154262622Y-95914250D01*
X154493376Y-95883871D01*
X154718190Y-95823632D01*
X154827232Y-95778466D01*
X154933210Y-95734569D01*
X154933213Y-95734567D01*
X154933219Y-95734565D01*
X155134782Y-95618192D01*
X155319431Y-95476506D01*
X155484006Y-95311931D01*
X155485401Y-95310113D01*
X155485956Y-95309707D01*
X155486682Y-95308880D01*
X155486867Y-95309042D01*
X155541825Y-95268905D01*
X155611571Y-95264745D01*
X155672494Y-95298952D01*
X155701489Y-95346586D01*
X155723142Y-95411931D01*
X155738436Y-95458083D01*
X155738437Y-95458086D01*
X155749799Y-95476506D01*
X155830538Y-95607406D01*
X155954594Y-95731462D01*
X156103916Y-95823564D01*
X156270453Y-95878749D01*
X156373241Y-95889250D01*
X156757543Y-95889249D01*
X156824582Y-95908933D01*
X156870337Y-95961737D01*
X156872103Y-95965794D01*
X156892167Y-96014233D01*
X156947212Y-96096614D01*
X156947213Y-96096616D01*
X156960838Y-96117007D01*
X156960843Y-96117013D01*
X158163181Y-97319350D01*
X158196666Y-97380673D01*
X158199500Y-97407031D01*
X158199500Y-97842087D01*
X158199501Y-97842105D01*
X158209650Y-97941457D01*
X158209651Y-97941460D01*
X158262996Y-98102444D01*
X158263001Y-98102455D01*
X158352029Y-98246790D01*
X158352032Y-98246794D01*
X158471955Y-98366717D01*
X158471959Y-98366720D01*
X158616294Y-98455748D01*
X158616297Y-98455749D01*
X158616303Y-98455753D01*
X158777292Y-98509099D01*
X158876655Y-98519250D01*
X159723344Y-98519249D01*
X159723352Y-98519248D01*
X159723355Y-98519248D01*
X159777760Y-98513690D01*
X159822708Y-98509099D01*
X159983697Y-98455753D01*
X160026665Y-98429250D01*
X160085403Y-98393020D01*
X160152795Y-98374579D01*
X160219459Y-98395501D01*
X160264228Y-98449143D01*
X160274500Y-98498558D01*
X160274500Y-98838330D01*
X160274499Y-98838348D01*
X160274499Y-99004054D01*
X160274498Y-99004054D01*
X160315423Y-99156787D01*
X160325200Y-99173719D01*
X160325201Y-99173720D01*
X160394479Y-99293714D01*
X160394481Y-99293717D01*
X160513349Y-99412585D01*
X160513355Y-99412590D01*
X161368563Y-100267798D01*
X161402048Y-100329121D01*
X161404102Y-100341595D01*
X161413895Y-100428514D01*
X161472577Y-100596220D01*
X161476138Y-100665999D01*
X161441409Y-100726626D01*
X161379415Y-100758853D01*
X161341652Y-100760394D01*
X161200004Y-100744435D01*
X161199996Y-100744435D01*
X161020750Y-100764630D01*
X161020745Y-100764631D01*
X160850476Y-100824211D01*
X160697739Y-100920183D01*
X160612180Y-101005742D01*
X160550856Y-101039226D01*
X160481165Y-101034242D01*
X160425231Y-100992370D01*
X160400815Y-100926905D01*
X160400499Y-100918076D01*
X160400499Y-100595406D01*
X160390349Y-100496042D01*
X160337003Y-100335053D01*
X160336999Y-100335047D01*
X160336998Y-100335044D01*
X160247970Y-100190709D01*
X160247967Y-100190705D01*
X160128044Y-100070782D01*
X160128040Y-100070779D01*
X159983705Y-99981751D01*
X159983699Y-99981748D01*
X159983697Y-99981747D01*
X159967823Y-99976487D01*
X159822709Y-99928401D01*
X159723346Y-99918250D01*
X158876662Y-99918250D01*
X158876644Y-99918251D01*
X158777292Y-99928400D01*
X158777289Y-99928401D01*
X158616305Y-99981746D01*
X158616294Y-99981751D01*
X158471959Y-100070779D01*
X158471955Y-100070782D01*
X158352032Y-100190705D01*
X158352029Y-100190709D01*
X158263001Y-100335044D01*
X158262996Y-100335055D01*
X158209651Y-100496040D01*
X158199500Y-100595397D01*
X158199500Y-100992234D01*
X158179815Y-101059273D01*
X158127011Y-101105028D01*
X158057853Y-101114972D01*
X158034546Y-101109276D01*
X157941258Y-101076633D01*
X157941250Y-101076631D01*
X157762005Y-101056436D01*
X157761997Y-101056436D01*
X157582751Y-101076631D01*
X157582746Y-101076632D01*
X157412477Y-101136212D01*
X157387360Y-101151995D01*
X157321388Y-101171001D01*
X153124171Y-101171001D01*
X153057132Y-101151316D01*
X153011377Y-101098512D01*
X153001433Y-101029354D01*
X153030458Y-100965798D01*
X153048684Y-100948625D01*
X153048762Y-100948565D01*
X153093292Y-100914396D01*
X153301896Y-100705792D01*
X153481488Y-100471744D01*
X153628993Y-100216257D01*
X153741889Y-99943702D01*
X153818243Y-99658743D01*
X153856750Y-99366256D01*
X153856750Y-99130171D01*
X155560750Y-99130171D01*
X155560750Y-99307328D01*
X155588464Y-99482306D01*
X155643206Y-99650789D01*
X155643207Y-99650792D01*
X155698466Y-99759241D01*
X155723636Y-99808640D01*
X155827767Y-99951964D01*
X155953036Y-100077233D01*
X156096360Y-100181364D01*
X156164827Y-100216250D01*
X156254207Y-100261792D01*
X156254210Y-100261793D01*
X156297705Y-100275925D01*
X156422695Y-100316536D01*
X156597671Y-100344250D01*
X156597672Y-100344250D01*
X156774828Y-100344250D01*
X156774829Y-100344250D01*
X156949805Y-100316536D01*
X157118292Y-100261792D01*
X157276140Y-100181364D01*
X157419464Y-100077233D01*
X157544733Y-99951964D01*
X157648864Y-99808640D01*
X157729292Y-99650792D01*
X157784036Y-99482305D01*
X157811750Y-99307329D01*
X157811750Y-99130171D01*
X157784036Y-98955195D01*
X157729292Y-98786708D01*
X157729292Y-98786707D01*
X157688311Y-98706279D01*
X157648864Y-98628860D01*
X157544733Y-98485536D01*
X157419464Y-98360267D01*
X157276140Y-98256136D01*
X157118292Y-98175707D01*
X157118289Y-98175706D01*
X156949806Y-98120964D01*
X156832895Y-98102447D01*
X156774829Y-98093250D01*
X156597671Y-98093250D01*
X156542755Y-98101948D01*
X156422693Y-98120964D01*
X156254210Y-98175706D01*
X156254207Y-98175707D01*
X156096359Y-98256136D01*
X156014588Y-98315546D01*
X155953036Y-98360267D01*
X155953034Y-98360269D01*
X155953033Y-98360269D01*
X155827769Y-98485533D01*
X155827769Y-98485534D01*
X155827767Y-98485536D01*
X155783046Y-98547088D01*
X155723636Y-98628859D01*
X155643207Y-98786707D01*
X155643206Y-98786710D01*
X155588464Y-98955193D01*
X155560750Y-99130171D01*
X153856750Y-99130171D01*
X153856750Y-99071244D01*
X153818243Y-98778757D01*
X153741889Y-98493798D01*
X153740865Y-98491327D01*
X153692507Y-98374579D01*
X153628993Y-98221243D01*
X153602703Y-98175708D01*
X153481488Y-97965756D01*
X153301897Y-97731709D01*
X153301891Y-97731702D01*
X153093297Y-97523108D01*
X153093290Y-97523102D01*
X152859243Y-97343511D01*
X152603760Y-97196008D01*
X152603750Y-97196004D01*
X152331211Y-97083114D01*
X152331204Y-97083112D01*
X152331202Y-97083111D01*
X152046243Y-97006757D01*
X151997363Y-97000321D01*
X151753763Y-96968250D01*
X151753756Y-96968250D01*
X151458744Y-96968250D01*
X151458736Y-96968250D01*
X151180335Y-97004903D01*
X151166257Y-97006757D01*
X151060647Y-97035055D01*
X150881298Y-97083111D01*
X150881288Y-97083114D01*
X150608749Y-97196004D01*
X150608739Y-97196008D01*
X150353256Y-97343511D01*
X150119209Y-97523102D01*
X150119202Y-97523108D01*
X149910608Y-97731702D01*
X149910602Y-97731709D01*
X149731011Y-97965756D01*
X149583508Y-98221239D01*
X149583504Y-98221249D01*
X149470614Y-98493788D01*
X149470611Y-98493798D01*
X149434422Y-98628860D01*
X149394258Y-98778754D01*
X149394256Y-98778765D01*
X149355750Y-99071236D01*
X149355750Y-99366263D01*
X149371028Y-99482305D01*
X149394257Y-99658743D01*
X149466511Y-99928400D01*
X149470611Y-99943701D01*
X149470614Y-99943711D01*
X149583504Y-100216250D01*
X149583508Y-100216260D01*
X149731011Y-100471743D01*
X149910602Y-100705790D01*
X149910608Y-100705797D01*
X150119202Y-100914391D01*
X150119206Y-100914394D01*
X150119208Y-100914396D01*
X150163738Y-100948565D01*
X150163816Y-100948625D01*
X150205018Y-101005053D01*
X150209173Y-101074800D01*
X150174960Y-101135720D01*
X150113243Y-101168472D01*
X150088329Y-101171001D01*
X149849939Y-101171001D01*
X149716447Y-101197554D01*
X149716437Y-101197557D01*
X149590694Y-101249641D01*
X149590681Y-101249648D01*
X149477513Y-101325265D01*
X149477509Y-101325268D01*
X148480097Y-102322681D01*
X148418774Y-102356166D01*
X148392416Y-102359000D01*
X147746730Y-102359000D01*
X147679691Y-102339315D01*
X147659049Y-102322681D01*
X147543657Y-102207289D01*
X147543656Y-102207288D01*
X147450790Y-102150008D01*
X147394336Y-102115187D01*
X147394331Y-102115185D01*
X147386512Y-102112594D01*
X147227797Y-102060001D01*
X147227795Y-102060000D01*
X147125010Y-102049500D01*
X146074998Y-102049500D01*
X146074980Y-102049501D01*
X145972203Y-102060000D01*
X145972200Y-102060001D01*
X145805668Y-102115185D01*
X145805663Y-102115187D01*
X145739236Y-102156160D01*
X145656344Y-102207288D01*
X145656342Y-102207289D01*
X145656340Y-102207291D01*
X145634170Y-102229461D01*
X145572846Y-102262945D01*
X145505535Y-102258819D01*
X145379262Y-102214633D01*
X145379249Y-102214630D01*
X145258867Y-102201067D01*
X145194453Y-102174001D01*
X145154897Y-102116406D01*
X145148750Y-102077847D01*
X145148750Y-98553249D01*
X145168435Y-98486210D01*
X145221239Y-98440455D01*
X145272750Y-98429249D01*
X145465298Y-98429249D01*
X145532337Y-98448934D01*
X145578092Y-98501738D01*
X145588036Y-98570896D01*
X145565615Y-98626136D01*
X145563636Y-98628858D01*
X145483207Y-98786707D01*
X145483206Y-98786710D01*
X145428464Y-98955193D01*
X145400750Y-99130171D01*
X145400750Y-99307328D01*
X145428464Y-99482306D01*
X145483206Y-99650789D01*
X145483207Y-99650792D01*
X145538466Y-99759241D01*
X145563636Y-99808640D01*
X145667767Y-99951964D01*
X145793036Y-100077233D01*
X145936360Y-100181364D01*
X146004827Y-100216250D01*
X146094207Y-100261792D01*
X146094210Y-100261793D01*
X146137705Y-100275925D01*
X146262695Y-100316536D01*
X146437671Y-100344250D01*
X146437672Y-100344250D01*
X146614828Y-100344250D01*
X146614829Y-100344250D01*
X146789805Y-100316536D01*
X146958292Y-100261792D01*
X147116140Y-100181364D01*
X147259464Y-100077233D01*
X147384733Y-99951964D01*
X147488864Y-99808640D01*
X147569292Y-99650792D01*
X147624036Y-99482305D01*
X147651750Y-99307329D01*
X147651750Y-99130171D01*
X147624036Y-98955195D01*
X147569292Y-98786708D01*
X147569290Y-98786702D01*
X147486763Y-98624737D01*
X147473866Y-98556067D01*
X147500142Y-98491327D01*
X147557248Y-98451069D01*
X147613431Y-98445502D01*
X147672814Y-98453320D01*
X147679862Y-98454248D01*
X147679878Y-98454250D01*
X147679885Y-98454250D01*
X147912615Y-98454250D01*
X147912622Y-98454250D01*
X148143376Y-98423871D01*
X148368190Y-98363632D01*
X148426203Y-98339602D01*
X148583210Y-98274569D01*
X148583213Y-98274567D01*
X148583219Y-98274565D01*
X148784782Y-98158192D01*
X148969431Y-98016506D01*
X149134006Y-97851931D01*
X149275692Y-97667282D01*
X149392065Y-97465719D01*
X149408605Y-97425789D01*
X149481129Y-97250697D01*
X149481128Y-97250697D01*
X149481132Y-97250690D01*
X149541371Y-97025876D01*
X149571750Y-96795122D01*
X149571750Y-96562378D01*
X149541371Y-96331624D01*
X149481132Y-96106810D01*
X149481129Y-96106802D01*
X149392069Y-95891789D01*
X149392061Y-95891773D01*
X149275696Y-95690225D01*
X149275692Y-95690218D01*
X149134006Y-95505569D01*
X149134001Y-95505563D01*
X148969436Y-95340998D01*
X148969429Y-95340992D01*
X148784790Y-95199314D01*
X148784788Y-95199312D01*
X148784782Y-95199308D01*
X148784777Y-95199305D01*
X148784774Y-95199303D01*
X148583226Y-95082938D01*
X148583210Y-95082930D01*
X148368197Y-94993870D01*
X148162487Y-94938750D01*
X148143376Y-94933629D01*
X148143375Y-94933628D01*
X148143372Y-94933628D01*
X147912632Y-94903251D01*
X147912627Y-94903250D01*
X147912622Y-94903250D01*
X147679878Y-94903250D01*
X147679872Y-94903250D01*
X147679867Y-94903251D01*
X147449127Y-94933628D01*
X147224302Y-94993870D01*
X147009289Y-95082930D01*
X147009273Y-95082938D01*
X146807725Y-95199303D01*
X146807709Y-95199314D01*
X146623071Y-95340991D01*
X146466198Y-95497864D01*
X146404875Y-95531348D01*
X146335183Y-95526364D01*
X146279250Y-95484492D01*
X146260811Y-95449187D01*
X146252184Y-95423152D01*
X146231064Y-95359416D01*
X146138962Y-95210094D01*
X146014906Y-95086038D01*
X145865584Y-94993936D01*
X145699047Y-94938751D01*
X145699045Y-94938750D01*
X145596266Y-94928250D01*
X145596259Y-94928250D01*
X144351500Y-94928250D01*
X144284461Y-94908565D01*
X144238706Y-94855761D01*
X144227500Y-94804250D01*
X144227500Y-91224884D01*
X144247185Y-91157845D01*
X144299989Y-91112090D01*
X144365383Y-91101664D01*
X144400000Y-91105565D01*
X144400001Y-91105564D01*
X144400002Y-91105565D01*
X144400004Y-91105565D01*
X144579249Y-91085369D01*
X144579252Y-91085368D01*
X144579255Y-91085368D01*
X144749522Y-91025789D01*
X144875700Y-90946505D01*
X144941672Y-90927500D01*
X157045096Y-90927500D01*
X157112135Y-90947185D01*
X157122413Y-90954556D01*
X157122731Y-90954809D01*
X157122738Y-90954816D01*
X157275478Y-91050789D01*
X157432019Y-91105565D01*
X157445745Y-91110368D01*
X157445750Y-91110369D01*
X157624996Y-91130565D01*
X157625000Y-91130565D01*
X157625004Y-91130565D01*
X157804249Y-91110369D01*
X157804252Y-91110368D01*
X157804255Y-91110368D01*
X157974522Y-91050789D01*
X158127262Y-90954816D01*
X158254816Y-90827262D01*
X158350789Y-90674522D01*
X158410368Y-90504255D01*
X158410369Y-90504249D01*
X158430565Y-90325003D01*
X158430565Y-90324996D01*
X158410369Y-90145750D01*
X158410368Y-90145745D01*
X158350788Y-89975476D01*
X158311582Y-89913080D01*
X158254816Y-89822738D01*
X158127262Y-89695184D01*
X158060913Y-89653494D01*
X157974523Y-89599211D01*
X157804254Y-89539631D01*
X157804249Y-89539630D01*
X157625004Y-89519435D01*
X157624996Y-89519435D01*
X157445750Y-89539630D01*
X157445737Y-89539633D01*
X157275481Y-89599209D01*
X157275477Y-89599210D01*
X157189087Y-89653494D01*
X157123115Y-89672500D01*
X144941672Y-89672500D01*
X144875700Y-89653494D01*
X144749523Y-89574211D01*
X144579254Y-89514631D01*
X144579249Y-89514630D01*
X144400004Y-89494435D01*
X144400002Y-89494435D01*
X144400000Y-89494435D01*
X144389534Y-89495614D01*
X144365380Y-89498335D01*
X144296559Y-89486278D01*
X144245181Y-89438928D01*
X144227500Y-89375114D01*
X144227500Y-86249986D01*
X145375001Y-86249986D01*
X145385494Y-86352697D01*
X145440641Y-86519119D01*
X145440643Y-86519124D01*
X145532684Y-86668345D01*
X145656654Y-86792315D01*
X145805875Y-86884356D01*
X145805880Y-86884358D01*
X145972302Y-86939505D01*
X145972309Y-86939506D01*
X146075019Y-86949999D01*
X146349999Y-86949999D01*
X146350000Y-86949998D01*
X146350000Y-86200000D01*
X145375001Y-86200000D01*
X145375001Y-86249986D01*
X144227500Y-86249986D01*
X144227500Y-84343554D01*
X144247185Y-84276515D01*
X144299989Y-84230760D01*
X144369147Y-84220816D01*
X144432703Y-84249841D01*
X144468542Y-84302600D01*
X144484960Y-84349521D01*
X144547793Y-84449519D01*
X144580934Y-84502262D01*
X144708488Y-84629816D01*
X144861228Y-84725789D01*
X144983735Y-84768656D01*
X145031495Y-84785368D01*
X145031500Y-84785369D01*
X145210746Y-84805565D01*
X145210750Y-84805565D01*
X145210754Y-84805565D01*
X145389999Y-84785369D01*
X145390000Y-84785368D01*
X145390005Y-84785368D01*
X145434243Y-84769887D01*
X145504021Y-84766325D01*
X145562879Y-84799247D01*
X145656344Y-84892712D01*
X145656346Y-84892713D01*
X145659653Y-84894753D01*
X145661445Y-84896746D01*
X145662011Y-84897193D01*
X145661934Y-84897289D01*
X145706379Y-84946699D01*
X145717603Y-85015661D01*
X145689761Y-85079744D01*
X145659665Y-85105826D01*
X145656660Y-85107679D01*
X145656655Y-85107683D01*
X145532684Y-85231654D01*
X145440643Y-85380875D01*
X145440641Y-85380880D01*
X145385494Y-85547302D01*
X145385493Y-85547309D01*
X145375000Y-85650013D01*
X145375000Y-85700000D01*
X146726000Y-85700000D01*
X146793039Y-85719685D01*
X146838794Y-85772489D01*
X146850000Y-85824000D01*
X146850000Y-86949999D01*
X147124972Y-86949999D01*
X147124986Y-86949998D01*
X147227697Y-86939505D01*
X147394119Y-86884358D01*
X147394124Y-86884356D01*
X147543345Y-86792315D01*
X147667317Y-86668343D01*
X147674337Y-86656962D01*
X147726283Y-86610235D01*
X147795246Y-86599011D01*
X147855363Y-86623678D01*
X147875737Y-86639312D01*
X147875738Y-86639312D01*
X147875739Y-86639313D01*
X147895504Y-86647500D01*
X148017437Y-86698007D01*
X148131323Y-86713000D01*
X149268928Y-86712999D01*
X149335967Y-86732684D01*
X149368128Y-86762600D01*
X149400733Y-86806075D01*
X149442943Y-86862359D01*
X149577126Y-86986191D01*
X149577129Y-86986193D01*
X149577132Y-86986196D01*
X149731524Y-87083698D01*
X149850665Y-87131457D01*
X149901013Y-87151640D01*
X149901014Y-87151640D01*
X149901016Y-87151641D01*
X150080007Y-87187780D01*
X150080001Y-87187780D01*
X150096321Y-87188060D01*
X150262583Y-87190921D01*
X150442711Y-87160959D01*
X150614440Y-87098885D01*
X150628837Y-87090494D01*
X150630151Y-87089840D01*
X150664193Y-87069944D01*
X150726763Y-87053000D01*
X152207892Y-87053000D01*
X152208014Y-87053007D01*
X152216105Y-87053006D01*
X152216108Y-87053007D01*
X152248242Y-87053003D01*
X152310807Y-87069936D01*
X152338630Y-87086192D01*
X152338631Y-87086192D01*
X152344724Y-87089752D01*
X152346406Y-87090591D01*
X152360579Y-87098850D01*
X152459512Y-87134611D01*
X152502082Y-87149999D01*
X152532301Y-87160922D01*
X152712422Y-87190882D01*
X152892723Y-87187780D01*
X152894991Y-87187741D01*
X152939213Y-87178812D01*
X153073975Y-87151603D01*
X153243460Y-87083663D01*
X153397846Y-86986163D01*
X153532033Y-86862328D01*
X153607195Y-86762104D01*
X153663165Y-86720281D01*
X153706398Y-86712500D01*
X153837500Y-86712500D01*
X153837500Y-85676500D01*
X153857185Y-85609461D01*
X153909989Y-85563706D01*
X153961500Y-85552500D01*
X154213500Y-85552500D01*
X154280539Y-85572185D01*
X154326294Y-85624989D01*
X154337500Y-85676500D01*
X154337500Y-86712500D01*
X154843647Y-86712500D01*
X154957430Y-86697520D01*
X154957435Y-86697518D01*
X155099006Y-86638878D01*
X155099007Y-86638878D01*
X155220586Y-86545586D01*
X155313878Y-86424007D01*
X155313878Y-86424006D01*
X155372518Y-86282435D01*
X155372520Y-86282430D01*
X155387500Y-86168646D01*
X155387500Y-85974281D01*
X155407185Y-85907242D01*
X155459989Y-85861487D01*
X155529147Y-85851543D01*
X155592703Y-85880568D01*
X155599181Y-85886600D01*
X157174146Y-87461565D01*
X157207631Y-87522888D01*
X157209685Y-87535361D01*
X157214630Y-87579249D01*
X157274210Y-87749521D01*
X157325457Y-87831079D01*
X157370184Y-87902262D01*
X157497738Y-88029816D01*
X157650478Y-88125789D01*
X157820745Y-88185368D01*
X157820750Y-88185369D01*
X157999996Y-88205565D01*
X158000000Y-88205565D01*
X158000004Y-88205565D01*
X158179249Y-88185369D01*
X158179252Y-88185368D01*
X158179255Y-88185368D01*
X158349522Y-88125789D01*
X158502262Y-88029816D01*
X158629816Y-87902262D01*
X158725789Y-87749522D01*
X158785368Y-87579255D01*
X158791719Y-87522888D01*
X158805565Y-87400003D01*
X158805565Y-87399996D01*
X158785369Y-87220750D01*
X158785368Y-87220745D01*
X158761187Y-87151640D01*
X158725789Y-87050478D01*
X158721492Y-87043640D01*
X158662653Y-86949998D01*
X158629816Y-86897738D01*
X158502262Y-86770184D01*
X158489403Y-86762104D01*
X158349521Y-86674210D01*
X158179249Y-86614630D01*
X158135361Y-86609685D01*
X158070947Y-86582617D01*
X158061565Y-86574146D01*
X155412344Y-83924925D01*
X155378859Y-83863602D01*
X155377088Y-83853442D01*
X155373007Y-83822437D01*
X155314312Y-83680737D01*
X155308136Y-83672688D01*
X155245061Y-83590486D01*
X155219867Y-83525317D01*
X155233906Y-83456872D01*
X155282720Y-83406882D01*
X155343437Y-83391000D01*
X156562416Y-83391000D01*
X156629455Y-83410685D01*
X156650097Y-83427319D01*
X157701398Y-84478619D01*
X157730758Y-84525345D01*
X157774209Y-84649519D01*
X157847603Y-84766325D01*
X157870184Y-84802262D01*
X157997738Y-84929816D01*
X158059553Y-84968657D01*
X158098770Y-84993299D01*
X158150478Y-85025789D01*
X158221098Y-85050500D01*
X158320745Y-85085368D01*
X158320750Y-85085369D01*
X158499996Y-85105565D01*
X158500000Y-85105565D01*
X158500004Y-85105565D01*
X158679249Y-85085369D01*
X158679252Y-85085368D01*
X158679255Y-85085368D01*
X158849522Y-85025789D01*
X159002262Y-84929816D01*
X159129816Y-84802262D01*
X159225789Y-84649522D01*
X159285368Y-84479255D01*
X159288718Y-84449522D01*
X159305565Y-84300003D01*
X159305565Y-84299996D01*
X159285369Y-84120750D01*
X159285368Y-84120745D01*
X159243435Y-84000908D01*
X159225789Y-83950478D01*
X159225330Y-83949748D01*
X159129815Y-83797737D01*
X159002262Y-83670184D01*
X158849519Y-83574209D01*
X158725345Y-83530758D01*
X158678619Y-83501398D01*
X157340492Y-82163269D01*
X157340485Y-82163263D01*
X157227312Y-82087644D01*
X157227309Y-82087642D01*
X157101561Y-82035556D01*
X157101551Y-82035553D01*
X156968060Y-82009000D01*
X156968058Y-82009000D01*
X153668058Y-82009000D01*
X153248051Y-82009000D01*
X153181012Y-81989315D01*
X153135257Y-81936511D01*
X153125313Y-81867353D01*
X153154338Y-81803797D01*
X153160370Y-81797319D01*
X153301891Y-81655797D01*
X153301896Y-81655792D01*
X153481488Y-81421744D01*
X153628993Y-81166257D01*
X153741889Y-80893702D01*
X153818243Y-80608743D01*
X153856750Y-80316256D01*
X153856750Y-80080171D01*
X155560750Y-80080171D01*
X155560750Y-80257328D01*
X155588464Y-80432306D01*
X155643206Y-80600789D01*
X155643207Y-80600792D01*
X155720269Y-80752032D01*
X155723636Y-80758640D01*
X155827767Y-80901964D01*
X155953036Y-81027233D01*
X156096360Y-81131364D01*
X156145702Y-81156505D01*
X156254207Y-81211792D01*
X156254210Y-81211793D01*
X156331745Y-81236985D01*
X156422695Y-81266536D01*
X156597671Y-81294250D01*
X156597672Y-81294250D01*
X156774828Y-81294250D01*
X156774829Y-81294250D01*
X156949805Y-81266536D01*
X157118292Y-81211792D01*
X157276140Y-81131364D01*
X157419464Y-81027233D01*
X157544733Y-80901964D01*
X157648864Y-80758640D01*
X157729292Y-80600792D01*
X157784036Y-80432305D01*
X157811750Y-80257329D01*
X157811750Y-80080171D01*
X157784036Y-79905195D01*
X157729292Y-79736708D01*
X157729292Y-79736707D01*
X157659890Y-79600500D01*
X157648864Y-79578860D01*
X157544733Y-79435536D01*
X157419464Y-79310267D01*
X157276140Y-79206136D01*
X157265075Y-79200498D01*
X157118292Y-79125707D01*
X157118289Y-79125706D01*
X156949806Y-79070964D01*
X156832895Y-79052447D01*
X156774829Y-79043250D01*
X156597671Y-79043250D01*
X156567871Y-79047970D01*
X156422693Y-79070964D01*
X156254210Y-79125706D01*
X156254207Y-79125707D01*
X156096359Y-79206136D01*
X156046440Y-79242405D01*
X155953036Y-79310267D01*
X155953034Y-79310269D01*
X155953033Y-79310269D01*
X155827769Y-79435533D01*
X155827769Y-79435534D01*
X155827767Y-79435536D01*
X155783046Y-79497088D01*
X155723636Y-79578859D01*
X155643207Y-79736707D01*
X155643206Y-79736710D01*
X155588464Y-79905193D01*
X155560750Y-80080171D01*
X153856750Y-80080171D01*
X153856750Y-80021244D01*
X153818243Y-79728757D01*
X153741889Y-79443798D01*
X153740865Y-79441327D01*
X153691291Y-79321643D01*
X153628993Y-79171243D01*
X153626178Y-79166368D01*
X153481488Y-78915756D01*
X153301897Y-78681709D01*
X153301891Y-78681702D01*
X153093297Y-78473108D01*
X153093290Y-78473102D01*
X152859243Y-78293511D01*
X152603760Y-78146008D01*
X152603750Y-78146004D01*
X152331211Y-78033114D01*
X152331204Y-78033112D01*
X152331202Y-78033111D01*
X152046243Y-77956757D01*
X151991288Y-77949522D01*
X151753763Y-77918250D01*
X151753756Y-77918250D01*
X151458744Y-77918250D01*
X151458736Y-77918250D01*
X151180335Y-77954903D01*
X151166257Y-77956757D01*
X151002632Y-78000600D01*
X150881298Y-78033111D01*
X150881288Y-78033114D01*
X150608749Y-78146004D01*
X150608739Y-78146008D01*
X150353256Y-78293511D01*
X150119209Y-78473102D01*
X150119202Y-78473108D01*
X149910608Y-78681702D01*
X149910602Y-78681709D01*
X149731011Y-78915756D01*
X149583508Y-79171239D01*
X149583504Y-79171249D01*
X149470614Y-79443788D01*
X149470611Y-79443798D01*
X149434422Y-79578860D01*
X149394258Y-79728754D01*
X149394256Y-79728765D01*
X149355750Y-80021236D01*
X149355750Y-80316263D01*
X149371028Y-80432305D01*
X149394257Y-80608743D01*
X149464785Y-80871959D01*
X149470611Y-80893701D01*
X149470614Y-80893711D01*
X149583504Y-81166250D01*
X149583508Y-81166260D01*
X149731011Y-81421743D01*
X149910602Y-81655790D01*
X149910608Y-81655797D01*
X150052130Y-81797319D01*
X150085615Y-81858642D01*
X150080631Y-81928334D01*
X150038759Y-81984267D01*
X149973295Y-82008684D01*
X149964449Y-82009000D01*
X149431940Y-82009000D01*
X149298448Y-82035553D01*
X149298438Y-82035556D01*
X149172690Y-82087642D01*
X149172687Y-82087644D01*
X149059514Y-82163263D01*
X149059507Y-82163269D01*
X148394634Y-82828144D01*
X148394633Y-82828145D01*
X148350769Y-82872007D01*
X148350766Y-82872010D01*
X148290259Y-82962567D01*
X148275143Y-82985188D01*
X148275142Y-82985190D01*
X148223056Y-83110938D01*
X148223053Y-83110948D01*
X148196499Y-83244440D01*
X148196233Y-83247150D01*
X148195696Y-83248478D01*
X148195311Y-83250417D01*
X148194943Y-83250343D01*
X148170074Y-83311938D01*
X148113041Y-83352299D01*
X148072830Y-83359000D01*
X147746730Y-83359000D01*
X147679691Y-83339315D01*
X147659049Y-83322681D01*
X147543657Y-83207289D01*
X147543656Y-83207288D01*
X147396372Y-83116443D01*
X147394336Y-83115187D01*
X147394331Y-83115185D01*
X147385960Y-83112411D01*
X147227797Y-83060001D01*
X147227795Y-83060000D01*
X147125010Y-83049500D01*
X146074998Y-83049500D01*
X146074980Y-83049501D01*
X145972203Y-83060000D01*
X145972200Y-83060001D01*
X145805668Y-83115185D01*
X145805663Y-83115187D01*
X145656337Y-83207292D01*
X145636956Y-83226674D01*
X145575633Y-83260158D01*
X145508322Y-83256033D01*
X145498225Y-83252500D01*
X145486731Y-83248478D01*
X145390004Y-83214631D01*
X145389999Y-83214630D01*
X145210754Y-83194435D01*
X145210746Y-83194435D01*
X145031500Y-83214630D01*
X145031495Y-83214631D01*
X144861226Y-83274211D01*
X144708487Y-83370184D01*
X144580934Y-83497737D01*
X144484959Y-83650480D01*
X144468541Y-83697400D01*
X144427819Y-83754176D01*
X144362867Y-83779923D01*
X144294305Y-83766466D01*
X144243902Y-83718079D01*
X144227500Y-83656445D01*
X144227500Y-79503249D01*
X144247185Y-79436210D01*
X144299989Y-79390455D01*
X144351500Y-79379249D01*
X145465298Y-79379249D01*
X145532337Y-79398934D01*
X145578092Y-79451738D01*
X145588036Y-79520896D01*
X145565615Y-79576136D01*
X145563636Y-79578858D01*
X145483207Y-79736707D01*
X145483206Y-79736710D01*
X145428464Y-79905193D01*
X145400750Y-80080171D01*
X145400750Y-80257328D01*
X145428464Y-80432306D01*
X145483206Y-80600789D01*
X145483207Y-80600792D01*
X145560269Y-80752032D01*
X145563636Y-80758640D01*
X145667767Y-80901964D01*
X145793036Y-81027233D01*
X145936360Y-81131364D01*
X145985702Y-81156505D01*
X146094207Y-81211792D01*
X146094210Y-81211793D01*
X146171745Y-81236985D01*
X146262695Y-81266536D01*
X146437671Y-81294250D01*
X146437672Y-81294250D01*
X146614828Y-81294250D01*
X146614829Y-81294250D01*
X146789805Y-81266536D01*
X146958292Y-81211792D01*
X147116140Y-81131364D01*
X147259464Y-81027233D01*
X147384733Y-80901964D01*
X147488864Y-80758640D01*
X147569292Y-80600792D01*
X147624036Y-80432305D01*
X147651750Y-80257329D01*
X147651750Y-80080171D01*
X147624036Y-79905195D01*
X147569292Y-79736708D01*
X147569290Y-79736702D01*
X147486763Y-79574737D01*
X147473866Y-79506067D01*
X147500142Y-79441327D01*
X147557248Y-79401069D01*
X147613431Y-79395502D01*
X147672814Y-79403320D01*
X147679862Y-79404248D01*
X147679878Y-79404250D01*
X147679885Y-79404250D01*
X147912615Y-79404250D01*
X147912622Y-79404250D01*
X148143376Y-79373871D01*
X148368190Y-79313632D01*
X148459313Y-79275888D01*
X148583210Y-79224569D01*
X148583213Y-79224567D01*
X148583219Y-79224565D01*
X148784782Y-79108192D01*
X148969431Y-78966506D01*
X149134006Y-78801931D01*
X149275692Y-78617282D01*
X149392065Y-78415719D01*
X149417691Y-78353853D01*
X149481129Y-78200697D01*
X149481128Y-78200697D01*
X149481132Y-78200690D01*
X149541371Y-77975876D01*
X149571750Y-77745122D01*
X149571750Y-77512378D01*
X149541371Y-77281624D01*
X149481132Y-77056810D01*
X149468108Y-77025366D01*
X149392069Y-76841789D01*
X149392061Y-76841773D01*
X149275696Y-76640225D01*
X149275692Y-76640218D01*
X149134006Y-76455569D01*
X149134001Y-76455563D01*
X148969436Y-76290998D01*
X148969429Y-76290992D01*
X148784790Y-76149314D01*
X148784788Y-76149312D01*
X148784782Y-76149308D01*
X148784777Y-76149305D01*
X148784774Y-76149303D01*
X148583226Y-76032938D01*
X148583210Y-76032930D01*
X148368197Y-75943870D01*
X148162487Y-75888750D01*
X148143376Y-75883629D01*
X148143375Y-75883628D01*
X148143372Y-75883628D01*
X147912632Y-75853251D01*
X147912627Y-75853250D01*
X147912622Y-75853250D01*
X147679878Y-75853250D01*
X147679872Y-75853250D01*
X147679867Y-75853251D01*
X147449127Y-75883628D01*
X147224302Y-75943870D01*
X147009289Y-76032930D01*
X147009273Y-76032938D01*
X146807725Y-76149303D01*
X146807709Y-76149314D01*
X146623071Y-76290991D01*
X146466198Y-76447864D01*
X146404875Y-76481348D01*
X146335183Y-76476364D01*
X146279250Y-76434492D01*
X146260811Y-76399187D01*
X146256713Y-76386819D01*
X146231064Y-76309416D01*
X146138962Y-76160094D01*
X146014906Y-76036038D01*
X145922138Y-75978819D01*
X145865586Y-75943937D01*
X145865581Y-75943935D01*
X145864112Y-75943448D01*
X145699047Y-75888751D01*
X145699045Y-75888750D01*
X145596260Y-75878250D01*
X143446248Y-75878250D01*
X143446231Y-75878251D01*
X143343453Y-75888750D01*
X143343450Y-75888751D01*
X143176918Y-75943935D01*
X143176913Y-75943937D01*
X143027592Y-76036039D01*
X142903539Y-76160092D01*
X142810209Y-76311405D01*
X142758261Y-76358129D01*
X142689298Y-76369352D01*
X142625216Y-76341508D01*
X142586360Y-76283439D01*
X142580670Y-76246293D01*
X142580674Y-76218905D01*
X142581157Y-72292818D01*
X142581176Y-72135996D01*
X144405185Y-72135996D01*
X144405185Y-72136003D01*
X144425380Y-72315249D01*
X144425381Y-72315254D01*
X144484961Y-72485523D01*
X144580934Y-72638262D01*
X144708488Y-72765816D01*
X144798830Y-72822582D01*
X144851322Y-72855565D01*
X144861228Y-72861789D01*
X145009858Y-72913797D01*
X145031495Y-72921368D01*
X145031500Y-72921369D01*
X145210746Y-72941565D01*
X145210750Y-72941565D01*
X145210754Y-72941565D01*
X145389999Y-72921369D01*
X145390001Y-72921368D01*
X145390005Y-72921368D01*
X145390008Y-72921366D01*
X145390012Y-72921366D01*
X145537594Y-72869725D01*
X145607373Y-72866163D01*
X145668000Y-72900891D01*
X145696255Y-72947761D01*
X145724144Y-73031923D01*
X145740186Y-73080334D01*
X145832288Y-73229656D01*
X145956344Y-73353712D01*
X146105666Y-73445814D01*
X146272203Y-73500999D01*
X146374991Y-73511500D01*
X147225008Y-73511499D01*
X147225016Y-73511498D01*
X147225019Y-73511498D01*
X147322892Y-73501500D01*
X147327797Y-73500999D01*
X147494334Y-73445814D01*
X147643656Y-73353712D01*
X147767712Y-73229656D01*
X147859814Y-73080334D01*
X147914999Y-72913797D01*
X147925500Y-72811009D01*
X147925499Y-71460992D01*
X147925498Y-71460983D01*
X148474500Y-71460983D01*
X148474500Y-72811001D01*
X148474501Y-72811018D01*
X148485000Y-72913796D01*
X148485001Y-72913799D01*
X148540185Y-73080331D01*
X148540186Y-73080334D01*
X148632288Y-73229656D01*
X148756344Y-73353712D01*
X148905666Y-73445814D01*
X149072203Y-73500999D01*
X149174991Y-73511500D01*
X150025008Y-73511499D01*
X150025016Y-73511498D01*
X150025019Y-73511498D01*
X150122892Y-73501500D01*
X150127797Y-73500999D01*
X150294334Y-73445814D01*
X150443656Y-73353712D01*
X150567712Y-73229656D01*
X150659814Y-73080334D01*
X150714999Y-72913797D01*
X150725500Y-72811009D01*
X150725500Y-72801500D01*
X150745185Y-72734461D01*
X150797989Y-72688706D01*
X150849500Y-72677500D01*
X151158328Y-72677500D01*
X151224299Y-72696505D01*
X151350478Y-72775789D01*
X151423956Y-72801500D01*
X151520745Y-72835368D01*
X151520750Y-72835369D01*
X151699996Y-72855565D01*
X151700000Y-72855565D01*
X151700004Y-72855565D01*
X151879249Y-72835369D01*
X151879252Y-72835368D01*
X151879255Y-72835368D01*
X152049522Y-72775789D01*
X152202262Y-72679816D01*
X152329816Y-72552262D01*
X152425789Y-72399522D01*
X152485368Y-72229255D01*
X152485369Y-72229249D01*
X152505565Y-72050003D01*
X152505565Y-72049996D01*
X152485369Y-71870750D01*
X152485368Y-71870745D01*
X152443122Y-71750013D01*
X154575000Y-71750013D01*
X154575000Y-72000000D01*
X155337500Y-72000000D01*
X155337500Y-71050000D01*
X155337499Y-71049999D01*
X155275028Y-71050000D01*
X155275011Y-71050001D01*
X155172302Y-71060494D01*
X155005880Y-71115641D01*
X155005875Y-71115643D01*
X154856654Y-71207684D01*
X154732684Y-71331654D01*
X154640643Y-71480875D01*
X154640641Y-71480880D01*
X154585494Y-71647302D01*
X154585493Y-71647309D01*
X154575000Y-71750013D01*
X152443122Y-71750013D01*
X152425789Y-71700478D01*
X152329816Y-71547738D01*
X152202262Y-71420184D01*
X152175700Y-71403494D01*
X152049523Y-71324211D01*
X151879254Y-71264631D01*
X151879249Y-71264630D01*
X151700004Y-71244435D01*
X151699996Y-71244435D01*
X151520750Y-71264630D01*
X151520745Y-71264631D01*
X151350476Y-71324211D01*
X151224300Y-71403494D01*
X151158328Y-71422500D01*
X150825846Y-71422500D01*
X150758807Y-71402815D01*
X150713052Y-71350011D01*
X150708140Y-71337504D01*
X150707240Y-71334789D01*
X150659814Y-71191666D01*
X150567712Y-71042344D01*
X150443656Y-70918288D01*
X150294334Y-70826186D01*
X150127797Y-70771001D01*
X150127795Y-70771000D01*
X150025010Y-70760500D01*
X149174998Y-70760500D01*
X149174980Y-70760501D01*
X149072203Y-70771000D01*
X149072200Y-70771001D01*
X148905668Y-70826185D01*
X148905663Y-70826187D01*
X148756342Y-70918289D01*
X148632289Y-71042342D01*
X148540187Y-71191663D01*
X148540185Y-71191668D01*
X148535009Y-71207288D01*
X148485001Y-71358203D01*
X148485001Y-71358204D01*
X148485000Y-71358204D01*
X148474500Y-71460983D01*
X147925498Y-71460983D01*
X147923865Y-71445000D01*
X147914999Y-71358203D01*
X147914998Y-71358200D01*
X147907240Y-71334789D01*
X147859814Y-71191666D01*
X147767712Y-71042344D01*
X147643656Y-70918288D01*
X147494334Y-70826186D01*
X147327797Y-70771001D01*
X147327795Y-70771000D01*
X147225010Y-70760500D01*
X146374998Y-70760500D01*
X146374980Y-70760501D01*
X146272203Y-70771000D01*
X146272200Y-70771001D01*
X146105668Y-70826185D01*
X146105663Y-70826187D01*
X145956342Y-70918289D01*
X145832289Y-71042342D01*
X145740187Y-71191663D01*
X145740185Y-71191668D01*
X145735009Y-71207288D01*
X145703856Y-71301304D01*
X145696256Y-71324238D01*
X145656483Y-71381683D01*
X145591967Y-71408506D01*
X145537595Y-71402276D01*
X145390004Y-71350631D01*
X145389999Y-71350630D01*
X145210754Y-71330435D01*
X145210746Y-71330435D01*
X145031500Y-71350630D01*
X145031495Y-71350631D01*
X144861226Y-71410211D01*
X144708487Y-71506184D01*
X144580934Y-71633737D01*
X144484961Y-71786476D01*
X144425381Y-71956745D01*
X144425380Y-71956750D01*
X144405185Y-72135996D01*
X142581176Y-72135996D01*
X142581739Y-67544683D01*
X142581745Y-67544627D01*
X142581749Y-67478538D01*
X142583277Y-67459143D01*
X142584724Y-67450012D01*
X142593034Y-67397559D01*
X142605018Y-67360679D01*
X142628849Y-67313912D01*
X142651642Y-67282543D01*
X142688756Y-67245431D01*
X142720132Y-67222637D01*
X142766890Y-67198814D01*
X142803781Y-67186830D01*
X142865676Y-67177027D01*
X142885073Y-67175500D01*
X142940892Y-67175500D01*
X151770500Y-67175500D01*
X151837539Y-67195185D01*
G37*
G04 #@! TD.AperFunction*
G04 #@! TA.AperFunction,Conductor*
G36*
X177352008Y-84893435D02*
G01*
X177372650Y-84910069D01*
X180224988Y-87762408D01*
X180224992Y-87762411D01*
X180327760Y-87831079D01*
X180327773Y-87831086D01*
X180441960Y-87878383D01*
X180441965Y-87878385D01*
X180441969Y-87878385D01*
X180441970Y-87878386D01*
X180563194Y-87902500D01*
X180563197Y-87902500D01*
X185639304Y-87902500D01*
X185639305Y-87902499D01*
X185760535Y-87878386D01*
X185841284Y-87844937D01*
X185874733Y-87831083D01*
X185977508Y-87762411D01*
X186064911Y-87675008D01*
X187046850Y-86693067D01*
X187108173Y-86659583D01*
X187134531Y-86656749D01*
X187487742Y-86656749D01*
X187554781Y-86676434D01*
X187586942Y-86706349D01*
X187661733Y-86806073D01*
X187795912Y-86929902D01*
X187950289Y-87027399D01*
X188119763Y-87095343D01*
X188298736Y-87131490D01*
X188481287Y-87134644D01*
X188481290Y-87134644D01*
X188481290Y-87134643D01*
X188481296Y-87134644D01*
X188661411Y-87104703D01*
X188833131Y-87042654D01*
X188847533Y-87034263D01*
X188848859Y-87033602D01*
X188855134Y-87029935D01*
X188855137Y-87029935D01*
X188882948Y-87013686D01*
X188882950Y-87013685D01*
X188945504Y-86996750D01*
X188977692Y-86996750D01*
X190434808Y-86996750D01*
X190466998Y-86996750D01*
X190529554Y-87013686D01*
X190557363Y-87029934D01*
X190557364Y-87029934D01*
X190563414Y-87033469D01*
X190565186Y-87034353D01*
X190579382Y-87042624D01*
X190608098Y-87053000D01*
X190751100Y-87104671D01*
X190931209Y-87134611D01*
X190931214Y-87134610D01*
X190931215Y-87134611D01*
X191052911Y-87132508D01*
X191113762Y-87131457D01*
X191292729Y-87095311D01*
X191462198Y-87027369D01*
X191616569Y-86929875D01*
X191750744Y-86806049D01*
X191825891Y-86705849D01*
X191881859Y-86664030D01*
X191925090Y-86656250D01*
X192056250Y-86656250D01*
X192556250Y-86656250D01*
X193062397Y-86656250D01*
X193176180Y-86641270D01*
X193176185Y-86641268D01*
X193317756Y-86582628D01*
X193317757Y-86582628D01*
X193439336Y-86489336D01*
X193532628Y-86367757D01*
X193532628Y-86367756D01*
X193591268Y-86226185D01*
X193591270Y-86226180D01*
X193606250Y-86112396D01*
X193606250Y-85996250D01*
X192556250Y-85996250D01*
X192556250Y-86656250D01*
X192056250Y-86656250D01*
X192056250Y-85620250D01*
X192075935Y-85553211D01*
X192128739Y-85507456D01*
X192180250Y-85496250D01*
X193606250Y-85496250D01*
X193606250Y-85380103D01*
X193591270Y-85266319D01*
X193591268Y-85266314D01*
X193532628Y-85124743D01*
X193532625Y-85124737D01*
X193493107Y-85073237D01*
X193467912Y-85008068D01*
X193481950Y-84939623D01*
X193530764Y-84889633D01*
X193591482Y-84873750D01*
X195884969Y-84873750D01*
X195952008Y-84893435D01*
X195972650Y-84910069D01*
X196636181Y-85573600D01*
X196669666Y-85634923D01*
X196672500Y-85661281D01*
X196672500Y-88763719D01*
X196652815Y-88830758D01*
X196636181Y-88851400D01*
X195801400Y-89686181D01*
X195740077Y-89719666D01*
X195713719Y-89722500D01*
X166366672Y-89722500D01*
X166300700Y-89703494D01*
X166174523Y-89624211D01*
X166004254Y-89564631D01*
X166004249Y-89564630D01*
X165825004Y-89544435D01*
X165824996Y-89544435D01*
X165645750Y-89564630D01*
X165645745Y-89564631D01*
X165475476Y-89624211D01*
X165322737Y-89720184D01*
X165195184Y-89847737D01*
X165099211Y-90000476D01*
X165039631Y-90170745D01*
X165039630Y-90170750D01*
X165018655Y-90356919D01*
X165017017Y-90356734D01*
X164999750Y-90415539D01*
X164946946Y-90461294D01*
X164895435Y-90472500D01*
X164322750Y-90472500D01*
X164255711Y-90452815D01*
X164209956Y-90400011D01*
X164198750Y-90348500D01*
X164198750Y-86449986D01*
X164575001Y-86449986D01*
X164585494Y-86552697D01*
X164640641Y-86719119D01*
X164640643Y-86719124D01*
X164732684Y-86868345D01*
X164856654Y-86992315D01*
X165005875Y-87084356D01*
X165005880Y-87084358D01*
X165172302Y-87139505D01*
X165172309Y-87139506D01*
X165275019Y-87149999D01*
X165549999Y-87149999D01*
X165550000Y-87149998D01*
X165550000Y-86400000D01*
X164575001Y-86400000D01*
X164575001Y-86449986D01*
X164198750Y-86449986D01*
X164198750Y-85116519D01*
X164218435Y-85049480D01*
X164271239Y-85003725D01*
X164308867Y-84993299D01*
X164379249Y-84985369D01*
X164379252Y-84985368D01*
X164379255Y-84985368D01*
X164549522Y-84925789D01*
X164556312Y-84921522D01*
X164623547Y-84902521D01*
X164690382Y-84922886D01*
X164727822Y-84961416D01*
X164732288Y-84968656D01*
X164856344Y-85092712D01*
X164859628Y-85094737D01*
X164859653Y-85094753D01*
X164861445Y-85096746D01*
X164862011Y-85097193D01*
X164861934Y-85097289D01*
X164906379Y-85146699D01*
X164917603Y-85215661D01*
X164889761Y-85279744D01*
X164859665Y-85305826D01*
X164856660Y-85307679D01*
X164856655Y-85307683D01*
X164732684Y-85431654D01*
X164640643Y-85580875D01*
X164640641Y-85580880D01*
X164585494Y-85747302D01*
X164585493Y-85747309D01*
X164575000Y-85850013D01*
X164575000Y-85900000D01*
X165926000Y-85900000D01*
X165993039Y-85919685D01*
X166038794Y-85972489D01*
X166050000Y-86024000D01*
X166050000Y-87149999D01*
X166324972Y-87149999D01*
X166324986Y-87149998D01*
X166427697Y-87139505D01*
X166594119Y-87084358D01*
X166594124Y-87084356D01*
X166743345Y-86992315D01*
X166867315Y-86868345D01*
X166959356Y-86719124D01*
X166959356Y-86719122D01*
X166967326Y-86695072D01*
X167007098Y-86637626D01*
X167071613Y-86610802D01*
X167132486Y-86619513D01*
X167186187Y-86641757D01*
X167264685Y-86652091D01*
X167328581Y-86680357D01*
X167367053Y-86738681D01*
X167372500Y-86775030D01*
X167372500Y-86858328D01*
X167353494Y-86924300D01*
X167274211Y-87050476D01*
X167214631Y-87220745D01*
X167214630Y-87220750D01*
X167194435Y-87399996D01*
X167194435Y-87400003D01*
X167214630Y-87579249D01*
X167214631Y-87579254D01*
X167274211Y-87749523D01*
X167325459Y-87831083D01*
X167370184Y-87902262D01*
X167497738Y-88029816D01*
X167650478Y-88125789D01*
X167820745Y-88185368D01*
X167820750Y-88185369D01*
X167999996Y-88205565D01*
X168000000Y-88205565D01*
X168000004Y-88205565D01*
X168179249Y-88185369D01*
X168179252Y-88185368D01*
X168179255Y-88185368D01*
X168349522Y-88125789D01*
X168502262Y-88029816D01*
X168629816Y-87902262D01*
X168725789Y-87749522D01*
X168785368Y-87579255D01*
X168791719Y-87522888D01*
X168805565Y-87400003D01*
X168805565Y-87399996D01*
X168785369Y-87220750D01*
X168785366Y-87220737D01*
X168778064Y-87199869D01*
X168774501Y-87130090D01*
X168809230Y-87069463D01*
X168871223Y-87037235D01*
X168940799Y-87043640D01*
X169069763Y-87095343D01*
X169248736Y-87131490D01*
X169431287Y-87134644D01*
X169431290Y-87134644D01*
X169431290Y-87134643D01*
X169431296Y-87134644D01*
X169611411Y-87104703D01*
X169783131Y-87042654D01*
X169797533Y-87034263D01*
X169798859Y-87033602D01*
X169805134Y-87029935D01*
X169805137Y-87029935D01*
X169832948Y-87013686D01*
X169832950Y-87013685D01*
X169895504Y-86996750D01*
X169927692Y-86996750D01*
X171384808Y-86996750D01*
X171416998Y-86996750D01*
X171479554Y-87013686D01*
X171507363Y-87029934D01*
X171507364Y-87029934D01*
X171513414Y-87033469D01*
X171515186Y-87034353D01*
X171529382Y-87042624D01*
X171558098Y-87053000D01*
X171701100Y-87104671D01*
X171881209Y-87134611D01*
X171881214Y-87134610D01*
X171881215Y-87134611D01*
X172002911Y-87132508D01*
X172063762Y-87131457D01*
X172242729Y-87095311D01*
X172412198Y-87027369D01*
X172566569Y-86929875D01*
X172700744Y-86806049D01*
X172775891Y-86705849D01*
X172831859Y-86664030D01*
X172875090Y-86656250D01*
X173006250Y-86656250D01*
X173506250Y-86656250D01*
X174012397Y-86656250D01*
X174126180Y-86641270D01*
X174126185Y-86641268D01*
X174267756Y-86582628D01*
X174267757Y-86582628D01*
X174389336Y-86489336D01*
X174482628Y-86367757D01*
X174482628Y-86367756D01*
X174541268Y-86226185D01*
X174541270Y-86226180D01*
X174556250Y-86112396D01*
X174556250Y-85996250D01*
X173506250Y-85996250D01*
X173506250Y-86656250D01*
X173006250Y-86656250D01*
X173006250Y-85620250D01*
X173025935Y-85553211D01*
X173078739Y-85507456D01*
X173130250Y-85496250D01*
X174556250Y-85496250D01*
X174556250Y-85380103D01*
X174541270Y-85266319D01*
X174541268Y-85266314D01*
X174482628Y-85124743D01*
X174482625Y-85124737D01*
X174443107Y-85073237D01*
X174417912Y-85008068D01*
X174431950Y-84939623D01*
X174480764Y-84889633D01*
X174541482Y-84873750D01*
X177284969Y-84873750D01*
X177352008Y-84893435D01*
G37*
G04 #@! TD.AperFunction*
G04 #@! TA.AperFunction,Conductor*
G36*
X162177597Y-79283144D02*
G01*
X162226907Y-79313559D01*
X162226910Y-79313560D01*
X162226916Y-79313564D01*
X162393453Y-79368749D01*
X162496241Y-79379250D01*
X162819750Y-79379249D01*
X162886789Y-79398933D01*
X162932544Y-79451737D01*
X162943750Y-79503249D01*
X162943750Y-88751871D01*
X162924065Y-88818910D01*
X162871261Y-88864665D01*
X162807149Y-88875229D01*
X162800021Y-88874500D01*
X162800009Y-88874500D01*
X162187598Y-88874500D01*
X162120559Y-88854815D01*
X162099917Y-88838181D01*
X162024819Y-88763083D01*
X161991334Y-88701760D01*
X161988500Y-88675402D01*
X161988500Y-79388682D01*
X162008185Y-79321643D01*
X162060989Y-79275888D01*
X162130147Y-79265944D01*
X162177597Y-79283144D01*
G37*
G04 #@! TD.AperFunction*
G04 #@! TA.AperFunction,Conductor*
G36*
X182318204Y-84151185D02*
G01*
X182338846Y-84167818D01*
X182449649Y-84278620D01*
X182479009Y-84325347D01*
X182522459Y-84449519D01*
X182553320Y-84498634D01*
X182618434Y-84602262D01*
X182745988Y-84729816D01*
X182809762Y-84769888D01*
X182861851Y-84802618D01*
X182898728Y-84825789D01*
X183035793Y-84873750D01*
X183068995Y-84885368D01*
X183069000Y-84885369D01*
X183248246Y-84905565D01*
X183248250Y-84905565D01*
X183248254Y-84905565D01*
X183427499Y-84885369D01*
X183427502Y-84885368D01*
X183427505Y-84885368D01*
X183427506Y-84885367D01*
X183427509Y-84885367D01*
X183462673Y-84873062D01*
X183541796Y-84845375D01*
X183611572Y-84841813D01*
X183672200Y-84876542D01*
X183688287Y-84897319D01*
X183732288Y-84968656D01*
X183856344Y-85092712D01*
X183859628Y-85094737D01*
X183859653Y-85094753D01*
X183861445Y-85096746D01*
X183862011Y-85097193D01*
X183861934Y-85097289D01*
X183906379Y-85146699D01*
X183917603Y-85215661D01*
X183889761Y-85279744D01*
X183859665Y-85305826D01*
X183856660Y-85307679D01*
X183856655Y-85307683D01*
X183732684Y-85431654D01*
X183640643Y-85580875D01*
X183640641Y-85580880D01*
X183585494Y-85747302D01*
X183585493Y-85747309D01*
X183575000Y-85850013D01*
X183575000Y-85900000D01*
X184926000Y-85900000D01*
X184993039Y-85919685D01*
X185038794Y-85972489D01*
X185050000Y-86024000D01*
X185050000Y-86276000D01*
X185030315Y-86343039D01*
X184977511Y-86388794D01*
X184926000Y-86400000D01*
X183575001Y-86400000D01*
X183575001Y-86449988D01*
X183581224Y-86510899D01*
X183568454Y-86579591D01*
X183520573Y-86630476D01*
X183457866Y-86647500D01*
X180936281Y-86647500D01*
X180869242Y-86627815D01*
X180848600Y-86611181D01*
X178580600Y-84343181D01*
X178547115Y-84281858D01*
X178552099Y-84212166D01*
X178593971Y-84156233D01*
X178659435Y-84131816D01*
X178668281Y-84131500D01*
X182251165Y-84131500D01*
X182318204Y-84151185D01*
G37*
G04 #@! TD.AperFunction*
G04 #@! TA.AperFunction,Conductor*
G36*
X198447130Y-67177025D02*
G01*
X198508737Y-67186782D01*
X198545625Y-67198767D01*
X198545721Y-67198816D01*
X198592392Y-67222595D01*
X198623778Y-67245397D01*
X198660892Y-67282509D01*
X198683695Y-67313893D01*
X198707523Y-67360653D01*
X198719513Y-67397547D01*
X198729220Y-67458814D01*
X198730747Y-67478232D01*
X198729493Y-77679134D01*
X198709800Y-77746171D01*
X198656991Y-77791920D01*
X198587831Y-77801855D01*
X198524279Y-77772822D01*
X198517812Y-77766800D01*
X198471794Y-77720782D01*
X198471790Y-77720779D01*
X198327455Y-77631751D01*
X198327449Y-77631748D01*
X198327447Y-77631747D01*
X198327444Y-77631746D01*
X198166459Y-77578401D01*
X198067102Y-77568250D01*
X198067095Y-77568250D01*
X197632031Y-77568250D01*
X197564992Y-77548565D01*
X197544350Y-77531931D01*
X196937542Y-76925123D01*
X196904057Y-76863800D01*
X196909041Y-76794108D01*
X196950913Y-76738175D01*
X196960120Y-76731907D01*
X197041906Y-76681462D01*
X197165962Y-76557406D01*
X197258064Y-76408084D01*
X197313249Y-76241547D01*
X197323750Y-76138759D01*
X197323749Y-74038742D01*
X197313249Y-73935953D01*
X197258064Y-73769416D01*
X197165962Y-73620094D01*
X197041906Y-73496038D01*
X196892584Y-73403936D01*
X196726047Y-73348751D01*
X196726045Y-73348750D01*
X196623260Y-73338250D01*
X194473248Y-73338250D01*
X194473231Y-73338251D01*
X194370453Y-73348750D01*
X194370450Y-73348751D01*
X194203918Y-73403935D01*
X194203913Y-73403937D01*
X194054592Y-73496039D01*
X193930539Y-73620092D01*
X193838437Y-73769413D01*
X193838436Y-73769416D01*
X193801489Y-73880914D01*
X193761716Y-73938358D01*
X193697200Y-73965181D01*
X193628424Y-73952866D01*
X193586785Y-73918528D01*
X193586682Y-73918620D01*
X193586122Y-73917981D01*
X193585401Y-73917387D01*
X193584005Y-73915567D01*
X193419436Y-73750998D01*
X193419429Y-73750992D01*
X193234790Y-73609314D01*
X193234788Y-73609312D01*
X193234782Y-73609308D01*
X193234777Y-73609305D01*
X193234774Y-73609303D01*
X193033226Y-73492938D01*
X193033210Y-73492930D01*
X192818197Y-73403870D01*
X192761604Y-73388706D01*
X192593376Y-73343629D01*
X192593375Y-73343628D01*
X192593372Y-73343628D01*
X192362632Y-73313251D01*
X192362627Y-73313250D01*
X192362622Y-73313250D01*
X192129878Y-73313250D01*
X192129872Y-73313250D01*
X192129867Y-73313251D01*
X191899127Y-73343628D01*
X191674302Y-73403870D01*
X191459289Y-73492930D01*
X191459273Y-73492938D01*
X191257725Y-73609303D01*
X191257709Y-73609314D01*
X191073070Y-73750992D01*
X191073063Y-73750998D01*
X190908498Y-73915563D01*
X190908492Y-73915570D01*
X190766814Y-74100209D01*
X190766803Y-74100225D01*
X190650438Y-74301773D01*
X190650430Y-74301789D01*
X190561370Y-74516802D01*
X190501128Y-74741627D01*
X190470751Y-74972367D01*
X190470750Y-74972384D01*
X190470750Y-75205115D01*
X190470751Y-75205132D01*
X190482902Y-75297432D01*
X190501129Y-75435876D01*
X190526751Y-75531500D01*
X190561370Y-75660697D01*
X190650430Y-75875710D01*
X190650438Y-75875726D01*
X190766803Y-76077274D01*
X190766814Y-76077290D01*
X190908492Y-76261929D01*
X190908498Y-76261936D01*
X191073063Y-76426501D01*
X191073070Y-76426507D01*
X191169390Y-76500416D01*
X191257718Y-76568192D01*
X191257725Y-76568196D01*
X191459273Y-76684561D01*
X191459289Y-76684569D01*
X191674302Y-76773629D01*
X191674304Y-76773629D01*
X191674310Y-76773632D01*
X191899124Y-76833871D01*
X192129878Y-76864250D01*
X192129885Y-76864250D01*
X192362615Y-76864250D01*
X192362622Y-76864250D01*
X192593376Y-76833871D01*
X192818190Y-76773632D01*
X192918934Y-76731903D01*
X193033210Y-76684569D01*
X193033213Y-76684567D01*
X193033219Y-76684565D01*
X193234782Y-76568192D01*
X193419431Y-76426506D01*
X193584006Y-76261931D01*
X193585401Y-76260113D01*
X193585956Y-76259707D01*
X193586682Y-76258880D01*
X193586867Y-76259042D01*
X193641825Y-76218905D01*
X193711571Y-76214745D01*
X193772494Y-76248952D01*
X193801489Y-76296586D01*
X193831389Y-76386819D01*
X193838436Y-76408083D01*
X193838437Y-76408086D01*
X193849799Y-76426506D01*
X193930538Y-76557406D01*
X194054594Y-76681462D01*
X194203916Y-76773564D01*
X194370453Y-76828749D01*
X194473241Y-76839250D01*
X195025468Y-76839249D01*
X195092507Y-76858933D01*
X195113149Y-76875568D01*
X196506931Y-78269350D01*
X196540416Y-78330673D01*
X196543250Y-78357031D01*
X196543250Y-78792087D01*
X196543251Y-78792105D01*
X196553400Y-78891457D01*
X196553401Y-78891460D01*
X196606746Y-79052444D01*
X196606751Y-79052455D01*
X196695779Y-79196790D01*
X196695782Y-79196794D01*
X196815705Y-79316717D01*
X196815709Y-79316720D01*
X196960044Y-79405748D01*
X196960047Y-79405749D01*
X196960053Y-79405753D01*
X197121042Y-79459099D01*
X197220405Y-79469250D01*
X198067094Y-79469249D01*
X198067102Y-79469248D01*
X198067105Y-79469248D01*
X198121510Y-79463690D01*
X198166458Y-79459099D01*
X198327447Y-79405753D01*
X198471794Y-79316718D01*
X198517606Y-79270905D01*
X198578927Y-79237421D01*
X198648618Y-79242405D01*
X198704552Y-79284276D01*
X198728970Y-79349740D01*
X198729286Y-79358602D01*
X198729087Y-80978728D01*
X198709394Y-81045765D01*
X198656585Y-81091514D01*
X198587425Y-81101449D01*
X198523873Y-81072416D01*
X198517406Y-81066394D01*
X198471794Y-81020782D01*
X198471790Y-81020779D01*
X198327455Y-80931751D01*
X198327449Y-80931748D01*
X198327447Y-80931747D01*
X198327444Y-80931746D01*
X198166459Y-80878401D01*
X198067096Y-80868250D01*
X197220412Y-80868250D01*
X197220394Y-80868251D01*
X197121042Y-80878400D01*
X197121039Y-80878401D01*
X196960055Y-80931746D01*
X196960044Y-80931751D01*
X196815709Y-81020779D01*
X196815703Y-81020783D01*
X196793691Y-81042795D01*
X196732367Y-81076278D01*
X196665059Y-81072153D01*
X196554257Y-81033382D01*
X196554249Y-81033380D01*
X196375004Y-81013185D01*
X196374996Y-81013185D01*
X196195750Y-81033380D01*
X196195745Y-81033381D01*
X196025476Y-81092961D01*
X195899300Y-81172244D01*
X195833328Y-81191250D01*
X195654809Y-81191250D01*
X195587770Y-81171565D01*
X195542015Y-81118761D01*
X195532071Y-81049603D01*
X195561096Y-80986047D01*
X195567128Y-80979569D01*
X195567969Y-80978728D01*
X195644733Y-80901964D01*
X195748864Y-80758640D01*
X195829292Y-80600792D01*
X195884036Y-80432305D01*
X195911750Y-80257329D01*
X195911750Y-80080171D01*
X195884036Y-79905195D01*
X195829292Y-79736708D01*
X195829292Y-79736707D01*
X195759890Y-79600500D01*
X195748864Y-79578860D01*
X195644733Y-79435536D01*
X195519464Y-79310267D01*
X195376140Y-79206136D01*
X195365075Y-79200498D01*
X195218292Y-79125707D01*
X195218289Y-79125706D01*
X195049806Y-79070964D01*
X194932895Y-79052447D01*
X194874829Y-79043250D01*
X194697671Y-79043250D01*
X194667871Y-79047970D01*
X194522693Y-79070964D01*
X194354210Y-79125706D01*
X194354207Y-79125707D01*
X194196359Y-79206136D01*
X194146440Y-79242405D01*
X194053036Y-79310267D01*
X194053034Y-79310269D01*
X194053033Y-79310269D01*
X193927769Y-79435533D01*
X193927769Y-79435534D01*
X193927767Y-79435536D01*
X193883046Y-79497088D01*
X193823636Y-79578859D01*
X193743207Y-79736707D01*
X193743206Y-79736710D01*
X193688464Y-79905193D01*
X193660750Y-80080171D01*
X193660750Y-80257328D01*
X193688464Y-80432306D01*
X193743206Y-80600789D01*
X193743207Y-80600792D01*
X193820269Y-80752032D01*
X193823636Y-80758640D01*
X193927767Y-80901964D01*
X193927769Y-80901966D01*
X194053034Y-81027231D01*
X194054089Y-81028132D01*
X194054378Y-81028575D01*
X194056481Y-81030678D01*
X194056039Y-81031119D01*
X194092284Y-81086638D01*
X194092786Y-81156505D01*
X194055434Y-81215553D01*
X194021017Y-81236985D01*
X194012299Y-81240596D01*
X194006322Y-81243072D01*
X194006321Y-81243072D01*
X193959019Y-81262665D01*
X193938081Y-81276656D01*
X193911750Y-81294250D01*
X193897965Y-81303460D01*
X193856239Y-81331340D01*
X193856238Y-81331341D01*
X193226400Y-81961181D01*
X193165077Y-81994666D01*
X193138719Y-81997500D01*
X191359551Y-81997500D01*
X191292512Y-81977815D01*
X191246757Y-81925011D01*
X191236813Y-81855853D01*
X191265838Y-81792297D01*
X191271870Y-81785819D01*
X191401891Y-81655797D01*
X191401896Y-81655792D01*
X191581488Y-81421744D01*
X191728993Y-81166257D01*
X191841889Y-80893702D01*
X191918243Y-80608743D01*
X191956750Y-80316256D01*
X191956750Y-80021244D01*
X191918243Y-79728757D01*
X191841889Y-79443798D01*
X191840865Y-79441327D01*
X191791291Y-79321643D01*
X191728993Y-79171243D01*
X191726178Y-79166368D01*
X191581488Y-78915756D01*
X191401897Y-78681709D01*
X191401891Y-78681702D01*
X191193297Y-78473108D01*
X191193290Y-78473102D01*
X190959243Y-78293511D01*
X190703760Y-78146008D01*
X190703750Y-78146004D01*
X190431211Y-78033114D01*
X190431204Y-78033112D01*
X190431202Y-78033111D01*
X190146243Y-77956757D01*
X190091288Y-77949522D01*
X189853763Y-77918250D01*
X189853756Y-77918250D01*
X189558744Y-77918250D01*
X189558736Y-77918250D01*
X189280335Y-77954903D01*
X189266257Y-77956757D01*
X189102632Y-78000600D01*
X188981298Y-78033111D01*
X188981288Y-78033114D01*
X188708749Y-78146004D01*
X188708739Y-78146008D01*
X188453256Y-78293511D01*
X188219209Y-78473102D01*
X188219202Y-78473108D01*
X188010608Y-78681702D01*
X188010602Y-78681709D01*
X187831011Y-78915756D01*
X187683508Y-79171239D01*
X187683504Y-79171249D01*
X187570614Y-79443788D01*
X187570611Y-79443798D01*
X187534422Y-79578860D01*
X187494258Y-79728754D01*
X187494256Y-79728765D01*
X187455750Y-80021236D01*
X187455750Y-80316263D01*
X187471028Y-80432305D01*
X187494257Y-80608743D01*
X187564785Y-80871959D01*
X187570611Y-80893701D01*
X187570614Y-80893711D01*
X187683504Y-81166250D01*
X187683508Y-81166260D01*
X187831011Y-81421743D01*
X188010602Y-81655790D01*
X188010608Y-81655797D01*
X188140630Y-81785819D01*
X188174115Y-81847142D01*
X188169131Y-81916834D01*
X188127259Y-81972767D01*
X188061795Y-81997184D01*
X188052949Y-81997500D01*
X181511281Y-81997500D01*
X181444242Y-81977815D01*
X181423600Y-81961181D01*
X180925011Y-81462591D01*
X180925007Y-81462588D01*
X180822239Y-81393920D01*
X180822226Y-81393913D01*
X180788785Y-81380062D01*
X180708035Y-81346614D01*
X180708027Y-81346612D01*
X180586807Y-81322500D01*
X180586803Y-81322500D01*
X179622966Y-81322500D01*
X179555927Y-81302815D01*
X179525701Y-81275412D01*
X179522968Y-81271956D01*
X179403044Y-81152032D01*
X179403040Y-81152029D01*
X179258705Y-81063001D01*
X179258699Y-81062998D01*
X179258697Y-81062997D01*
X179197731Y-81042795D01*
X179097709Y-81009651D01*
X178998346Y-80999500D01*
X178151662Y-80999500D01*
X178151644Y-80999501D01*
X178052292Y-81009650D01*
X178052289Y-81009651D01*
X177891305Y-81062996D01*
X177891294Y-81063001D01*
X177746959Y-81152029D01*
X177746955Y-81152032D01*
X177744057Y-81154931D01*
X177741578Y-81156284D01*
X177741293Y-81156510D01*
X177741254Y-81156461D01*
X177682734Y-81188416D01*
X177656376Y-81191250D01*
X177219444Y-81191250D01*
X177098220Y-81215363D01*
X177098210Y-81215366D01*
X176984023Y-81262663D01*
X176984010Y-81262670D01*
X176881242Y-81331338D01*
X176881238Y-81331341D01*
X176288432Y-81924147D01*
X176227109Y-81957632D01*
X176214637Y-81959686D01*
X176170745Y-81964632D01*
X176000478Y-82024210D01*
X175847737Y-82120184D01*
X175720184Y-82247737D01*
X175624210Y-82400478D01*
X175564630Y-82570750D01*
X175556898Y-82639383D01*
X175529832Y-82703797D01*
X175472237Y-82743352D01*
X175433678Y-82749500D01*
X175378083Y-82749500D01*
X175311044Y-82729815D01*
X175290402Y-82713181D01*
X174840492Y-82263269D01*
X174840485Y-82263263D01*
X174727312Y-82187644D01*
X174727309Y-82187642D01*
X174601561Y-82135556D01*
X174601550Y-82135553D01*
X174539812Y-82123273D01*
X174468060Y-82109000D01*
X174468058Y-82109000D01*
X172189811Y-82109000D01*
X172122772Y-82089315D01*
X172077017Y-82036511D01*
X172067073Y-81967353D01*
X172096098Y-81903797D01*
X172114324Y-81886625D01*
X172139438Y-81867353D01*
X172143292Y-81864396D01*
X172351896Y-81655792D01*
X172531488Y-81421744D01*
X172678993Y-81166257D01*
X172791889Y-80893702D01*
X172868243Y-80608743D01*
X172906750Y-80316256D01*
X172906750Y-80080171D01*
X174610750Y-80080171D01*
X174610750Y-80257328D01*
X174638464Y-80432306D01*
X174693206Y-80600789D01*
X174693207Y-80600792D01*
X174770269Y-80752032D01*
X174773636Y-80758640D01*
X174877767Y-80901964D01*
X175003036Y-81027233D01*
X175146360Y-81131364D01*
X175195702Y-81156505D01*
X175304207Y-81211792D01*
X175304210Y-81211793D01*
X175381745Y-81236985D01*
X175472695Y-81266536D01*
X175647671Y-81294250D01*
X175647672Y-81294250D01*
X175824828Y-81294250D01*
X175824829Y-81294250D01*
X175999805Y-81266536D01*
X176168292Y-81211792D01*
X176326140Y-81131364D01*
X176469464Y-81027233D01*
X176594733Y-80901964D01*
X176698864Y-80758640D01*
X176779292Y-80600792D01*
X176834036Y-80432305D01*
X176861750Y-80257329D01*
X176861750Y-80080171D01*
X176834036Y-79905195D01*
X176779292Y-79736708D01*
X176779292Y-79736707D01*
X176709890Y-79600500D01*
X176698864Y-79578860D01*
X176594733Y-79435536D01*
X176469464Y-79310267D01*
X176326140Y-79206136D01*
X176315075Y-79200498D01*
X176168292Y-79125707D01*
X176168289Y-79125706D01*
X175999806Y-79070964D01*
X175882895Y-79052447D01*
X175824829Y-79043250D01*
X175647671Y-79043250D01*
X175617871Y-79047970D01*
X175472693Y-79070964D01*
X175304210Y-79125706D01*
X175304207Y-79125707D01*
X175146359Y-79206136D01*
X175096440Y-79242405D01*
X175003036Y-79310267D01*
X175003034Y-79310269D01*
X175003033Y-79310269D01*
X174877769Y-79435533D01*
X174877769Y-79435534D01*
X174877767Y-79435536D01*
X174833046Y-79497088D01*
X174773636Y-79578859D01*
X174693207Y-79736707D01*
X174693206Y-79736710D01*
X174638464Y-79905193D01*
X174610750Y-80080171D01*
X172906750Y-80080171D01*
X172906750Y-80021244D01*
X172868243Y-79728757D01*
X172791889Y-79443798D01*
X172790865Y-79441327D01*
X172741291Y-79321643D01*
X172678993Y-79171243D01*
X172676178Y-79166368D01*
X172531488Y-78915756D01*
X172351897Y-78681709D01*
X172351891Y-78681702D01*
X172143297Y-78473108D01*
X172143290Y-78473102D01*
X171909243Y-78293511D01*
X171653760Y-78146008D01*
X171653750Y-78146004D01*
X171381211Y-78033114D01*
X171381204Y-78033112D01*
X171381202Y-78033111D01*
X171096243Y-77956757D01*
X171041288Y-77949522D01*
X170803763Y-77918250D01*
X170803756Y-77918250D01*
X170508744Y-77918250D01*
X170508736Y-77918250D01*
X170230335Y-77954903D01*
X170216257Y-77956757D01*
X170052632Y-78000600D01*
X169931298Y-78033111D01*
X169931288Y-78033114D01*
X169658749Y-78146004D01*
X169658739Y-78146008D01*
X169403256Y-78293511D01*
X169169209Y-78473102D01*
X169169202Y-78473108D01*
X168960608Y-78681702D01*
X168960602Y-78681709D01*
X168781011Y-78915756D01*
X168633508Y-79171239D01*
X168633504Y-79171249D01*
X168520614Y-79443788D01*
X168520611Y-79443798D01*
X168484422Y-79578860D01*
X168444258Y-79728754D01*
X168444256Y-79728765D01*
X168405750Y-80021236D01*
X168405750Y-80316263D01*
X168421028Y-80432305D01*
X168444257Y-80608743D01*
X168514785Y-80871959D01*
X168520611Y-80893701D01*
X168520614Y-80893711D01*
X168633504Y-81166250D01*
X168633508Y-81166260D01*
X168781011Y-81421743D01*
X168960602Y-81655790D01*
X168960608Y-81655797D01*
X169169202Y-81864391D01*
X169169212Y-81864399D01*
X169198176Y-81886625D01*
X169239378Y-81943053D01*
X169243533Y-82012799D01*
X169209320Y-82073719D01*
X169147603Y-82106471D01*
X169122689Y-82109000D01*
X168631940Y-82109000D01*
X168560188Y-82123273D01*
X168560187Y-82123273D01*
X168498450Y-82135553D01*
X168498438Y-82135556D01*
X168372695Y-82187640D01*
X168372682Y-82187647D01*
X168259514Y-82263264D01*
X168259510Y-82263267D01*
X167519519Y-83003257D01*
X167519518Y-83003258D01*
X167454874Y-83100007D01*
X167443891Y-83116443D01*
X167391805Y-83242190D01*
X167390035Y-83248027D01*
X167387956Y-83247396D01*
X167360107Y-83300630D01*
X167299390Y-83335202D01*
X167287063Y-83337463D01*
X167186194Y-83350741D01*
X167186187Y-83350743D01*
X167044487Y-83409437D01*
X166961756Y-83472918D01*
X166896587Y-83498111D01*
X166828142Y-83484072D01*
X166798590Y-83462222D01*
X166743657Y-83407289D01*
X166743656Y-83407288D01*
X166630451Y-83337463D01*
X166594336Y-83315187D01*
X166594331Y-83315185D01*
X166584532Y-83311938D01*
X166427797Y-83260001D01*
X166427795Y-83260000D01*
X166325010Y-83249500D01*
X165274998Y-83249500D01*
X165274980Y-83249501D01*
X165172203Y-83260000D01*
X165172200Y-83260001D01*
X165005668Y-83315185D01*
X165005663Y-83315187D01*
X164856342Y-83407289D01*
X164790951Y-83472681D01*
X164729628Y-83506166D01*
X164703270Y-83509000D01*
X164640613Y-83509000D01*
X164574641Y-83489994D01*
X164549523Y-83474211D01*
X164379254Y-83414631D01*
X164379250Y-83414630D01*
X164308866Y-83406700D01*
X164244452Y-83379633D01*
X164204897Y-83322038D01*
X164198750Y-83283480D01*
X164198750Y-79503249D01*
X164218435Y-79436210D01*
X164271239Y-79390455D01*
X164322750Y-79379249D01*
X164515298Y-79379249D01*
X164582337Y-79398934D01*
X164628092Y-79451738D01*
X164638036Y-79520896D01*
X164615615Y-79576136D01*
X164613636Y-79578858D01*
X164533207Y-79736707D01*
X164533206Y-79736710D01*
X164478464Y-79905193D01*
X164450750Y-80080171D01*
X164450750Y-80257328D01*
X164478464Y-80432306D01*
X164533206Y-80600789D01*
X164533207Y-80600792D01*
X164610269Y-80752032D01*
X164613636Y-80758640D01*
X164717767Y-80901964D01*
X164843036Y-81027233D01*
X164986360Y-81131364D01*
X165035702Y-81156505D01*
X165144207Y-81211792D01*
X165144210Y-81211793D01*
X165221745Y-81236985D01*
X165312695Y-81266536D01*
X165487671Y-81294250D01*
X165487672Y-81294250D01*
X165664828Y-81294250D01*
X165664829Y-81294250D01*
X165839805Y-81266536D01*
X166008292Y-81211792D01*
X166166140Y-81131364D01*
X166309464Y-81027233D01*
X166434733Y-80901964D01*
X166538864Y-80758640D01*
X166619292Y-80600792D01*
X166674036Y-80432305D01*
X166701750Y-80257329D01*
X166701750Y-80080171D01*
X166674036Y-79905195D01*
X166619292Y-79736708D01*
X166619290Y-79736702D01*
X166536763Y-79574737D01*
X166523866Y-79506067D01*
X166550142Y-79441327D01*
X166607248Y-79401069D01*
X166663431Y-79395502D01*
X166722814Y-79403320D01*
X166729862Y-79404248D01*
X166729878Y-79404250D01*
X166729885Y-79404250D01*
X166962615Y-79404250D01*
X166962622Y-79404250D01*
X167193376Y-79373871D01*
X167418190Y-79313632D01*
X167509313Y-79275888D01*
X167633210Y-79224569D01*
X167633213Y-79224567D01*
X167633219Y-79224565D01*
X167834782Y-79108192D01*
X168019431Y-78966506D01*
X168184006Y-78801931D01*
X168325692Y-78617282D01*
X168442065Y-78415719D01*
X168467691Y-78353853D01*
X168531129Y-78200697D01*
X168531128Y-78200697D01*
X168531132Y-78200690D01*
X168591371Y-77975876D01*
X168621750Y-77745122D01*
X168621750Y-77512378D01*
X168591371Y-77281624D01*
X168531132Y-77056810D01*
X168518108Y-77025366D01*
X168442069Y-76841789D01*
X168442061Y-76841773D01*
X168325696Y-76640225D01*
X168325692Y-76640218D01*
X168184006Y-76455569D01*
X168184001Y-76455563D01*
X168019436Y-76290998D01*
X168019429Y-76290992D01*
X167834790Y-76149314D01*
X167834788Y-76149312D01*
X167834782Y-76149308D01*
X167834777Y-76149305D01*
X167834774Y-76149303D01*
X167633226Y-76032938D01*
X167633210Y-76032930D01*
X167418197Y-75943870D01*
X167212487Y-75888750D01*
X167193376Y-75883629D01*
X167193375Y-75883628D01*
X167193372Y-75883628D01*
X166962632Y-75853251D01*
X166962627Y-75853250D01*
X166962622Y-75853250D01*
X166729878Y-75853250D01*
X166729872Y-75853250D01*
X166729867Y-75853251D01*
X166499127Y-75883628D01*
X166274302Y-75943870D01*
X166059289Y-76032930D01*
X166059273Y-76032938D01*
X165857725Y-76149303D01*
X165857709Y-76149314D01*
X165673071Y-76290991D01*
X165516198Y-76447864D01*
X165454875Y-76481348D01*
X165385183Y-76476364D01*
X165329250Y-76434492D01*
X165310811Y-76399187D01*
X165306713Y-76386819D01*
X165281064Y-76309416D01*
X165188962Y-76160094D01*
X165064906Y-76036038D01*
X164972138Y-75978819D01*
X164915586Y-75943937D01*
X164915581Y-75943935D01*
X164914112Y-75943448D01*
X164749047Y-75888751D01*
X164749045Y-75888750D01*
X164646266Y-75878250D01*
X164646259Y-75878250D01*
X163137500Y-75878250D01*
X163070461Y-75858565D01*
X163024706Y-75805761D01*
X163013500Y-75754250D01*
X163013500Y-75334313D01*
X163013499Y-75334298D01*
X163010598Y-75297432D01*
X163010597Y-75297426D01*
X162964745Y-75139606D01*
X162964744Y-75139603D01*
X162964744Y-75139602D01*
X162881081Y-74998135D01*
X162881079Y-74998133D01*
X162881076Y-74998129D01*
X162855331Y-74972384D01*
X171420750Y-74972384D01*
X171420750Y-75205115D01*
X171420751Y-75205132D01*
X171432902Y-75297432D01*
X171451129Y-75435876D01*
X171476751Y-75531500D01*
X171511370Y-75660697D01*
X171600430Y-75875710D01*
X171600438Y-75875726D01*
X171716803Y-76077274D01*
X171716814Y-76077290D01*
X171858492Y-76261929D01*
X171858498Y-76261936D01*
X172023063Y-76426501D01*
X172023070Y-76426507D01*
X172119390Y-76500416D01*
X172207718Y-76568192D01*
X172207725Y-76568196D01*
X172409273Y-76684561D01*
X172409289Y-76684569D01*
X172624302Y-76773629D01*
X172624304Y-76773629D01*
X172624310Y-76773632D01*
X172849124Y-76833871D01*
X173079878Y-76864250D01*
X173079885Y-76864250D01*
X173312615Y-76864250D01*
X173312622Y-76864250D01*
X173543376Y-76833871D01*
X173768190Y-76773632D01*
X173868934Y-76731903D01*
X173983210Y-76684569D01*
X173983213Y-76684567D01*
X173983219Y-76684565D01*
X174184782Y-76568192D01*
X174369431Y-76426506D01*
X174534006Y-76261931D01*
X174535401Y-76260113D01*
X174535956Y-76259707D01*
X174536682Y-76258880D01*
X174536867Y-76259042D01*
X174591825Y-76218905D01*
X174661571Y-76214745D01*
X174722494Y-76248952D01*
X174751489Y-76296586D01*
X174781389Y-76386819D01*
X174788436Y-76408083D01*
X174788437Y-76408086D01*
X174799799Y-76426506D01*
X174880538Y-76557406D01*
X175004594Y-76681462D01*
X175153916Y-76773564D01*
X175320453Y-76828749D01*
X175423241Y-76839250D01*
X175975468Y-76839249D01*
X176042507Y-76858933D01*
X176063149Y-76875568D01*
X177441152Y-78253571D01*
X177474637Y-78314894D01*
X177476829Y-78353853D01*
X177474500Y-78376643D01*
X177474500Y-78923337D01*
X177474501Y-78923355D01*
X177484650Y-79022707D01*
X177484651Y-79022710D01*
X177537996Y-79183694D01*
X177538001Y-79183705D01*
X177627029Y-79328040D01*
X177627032Y-79328044D01*
X177746955Y-79447967D01*
X177746959Y-79447970D01*
X177891294Y-79536998D01*
X177891297Y-79536999D01*
X177891303Y-79537003D01*
X178052292Y-79590349D01*
X178151655Y-79600500D01*
X178998344Y-79600499D01*
X178998352Y-79600498D01*
X178998355Y-79600498D01*
X179052760Y-79594940D01*
X179097708Y-79590349D01*
X179258697Y-79537003D01*
X179403044Y-79447968D01*
X179522968Y-79328044D01*
X179612003Y-79183697D01*
X179665349Y-79022708D01*
X179675500Y-78923345D01*
X179675499Y-78376656D01*
X179665349Y-78277292D01*
X179612003Y-78116303D01*
X179611999Y-78116297D01*
X179611998Y-78116294D01*
X179522970Y-77971959D01*
X179522967Y-77971955D01*
X179403044Y-77852032D01*
X179403040Y-77852029D01*
X179258705Y-77763001D01*
X179258699Y-77762998D01*
X179258697Y-77762997D01*
X179204784Y-77745132D01*
X179097709Y-77709651D01*
X178998352Y-77699500D01*
X178998345Y-77699500D01*
X178713281Y-77699500D01*
X178646242Y-77679815D01*
X178625600Y-77663181D01*
X178562415Y-77599996D01*
X179994435Y-77599996D01*
X179994435Y-77600003D01*
X180014630Y-77779249D01*
X180014631Y-77779254D01*
X180074211Y-77949523D01*
X180126735Y-78033114D01*
X180170184Y-78102262D01*
X180297738Y-78229816D01*
X180335544Y-78253571D01*
X180433138Y-78314894D01*
X180450478Y-78325789D01*
X180595813Y-78376644D01*
X180620745Y-78385368D01*
X180620750Y-78385369D01*
X180735633Y-78398313D01*
X180800047Y-78425379D01*
X180839602Y-78482974D01*
X180845750Y-78521532D01*
X180845750Y-78678750D01*
X180845751Y-78678769D01*
X180856250Y-78781546D01*
X180856251Y-78781549D01*
X180911435Y-78948081D01*
X180911437Y-78948086D01*
X180922799Y-78966506D01*
X181003538Y-79097406D01*
X181127594Y-79221462D01*
X181276916Y-79313564D01*
X181443453Y-79368749D01*
X181546241Y-79379250D01*
X183565297Y-79379249D01*
X183632336Y-79398934D01*
X183678091Y-79451737D01*
X183688035Y-79520896D01*
X183665621Y-79576126D01*
X183663638Y-79578854D01*
X183583207Y-79736707D01*
X183583206Y-79736710D01*
X183528464Y-79905193D01*
X183500750Y-80080171D01*
X183500750Y-80257328D01*
X183528464Y-80432306D01*
X183583206Y-80600789D01*
X183583207Y-80600792D01*
X183660269Y-80752032D01*
X183663636Y-80758640D01*
X183767767Y-80901964D01*
X183893036Y-81027233D01*
X184036360Y-81131364D01*
X184085702Y-81156505D01*
X184194207Y-81211792D01*
X184194210Y-81211793D01*
X184271745Y-81236985D01*
X184362695Y-81266536D01*
X184537671Y-81294250D01*
X184537672Y-81294250D01*
X184714828Y-81294250D01*
X184714829Y-81294250D01*
X184889805Y-81266536D01*
X185058292Y-81211792D01*
X185216140Y-81131364D01*
X185359464Y-81027233D01*
X185484733Y-80901964D01*
X185588864Y-80758640D01*
X185669292Y-80600792D01*
X185724036Y-80432305D01*
X185751750Y-80257329D01*
X185751750Y-80080171D01*
X185724036Y-79905195D01*
X185669292Y-79736708D01*
X185669290Y-79736702D01*
X185586763Y-79574737D01*
X185573866Y-79506067D01*
X185600142Y-79441327D01*
X185657248Y-79401069D01*
X185713431Y-79395502D01*
X185772814Y-79403320D01*
X185779862Y-79404248D01*
X185779878Y-79404250D01*
X185779885Y-79404250D01*
X186012615Y-79404250D01*
X186012622Y-79404250D01*
X186243376Y-79373871D01*
X186468190Y-79313632D01*
X186559313Y-79275888D01*
X186683210Y-79224569D01*
X186683213Y-79224567D01*
X186683219Y-79224565D01*
X186884782Y-79108192D01*
X187069431Y-78966506D01*
X187234006Y-78801931D01*
X187375692Y-78617282D01*
X187492065Y-78415719D01*
X187517691Y-78353853D01*
X187581129Y-78200697D01*
X187581128Y-78200697D01*
X187581132Y-78200690D01*
X187641371Y-77975876D01*
X187671750Y-77745122D01*
X187671750Y-77512378D01*
X187641371Y-77281624D01*
X187581132Y-77056810D01*
X187568108Y-77025366D01*
X187492069Y-76841789D01*
X187492061Y-76841773D01*
X187375696Y-76640225D01*
X187375692Y-76640218D01*
X187234006Y-76455569D01*
X187234001Y-76455563D01*
X187069436Y-76290998D01*
X187069429Y-76290992D01*
X186884790Y-76149314D01*
X186884788Y-76149312D01*
X186884782Y-76149308D01*
X186884777Y-76149305D01*
X186884774Y-76149303D01*
X186683226Y-76032938D01*
X186683210Y-76032930D01*
X186468197Y-75943870D01*
X186262487Y-75888750D01*
X186243376Y-75883629D01*
X186243375Y-75883628D01*
X186243372Y-75883628D01*
X186012632Y-75853251D01*
X186012627Y-75853250D01*
X186012622Y-75853250D01*
X185779878Y-75853250D01*
X185779872Y-75853250D01*
X185779867Y-75853251D01*
X185549127Y-75883628D01*
X185324302Y-75943870D01*
X185109289Y-76032930D01*
X185109273Y-76032938D01*
X184907725Y-76149303D01*
X184907709Y-76149314D01*
X184723071Y-76290991D01*
X184566198Y-76447864D01*
X184504875Y-76481348D01*
X184435183Y-76476364D01*
X184379250Y-76434492D01*
X184360811Y-76399187D01*
X184356713Y-76386819D01*
X184331064Y-76309416D01*
X184238962Y-76160094D01*
X184114906Y-76036038D01*
X184022138Y-75978819D01*
X183965586Y-75943937D01*
X183965581Y-75943935D01*
X183964112Y-75943448D01*
X183799047Y-75888751D01*
X183799045Y-75888750D01*
X183696260Y-75878250D01*
X181546248Y-75878250D01*
X181546231Y-75878251D01*
X181443453Y-75888750D01*
X181443450Y-75888751D01*
X181276918Y-75943935D01*
X181276913Y-75943937D01*
X181127592Y-76036039D01*
X181003539Y-76160092D01*
X180911437Y-76309413D01*
X180911436Y-76309416D01*
X180856251Y-76475953D01*
X180856251Y-76475954D01*
X180856250Y-76475954D01*
X180845750Y-76578733D01*
X180845750Y-76678466D01*
X180826065Y-76745505D01*
X180773261Y-76791260D01*
X180735634Y-76801686D01*
X180620749Y-76814630D01*
X180620745Y-76814631D01*
X180450476Y-76874211D01*
X180297737Y-76970184D01*
X180170184Y-77097737D01*
X180074211Y-77250476D01*
X180014631Y-77420745D01*
X180014630Y-77420750D01*
X179994435Y-77599996D01*
X178562415Y-77599996D01*
X177887542Y-76925123D01*
X177854057Y-76863800D01*
X177859041Y-76794108D01*
X177900913Y-76738175D01*
X177910120Y-76731907D01*
X177991906Y-76681462D01*
X178115962Y-76557406D01*
X178208064Y-76408084D01*
X178263249Y-76241547D01*
X178273750Y-76138759D01*
X178273749Y-74038742D01*
X178263249Y-73935953D01*
X178208064Y-73769416D01*
X178115962Y-73620094D01*
X177991906Y-73496038D01*
X177842584Y-73403936D01*
X177676047Y-73348751D01*
X177676045Y-73348750D01*
X177573260Y-73338250D01*
X175423248Y-73338250D01*
X175423231Y-73338251D01*
X175320453Y-73348750D01*
X175320450Y-73348751D01*
X175153918Y-73403935D01*
X175153913Y-73403937D01*
X175004592Y-73496039D01*
X174880539Y-73620092D01*
X174788437Y-73769413D01*
X174788436Y-73769416D01*
X174751489Y-73880914D01*
X174711716Y-73938358D01*
X174647200Y-73965181D01*
X174578424Y-73952866D01*
X174536785Y-73918528D01*
X174536682Y-73918620D01*
X174536122Y-73917981D01*
X174535401Y-73917387D01*
X174534005Y-73915567D01*
X174369436Y-73750998D01*
X174369429Y-73750992D01*
X174184790Y-73609314D01*
X174184788Y-73609312D01*
X174184782Y-73609308D01*
X174184777Y-73609305D01*
X174184774Y-73609303D01*
X173983226Y-73492938D01*
X173983210Y-73492930D01*
X173768197Y-73403870D01*
X173711604Y-73388706D01*
X173543376Y-73343629D01*
X173543375Y-73343628D01*
X173543372Y-73343628D01*
X173312632Y-73313251D01*
X173312627Y-73313250D01*
X173312622Y-73313250D01*
X173079878Y-73313250D01*
X173079872Y-73313250D01*
X173079867Y-73313251D01*
X172849127Y-73343628D01*
X172624302Y-73403870D01*
X172409289Y-73492930D01*
X172409273Y-73492938D01*
X172207725Y-73609303D01*
X172207709Y-73609314D01*
X172023070Y-73750992D01*
X172023063Y-73750998D01*
X171858498Y-73915563D01*
X171858492Y-73915570D01*
X171716814Y-74100209D01*
X171716803Y-74100225D01*
X171600438Y-74301773D01*
X171600430Y-74301789D01*
X171511370Y-74516802D01*
X171451128Y-74741627D01*
X171420751Y-74972367D01*
X171420750Y-74972384D01*
X162855331Y-74972384D01*
X162762952Y-74880005D01*
X162729467Y-74818682D01*
X162734451Y-74748990D01*
X162762952Y-74704643D01*
X162873252Y-74594342D01*
X162873256Y-74594337D01*
X162958052Y-74454065D01*
X163006820Y-74297562D01*
X163013000Y-74229556D01*
X163013000Y-74100000D01*
X162141500Y-74100000D01*
X162074461Y-74080315D01*
X162028706Y-74027511D01*
X162017500Y-73976000D01*
X162017500Y-73724000D01*
X162037185Y-73656961D01*
X162089989Y-73611206D01*
X162141500Y-73600000D01*
X163012999Y-73600000D01*
X163012999Y-73501500D01*
X163032684Y-73434461D01*
X163085488Y-73388706D01*
X163136999Y-73377500D01*
X164213585Y-73377500D01*
X164252589Y-73383794D01*
X164255664Y-73384813D01*
X164255666Y-73384814D01*
X164422203Y-73439999D01*
X164524991Y-73450500D01*
X165150008Y-73450499D01*
X165150016Y-73450498D01*
X165150019Y-73450498D01*
X165206302Y-73444748D01*
X165252797Y-73439999D01*
X165419334Y-73384814D01*
X165568656Y-73292712D01*
X165662675Y-73198692D01*
X165723994Y-73165210D01*
X165793686Y-73170194D01*
X165838034Y-73198695D01*
X165931654Y-73292315D01*
X166080875Y-73384356D01*
X166080880Y-73384358D01*
X166247302Y-73439505D01*
X166247309Y-73439506D01*
X166350019Y-73449999D01*
X166912500Y-73449999D01*
X166974972Y-73449999D01*
X166974986Y-73449998D01*
X167077697Y-73439505D01*
X167244119Y-73384358D01*
X167244124Y-73384356D01*
X167393345Y-73292315D01*
X167517315Y-73168345D01*
X167609356Y-73019124D01*
X167609358Y-73019119D01*
X167664505Y-72852697D01*
X167664506Y-72852690D01*
X167674999Y-72749986D01*
X167675000Y-72749973D01*
X167675000Y-72500000D01*
X166912500Y-72500000D01*
X166912500Y-73449999D01*
X166350019Y-73449999D01*
X166412499Y-73449998D01*
X166412500Y-73449998D01*
X166412500Y-72000000D01*
X166912500Y-72000000D01*
X167674999Y-72000000D01*
X167674999Y-71750028D01*
X167674998Y-71750013D01*
X167664505Y-71647302D01*
X167609358Y-71480880D01*
X167609356Y-71480875D01*
X167517315Y-71331654D01*
X167393345Y-71207684D01*
X167244124Y-71115643D01*
X167244119Y-71115641D01*
X167077697Y-71060494D01*
X167077690Y-71060493D01*
X166974986Y-71050000D01*
X166912500Y-71050000D01*
X166912500Y-72000000D01*
X166412500Y-72000000D01*
X166412500Y-71050000D01*
X166412499Y-71049999D01*
X166350028Y-71050000D01*
X166350011Y-71050001D01*
X166247302Y-71060494D01*
X166080880Y-71115641D01*
X166080875Y-71115643D01*
X165931657Y-71207682D01*
X165838034Y-71301305D01*
X165776710Y-71334789D01*
X165707019Y-71329805D01*
X165662672Y-71301304D01*
X165568657Y-71207289D01*
X165568656Y-71207288D01*
X165419334Y-71115186D01*
X165252797Y-71060001D01*
X165252794Y-71060000D01*
X165228367Y-71057505D01*
X165163675Y-71031108D01*
X165123524Y-70973927D01*
X165120661Y-70904116D01*
X165124788Y-70890813D01*
X165149847Y-70823626D01*
X165149848Y-70823622D01*
X165156249Y-70764094D01*
X165156250Y-70764077D01*
X165156250Y-70224000D01*
X165175935Y-70156961D01*
X165228739Y-70111206D01*
X165280250Y-70100000D01*
X165345669Y-70100000D01*
X165412708Y-70119685D01*
X165426872Y-70130288D01*
X165513744Y-70205564D01*
X165513745Y-70205565D01*
X165513748Y-70205567D01*
X165513750Y-70205568D01*
X165513752Y-70205569D01*
X165618390Y-70253357D01*
X165644625Y-70265338D01*
X165711664Y-70285023D01*
X165711668Y-70285024D01*
X165854084Y-70305500D01*
X165854087Y-70305500D01*
X167543651Y-70305500D01*
X167550735Y-70305301D01*
X167572001Y-70304704D01*
X167585885Y-70303924D01*
X167589571Y-70303613D01*
X167610429Y-70303613D01*
X167614115Y-70303924D01*
X167627999Y-70304704D01*
X167648791Y-70305287D01*
X167656349Y-70305500D01*
X167656353Y-70305500D01*
X167779214Y-70305500D01*
X167779215Y-70305500D01*
X167779216Y-70305499D01*
X167779231Y-70305499D01*
X167818891Y-70301419D01*
X167882095Y-70294920D01*
X167931510Y-70284648D01*
X168030071Y-70253357D01*
X168152531Y-70177824D01*
X168206173Y-70133055D01*
X168206177Y-70133051D01*
X168206180Y-70133046D01*
X168206823Y-70132461D01*
X168206971Y-70132388D01*
X168208314Y-70131268D01*
X168208589Y-70131597D01*
X168269592Y-70101770D01*
X168290469Y-70100000D01*
X169850000Y-70100000D01*
X169850000Y-69847523D01*
X169869685Y-69780484D01*
X169922489Y-69734729D01*
X169991647Y-69724785D01*
X170055203Y-69753810D01*
X170061681Y-69759842D01*
X170094154Y-69792315D01*
X170243375Y-69884356D01*
X170243380Y-69884358D01*
X170409802Y-69939505D01*
X170409809Y-69939506D01*
X170512519Y-69949999D01*
X170637499Y-69949999D01*
X171137500Y-69949999D01*
X171262472Y-69949999D01*
X171262486Y-69949998D01*
X171365197Y-69939505D01*
X171531619Y-69884358D01*
X171531624Y-69884356D01*
X171680845Y-69792315D01*
X171804815Y-69668345D01*
X171896856Y-69519124D01*
X171896858Y-69519119D01*
X171952005Y-69352697D01*
X171952006Y-69352690D01*
X171962499Y-69249986D01*
X171962500Y-69249973D01*
X171962500Y-69000000D01*
X171137500Y-69000000D01*
X171137500Y-69949999D01*
X170637499Y-69949999D01*
X170637500Y-69949998D01*
X170637500Y-68500000D01*
X171137500Y-68500000D01*
X171962499Y-68500000D01*
X171962499Y-68250028D01*
X171962498Y-68250013D01*
X171952005Y-68147302D01*
X171896858Y-67980880D01*
X171896856Y-67980875D01*
X171804815Y-67831654D01*
X171680845Y-67707684D01*
X171531624Y-67615643D01*
X171531619Y-67615641D01*
X171365197Y-67560494D01*
X171365190Y-67560493D01*
X171262486Y-67550000D01*
X171137500Y-67550000D01*
X171137500Y-68500000D01*
X170637500Y-68500000D01*
X170637500Y-67550000D01*
X170512527Y-67550000D01*
X170512512Y-67550001D01*
X170409802Y-67560494D01*
X170243380Y-67615641D01*
X170243371Y-67615646D01*
X170181767Y-67653643D01*
X170114374Y-67672083D01*
X170047711Y-67651160D01*
X170002942Y-67597517D01*
X169993933Y-67530459D01*
X170005500Y-67450012D01*
X170005500Y-67299500D01*
X170025185Y-67232461D01*
X170077989Y-67186706D01*
X170129500Y-67175500D01*
X198371608Y-67175500D01*
X198427744Y-67175500D01*
X198447130Y-67177025D01*
G37*
G04 #@! TD.AperFunction*
G04 #@! TA.AperFunction,Conductor*
G36*
X159483860Y-74241545D02*
G01*
X159492271Y-74249218D01*
X159561129Y-74318076D01*
X159561133Y-74318079D01*
X159561135Y-74318081D01*
X159702602Y-74401744D01*
X159744224Y-74413836D01*
X159860426Y-74447597D01*
X159860429Y-74447597D01*
X159860431Y-74447598D01*
X159897306Y-74450500D01*
X160113903Y-74450500D01*
X160180942Y-74470185D01*
X160226697Y-74522989D01*
X160236641Y-74592147D01*
X160207616Y-74655703D01*
X160201584Y-74662181D01*
X160150584Y-74713181D01*
X160089261Y-74746666D01*
X160062903Y-74749500D01*
X159897298Y-74749500D01*
X159860432Y-74752401D01*
X159860426Y-74752402D01*
X159702606Y-74798254D01*
X159702603Y-74798255D01*
X159561137Y-74881917D01*
X159561129Y-74881923D01*
X159439402Y-75003651D01*
X159438246Y-75002495D01*
X159389078Y-75038000D01*
X159319311Y-75041785D01*
X159258573Y-75007250D01*
X159226147Y-74945360D01*
X159223749Y-74921090D01*
X159223749Y-74357781D01*
X159243434Y-74290742D01*
X159296238Y-74244987D01*
X159306792Y-74240740D01*
X159349522Y-74225789D01*
X159349531Y-74225783D01*
X159350783Y-74225181D01*
X159351684Y-74225032D01*
X159356096Y-74223489D01*
X159356366Y-74224261D01*
X159419724Y-74213826D01*
X159483860Y-74241545D01*
G37*
G04 #@! TD.AperFunction*
G04 #@! TA.AperFunction,Conductor*
G36*
X165138390Y-62432685D02*
G01*
X165184145Y-62485489D01*
X165194089Y-62554647D01*
X165165064Y-62618203D01*
X165118803Y-62651561D01*
X164977578Y-62710057D01*
X164977565Y-62710064D01*
X164813787Y-62819498D01*
X164813783Y-62819501D01*
X164674501Y-62958783D01*
X164674498Y-62958787D01*
X164565064Y-63122565D01*
X164565057Y-63122578D01*
X164489680Y-63304556D01*
X164489677Y-63304568D01*
X164451250Y-63497754D01*
X164451250Y-63646250D01*
X165151250Y-63646250D01*
X165151250Y-64146250D01*
X164451250Y-64146250D01*
X164451250Y-64294745D01*
X164489677Y-64487931D01*
X164489680Y-64487943D01*
X164565057Y-64669921D01*
X164565064Y-64669934D01*
X164674498Y-64833712D01*
X164674501Y-64833716D01*
X164813783Y-64972998D01*
X164813787Y-64973001D01*
X164977565Y-65082435D01*
X164977578Y-65082442D01*
X165159558Y-65157819D01*
X165201250Y-65166112D01*
X165201250Y-64363238D01*
X165211190Y-64380455D01*
X165267045Y-64436310D01*
X165335454Y-64475806D01*
X165411754Y-64496250D01*
X165490746Y-64496250D01*
X165567046Y-64475806D01*
X165635455Y-64436310D01*
X165691310Y-64380455D01*
X165701250Y-64363238D01*
X165701250Y-65166112D01*
X165742940Y-65157819D01*
X165742942Y-65157819D01*
X165924921Y-65082442D01*
X165924934Y-65082435D01*
X165994109Y-65036214D01*
X166060786Y-65015336D01*
X166128166Y-65033820D01*
X166174857Y-65085799D01*
X166187000Y-65139316D01*
X166187000Y-65807274D01*
X166186996Y-65807336D01*
X166187000Y-65881219D01*
X166187000Y-65953648D01*
X166187003Y-65953713D01*
X166187005Y-65983137D01*
X166187005Y-65983138D01*
X166218882Y-66184330D01*
X166218883Y-66184335D01*
X166281841Y-66378076D01*
X166374329Y-66559584D01*
X166494068Y-66724386D01*
X166638113Y-66868431D01*
X166778939Y-66970750D01*
X166802918Y-66988172D01*
X166984424Y-67080659D01*
X167178162Y-67143616D01*
X167293536Y-67161895D01*
X167379361Y-67175494D01*
X167379370Y-67175494D01*
X167407245Y-67175495D01*
X167407306Y-67175500D01*
X167415358Y-67175500D01*
X167481217Y-67175500D01*
X167481220Y-67175500D01*
X167547111Y-67175504D01*
X167547115Y-67175502D01*
X167555163Y-67175503D01*
X167555226Y-67175500D01*
X169376000Y-67175500D01*
X169443039Y-67195185D01*
X169488794Y-67247989D01*
X169500000Y-67299500D01*
X169500000Y-67450012D01*
X169480315Y-67517051D01*
X169427511Y-67562806D01*
X169358353Y-67572750D01*
X169336997Y-67567718D01*
X169315200Y-67560495D01*
X169315190Y-67560493D01*
X169212486Y-67550000D01*
X169087500Y-67550000D01*
X169087500Y-68876000D01*
X169067815Y-68943039D01*
X169015011Y-68988794D01*
X168963500Y-69000000D01*
X167762501Y-69000000D01*
X167762501Y-69249986D01*
X167772994Y-69352697D01*
X167828141Y-69519119D01*
X167828146Y-69519130D01*
X167884753Y-69610903D01*
X167903194Y-69678295D01*
X167882272Y-69744959D01*
X167828630Y-69789728D01*
X167779215Y-69800000D01*
X167656353Y-69800000D01*
X167642469Y-69799220D01*
X167600002Y-69794435D01*
X167599998Y-69794435D01*
X167557531Y-69799220D01*
X167543647Y-69800000D01*
X165854084Y-69800000D01*
X165787045Y-69780315D01*
X165741290Y-69727511D01*
X165731346Y-69658353D01*
X165760371Y-69594797D01*
X165806632Y-69561439D01*
X165924921Y-69512442D01*
X165924934Y-69512435D01*
X166088712Y-69403001D01*
X166088716Y-69402998D01*
X166227998Y-69263716D01*
X166228001Y-69263712D01*
X166337435Y-69099934D01*
X166337442Y-69099921D01*
X166412819Y-68917943D01*
X166412822Y-68917931D01*
X166451249Y-68724745D01*
X166451250Y-68724742D01*
X166451250Y-68326250D01*
X165751250Y-68326250D01*
X165751250Y-68250013D01*
X167762500Y-68250013D01*
X167762500Y-68500000D01*
X168587500Y-68500000D01*
X168587500Y-67550000D01*
X168462527Y-67550000D01*
X168462512Y-67550001D01*
X168359802Y-67560494D01*
X168193380Y-67615641D01*
X168193375Y-67615643D01*
X168044154Y-67707684D01*
X167920184Y-67831654D01*
X167828143Y-67980875D01*
X167828141Y-67980880D01*
X167772994Y-68147302D01*
X167772993Y-68147309D01*
X167762500Y-68250013D01*
X165751250Y-68250013D01*
X165751250Y-67826250D01*
X166451250Y-67826250D01*
X166451250Y-67427758D01*
X166451249Y-67427754D01*
X166412822Y-67234568D01*
X166412819Y-67234556D01*
X166337442Y-67052578D01*
X166337435Y-67052565D01*
X166228001Y-66888787D01*
X166227998Y-66888783D01*
X166088716Y-66749501D01*
X166088712Y-66749498D01*
X165924934Y-66640064D01*
X165924921Y-66640057D01*
X165742941Y-66564679D01*
X165742933Y-66564677D01*
X165701250Y-66556385D01*
X165701250Y-67359261D01*
X165691310Y-67342045D01*
X165635455Y-67286190D01*
X165567046Y-67246694D01*
X165490746Y-67226250D01*
X165411754Y-67226250D01*
X165335454Y-67246694D01*
X165267045Y-67286190D01*
X165211190Y-67342045D01*
X165201250Y-67359261D01*
X165201250Y-66556386D01*
X165201249Y-66556385D01*
X165159566Y-66564677D01*
X165159558Y-66564679D01*
X164977578Y-66640057D01*
X164977565Y-66640064D01*
X164813787Y-66749498D01*
X164813783Y-66749501D01*
X164674498Y-66888786D01*
X164561677Y-67057637D01*
X164560253Y-67056685D01*
X164516992Y-67100701D01*
X164448850Y-67116142D01*
X164383177Y-67092291D01*
X164381157Y-67090556D01*
X164381061Y-67090682D01*
X164374617Y-67085737D01*
X164374615Y-67085735D01*
X164309000Y-67047852D01*
X164243386Y-67009969D01*
X164162163Y-66988206D01*
X164097016Y-66970750D01*
X163945484Y-66970750D01*
X163799113Y-67009969D01*
X163667885Y-67085735D01*
X163667882Y-67085737D01*
X163560737Y-67192882D01*
X163560735Y-67192885D01*
X163484969Y-67324113D01*
X163445750Y-67470484D01*
X163445750Y-67622018D01*
X163446217Y-67625566D01*
X163445750Y-67628560D01*
X163445750Y-67630143D01*
X163445503Y-67630143D01*
X163435451Y-67694601D01*
X163389071Y-67746856D01*
X163323279Y-67765750D01*
X163233380Y-67765750D01*
X163233370Y-67765751D01*
X163169498Y-67772617D01*
X163142992Y-67772617D01*
X163138733Y-67772159D01*
X163079123Y-67765750D01*
X163079114Y-67765750D01*
X162683380Y-67765750D01*
X162683369Y-67765751D01*
X162644503Y-67769929D01*
X162617998Y-67769929D01*
X162579125Y-67765750D01*
X162579123Y-67765750D01*
X162392348Y-67765750D01*
X162325309Y-67746065D01*
X162304667Y-67729431D01*
X161912717Y-67337481D01*
X161912716Y-67337480D01*
X161825904Y-67287360D01*
X161825904Y-67287359D01*
X161825900Y-67287358D01*
X161775785Y-67258423D01*
X161623057Y-67217499D01*
X161464943Y-67217499D01*
X161457347Y-67217499D01*
X161457331Y-67217500D01*
X161249670Y-67217500D01*
X161249654Y-67217499D01*
X161242058Y-67217499D01*
X161083943Y-67217499D01*
X161020287Y-67234556D01*
X160931214Y-67258423D01*
X160931209Y-67258426D01*
X160794290Y-67337475D01*
X160794282Y-67337481D01*
X160512534Y-67619230D01*
X160512533Y-67619231D01*
X160402330Y-67729432D01*
X160341007Y-67762916D01*
X160314651Y-67765750D01*
X160183381Y-67765750D01*
X160183368Y-67765751D01*
X160144503Y-67769929D01*
X160117998Y-67769929D01*
X160079124Y-67765750D01*
X159683380Y-67765750D01*
X159683369Y-67765751D01*
X159644503Y-67769929D01*
X159617998Y-67769929D01*
X159579124Y-67765750D01*
X159183379Y-67765750D01*
X159183370Y-67765751D01*
X159119498Y-67772617D01*
X159092992Y-67772617D01*
X159088733Y-67772159D01*
X159029123Y-67765750D01*
X159029117Y-67765750D01*
X158939222Y-67765750D01*
X158872183Y-67746065D01*
X158826428Y-67693261D01*
X158816969Y-67630144D01*
X158816750Y-67630144D01*
X158816750Y-67628680D01*
X158816283Y-67625564D01*
X158816750Y-67622016D01*
X158816750Y-67470486D01*
X158816750Y-67470484D01*
X158777531Y-67324115D01*
X158701765Y-67192885D01*
X158594615Y-67085735D01*
X158529000Y-67047852D01*
X158463386Y-67009969D01*
X158382163Y-66988206D01*
X158317016Y-66970750D01*
X158165484Y-66970750D01*
X158019113Y-67009969D01*
X157887885Y-67085735D01*
X157881439Y-67090682D01*
X157879349Y-67087959D01*
X157831467Y-67113716D01*
X157761808Y-67108293D01*
X157706138Y-67066071D01*
X157700549Y-67057226D01*
X157588001Y-66888787D01*
X157587998Y-66888783D01*
X157448716Y-66749501D01*
X157448712Y-66749498D01*
X157284934Y-66640064D01*
X157284921Y-66640057D01*
X157102941Y-66564679D01*
X157102933Y-66564677D01*
X157061250Y-66556385D01*
X157061250Y-67359261D01*
X157051310Y-67342045D01*
X156995455Y-67286190D01*
X156927046Y-67246694D01*
X156850746Y-67226250D01*
X156771754Y-67226250D01*
X156695454Y-67246694D01*
X156627045Y-67286190D01*
X156571190Y-67342045D01*
X156561250Y-67359261D01*
X156561250Y-66556386D01*
X156561249Y-66556385D01*
X156519566Y-66564677D01*
X156519558Y-66564679D01*
X156337578Y-66640057D01*
X156337565Y-66640064D01*
X156173787Y-66749498D01*
X156173783Y-66749501D01*
X156034501Y-66888783D01*
X156034498Y-66888787D01*
X155925064Y-67052565D01*
X155925057Y-67052578D01*
X155849680Y-67234556D01*
X155849677Y-67234568D01*
X155811250Y-67427754D01*
X155811250Y-67826250D01*
X156511250Y-67826250D01*
X156511250Y-68326250D01*
X155811250Y-68326250D01*
X155811250Y-68724745D01*
X155849677Y-68917931D01*
X155849680Y-68917943D01*
X155925057Y-69099921D01*
X155925064Y-69099934D01*
X156034498Y-69263712D01*
X156034501Y-69263716D01*
X156173783Y-69402998D01*
X156173787Y-69403001D01*
X156337565Y-69512435D01*
X156337578Y-69512442D01*
X156455868Y-69561439D01*
X156510272Y-69605280D01*
X156532337Y-69671574D01*
X156515058Y-69739273D01*
X156463921Y-69786884D01*
X156408416Y-69800000D01*
X154256353Y-69800000D01*
X154242469Y-69799220D01*
X154200002Y-69794435D01*
X154199998Y-69794435D01*
X154157531Y-69799220D01*
X154143647Y-69800000D01*
X152524000Y-69800000D01*
X152456961Y-69780315D01*
X152411206Y-69727511D01*
X152400000Y-69676000D01*
X152400000Y-67299500D01*
X152419685Y-67232461D01*
X152472489Y-67186706D01*
X152524000Y-67175500D01*
X154781218Y-67175500D01*
X154883082Y-67175506D01*
X155084304Y-67143646D01*
X155278063Y-67080698D01*
X155459588Y-66988212D01*
X155624409Y-66868466D01*
X155624411Y-66868464D01*
X155624414Y-66868462D01*
X155768462Y-66724414D01*
X155768464Y-66724411D01*
X155768466Y-66724409D01*
X155888212Y-66559588D01*
X155980698Y-66378063D01*
X156043646Y-66184304D01*
X156075506Y-65983082D01*
X156075500Y-65881218D01*
X156075500Y-65139316D01*
X156095185Y-65072277D01*
X156147989Y-65026522D01*
X156217147Y-65016578D01*
X156268391Y-65036214D01*
X156337565Y-65082435D01*
X156337578Y-65082442D01*
X156519558Y-65157819D01*
X156561250Y-65166112D01*
X156561250Y-64363238D01*
X156571190Y-64380455D01*
X156627045Y-64436310D01*
X156695454Y-64475806D01*
X156771754Y-64496250D01*
X156850746Y-64496250D01*
X156927046Y-64475806D01*
X156995455Y-64436310D01*
X157051310Y-64380455D01*
X157061250Y-64363238D01*
X157061250Y-65166112D01*
X157102940Y-65157819D01*
X157102942Y-65157819D01*
X157284921Y-65082442D01*
X157284934Y-65082435D01*
X157448712Y-64973001D01*
X157448716Y-64972998D01*
X157587998Y-64833716D01*
X157588001Y-64833712D01*
X157697435Y-64669934D01*
X157697442Y-64669921D01*
X157772819Y-64487943D01*
X157772822Y-64487931D01*
X157811249Y-64294745D01*
X157811250Y-64294742D01*
X157811250Y-64146250D01*
X157111250Y-64146250D01*
X157111250Y-63646250D01*
X157811250Y-63646250D01*
X157811250Y-63497758D01*
X157811249Y-63497754D01*
X157772822Y-63304568D01*
X157772819Y-63304556D01*
X157697442Y-63122578D01*
X157697435Y-63122565D01*
X157588001Y-62958787D01*
X157587998Y-62958783D01*
X157448716Y-62819501D01*
X157448712Y-62819498D01*
X157284934Y-62710064D01*
X157284921Y-62710057D01*
X157143697Y-62651561D01*
X157089293Y-62607720D01*
X157067228Y-62541426D01*
X157084507Y-62473727D01*
X157135644Y-62426116D01*
X157191149Y-62413000D01*
X165071351Y-62413000D01*
X165138390Y-62432685D01*
G37*
G04 #@! TD.AperFunction*
G04 #@! TA.AperFunction,Conductor*
G36*
X168808070Y-106019158D02*
G01*
X168815502Y-106023851D01*
X168900289Y-106077399D01*
X169069763Y-106145343D01*
X169248736Y-106181490D01*
X169431287Y-106184644D01*
X169431290Y-106184644D01*
X169431290Y-106184643D01*
X169431296Y-106184644D01*
X169611411Y-106154703D01*
X169783131Y-106092654D01*
X169797533Y-106084263D01*
X169798859Y-106083602D01*
X169805134Y-106079935D01*
X169805137Y-106079935D01*
X169832948Y-106063686D01*
X169832950Y-106063685D01*
X169895504Y-106046750D01*
X169927692Y-106046750D01*
X171384808Y-106046750D01*
X171416998Y-106046750D01*
X171479554Y-106063686D01*
X171507363Y-106079934D01*
X171507364Y-106079934D01*
X171513414Y-106083469D01*
X171515186Y-106084353D01*
X171529382Y-106092624D01*
X171529385Y-106092625D01*
X171701100Y-106154671D01*
X171881209Y-106184611D01*
X171881214Y-106184610D01*
X171881215Y-106184611D01*
X172002911Y-106182508D01*
X172063762Y-106181457D01*
X172242729Y-106145311D01*
X172412198Y-106077369D01*
X172460680Y-106046750D01*
X172504368Y-106019159D01*
X172570582Y-106000000D01*
X179126000Y-106000000D01*
X179193039Y-106019685D01*
X179238794Y-106072489D01*
X179250000Y-106124000D01*
X179250000Y-114260000D01*
X179230315Y-114327039D01*
X179177511Y-114372794D01*
X179126000Y-114384000D01*
X173271730Y-114384000D01*
X173204691Y-114364315D01*
X173184049Y-114347681D01*
X173068657Y-114232289D01*
X173068656Y-114232288D01*
X173065342Y-114230243D01*
X173063546Y-114228248D01*
X173062989Y-114227807D01*
X173063064Y-114227711D01*
X173018618Y-114178297D01*
X173007397Y-114109334D01*
X173035240Y-114045252D01*
X173065348Y-114019165D01*
X173068342Y-114017318D01*
X173192315Y-113893345D01*
X173284356Y-113744124D01*
X173284358Y-113744119D01*
X173339505Y-113577697D01*
X173339506Y-113577690D01*
X173349999Y-113474986D01*
X173350000Y-113474973D01*
X173350000Y-113425000D01*
X170933362Y-113425000D01*
X170866323Y-113405315D01*
X170859727Y-113400000D01*
X169799000Y-113400000D01*
X169731961Y-113380315D01*
X169686206Y-113327511D01*
X169675000Y-113276000D01*
X169675000Y-113024000D01*
X169694685Y-112956961D01*
X169747489Y-112911206D01*
X169799000Y-112900000D01*
X171116638Y-112900000D01*
X171183677Y-112919685D01*
X171190273Y-112925000D01*
X173349999Y-112925000D01*
X173349999Y-112875028D01*
X173349998Y-112875013D01*
X173339505Y-112772302D01*
X173284358Y-112605880D01*
X173284356Y-112605875D01*
X173192315Y-112456654D01*
X173068344Y-112332683D01*
X173062677Y-112328202D01*
X173063899Y-112326655D01*
X173023815Y-112282086D01*
X173012596Y-112213123D01*
X173040442Y-112149042D01*
X173098513Y-112110188D01*
X173128786Y-112105549D01*
X173128742Y-112105097D01*
X173134797Y-112104500D01*
X173134803Y-112104500D01*
X173256035Y-112080386D01*
X173336784Y-112046937D01*
X173370233Y-112033083D01*
X173473008Y-111964411D01*
X173560411Y-111877008D01*
X173750600Y-111686817D01*
X173811923Y-111653333D01*
X173838281Y-111650499D01*
X175397871Y-111650499D01*
X175397872Y-111650499D01*
X175457483Y-111644091D01*
X175592331Y-111593796D01*
X175707546Y-111507546D01*
X175793796Y-111392331D01*
X175844091Y-111257483D01*
X175850500Y-111197873D01*
X175850499Y-111163400D01*
X175870182Y-111096363D01*
X175922985Y-111050607D01*
X175992143Y-111040662D01*
X176013488Y-111045690D01*
X176147203Y-111089999D01*
X176249991Y-111100500D01*
X177300008Y-111100499D01*
X177300016Y-111100498D01*
X177300019Y-111100498D01*
X177356302Y-111094748D01*
X177402797Y-111089999D01*
X177569334Y-111034814D01*
X177718656Y-110942712D01*
X177842712Y-110818656D01*
X177934814Y-110669334D01*
X177989999Y-110502797D01*
X178000500Y-110400009D01*
X178000499Y-109799992D01*
X177997342Y-109769091D01*
X177989999Y-109697203D01*
X177989998Y-109697200D01*
X177934814Y-109530666D01*
X177842712Y-109381344D01*
X177718656Y-109257288D01*
X177715342Y-109255243D01*
X177713546Y-109253248D01*
X177712989Y-109252807D01*
X177713064Y-109252711D01*
X177668618Y-109203297D01*
X177657397Y-109134334D01*
X177685240Y-109070252D01*
X177715348Y-109044165D01*
X177718342Y-109042318D01*
X177842315Y-108918345D01*
X177934356Y-108769124D01*
X177934358Y-108769119D01*
X177989505Y-108602697D01*
X177989506Y-108602690D01*
X177999999Y-108499986D01*
X178000000Y-108499973D01*
X178000000Y-108450000D01*
X176649000Y-108450000D01*
X176581961Y-108430315D01*
X176536206Y-108377511D01*
X176525000Y-108326000D01*
X176525000Y-107950000D01*
X177025000Y-107950000D01*
X177999999Y-107950000D01*
X177999999Y-107900028D01*
X177999998Y-107900013D01*
X177989505Y-107797302D01*
X177934358Y-107630880D01*
X177934356Y-107630875D01*
X177842315Y-107481654D01*
X177718345Y-107357684D01*
X177569124Y-107265643D01*
X177569119Y-107265641D01*
X177402697Y-107210494D01*
X177402690Y-107210493D01*
X177299986Y-107200000D01*
X177025000Y-107200000D01*
X177025000Y-107950000D01*
X176525000Y-107950000D01*
X176525000Y-107200000D01*
X176250029Y-107200000D01*
X176250012Y-107200001D01*
X176147302Y-107210494D01*
X176013004Y-107254996D01*
X175943175Y-107257398D01*
X175883134Y-107221666D01*
X175851941Y-107159145D01*
X175850000Y-107137290D01*
X175850000Y-107002172D01*
X175849999Y-107002155D01*
X175843598Y-106942627D01*
X175843596Y-106942620D01*
X175793354Y-106807913D01*
X175793350Y-106807906D01*
X175707190Y-106692812D01*
X175707187Y-106692809D01*
X175592093Y-106606649D01*
X175592086Y-106606645D01*
X175457379Y-106556403D01*
X175457372Y-106556401D01*
X175397844Y-106550000D01*
X174550000Y-106550000D01*
X174550000Y-108076000D01*
X174530315Y-108143039D01*
X174477511Y-108188794D01*
X174426000Y-108200000D01*
X174174000Y-108200000D01*
X174106961Y-108180315D01*
X174061206Y-108127511D01*
X174050000Y-108076000D01*
X174050000Y-106550000D01*
X173202155Y-106550000D01*
X173142627Y-106556401D01*
X173142620Y-106556403D01*
X173007913Y-106606645D01*
X173007910Y-106606647D01*
X172924727Y-106668918D01*
X172859262Y-106693335D01*
X172790989Y-106678483D01*
X172776106Y-106668918D01*
X172692331Y-106606204D01*
X172692328Y-106606202D01*
X172557482Y-106555908D01*
X172557483Y-106555908D01*
X172497883Y-106549501D01*
X172497881Y-106549500D01*
X172497873Y-106549500D01*
X172497864Y-106549500D01*
X170302129Y-106549500D01*
X170302123Y-106549501D01*
X170242516Y-106555908D01*
X170107671Y-106606202D01*
X170107664Y-106606206D01*
X169992455Y-106692452D01*
X169992452Y-106692455D01*
X169906206Y-106807664D01*
X169906202Y-106807671D01*
X169855908Y-106942517D01*
X169849501Y-107002116D01*
X169849500Y-107002135D01*
X169849500Y-107086746D01*
X169829815Y-107153785D01*
X169777011Y-107199540D01*
X169707853Y-107209484D01*
X169686497Y-107204452D01*
X169627799Y-107185001D01*
X169627795Y-107185000D01*
X169525010Y-107174500D01*
X168474998Y-107174500D01*
X168474980Y-107174501D01*
X168372203Y-107185000D01*
X168372200Y-107185001D01*
X168205668Y-107240185D01*
X168205663Y-107240187D01*
X168056342Y-107332289D01*
X167932287Y-107456344D01*
X167896975Y-107513596D01*
X167845027Y-107560321D01*
X167791436Y-107572500D01*
X166374000Y-107572500D01*
X166306961Y-107552815D01*
X166261206Y-107500011D01*
X166250000Y-107448500D01*
X166250000Y-107016153D01*
X166269685Y-106949114D01*
X166322489Y-106903359D01*
X166387883Y-106892933D01*
X166499996Y-106905565D01*
X166500000Y-106905565D01*
X166500004Y-106905565D01*
X166679249Y-106885369D01*
X166679252Y-106885368D01*
X166679255Y-106885368D01*
X166849522Y-106825789D01*
X167002262Y-106729816D01*
X167120245Y-106611831D01*
X167139028Y-106596417D01*
X167152508Y-106587411D01*
X167239911Y-106500008D01*
X167703600Y-106036319D01*
X167764923Y-106002834D01*
X167791281Y-106000000D01*
X168741857Y-106000000D01*
X168808070Y-106019158D01*
G37*
G04 #@! TD.AperFunction*
G04 #@! TA.AperFunction,Conductor*
G36*
X170211039Y-109844685D02*
G01*
X170256794Y-109897489D01*
X170268000Y-109949000D01*
X170268000Y-110000000D01*
X171526000Y-110000000D01*
X171593039Y-110019685D01*
X171638794Y-110072489D01*
X171650000Y-110124000D01*
X171650000Y-110376000D01*
X171630315Y-110443039D01*
X171577511Y-110488794D01*
X171526000Y-110500000D01*
X169931000Y-110500000D01*
X169863961Y-110480315D01*
X169818206Y-110427511D01*
X169807000Y-110376000D01*
X169807000Y-110325000D01*
X168874000Y-110325000D01*
X168806961Y-110305315D01*
X168761206Y-110252511D01*
X168750000Y-110201000D01*
X168750000Y-109949000D01*
X168769685Y-109881961D01*
X168822489Y-109836206D01*
X168874000Y-109825000D01*
X170144000Y-109825000D01*
X170211039Y-109844685D01*
G37*
G04 #@! TD.AperFunction*
G04 #@! TA.AperFunction,Conductor*
G36*
X167090539Y-109647185D02*
G01*
X167136294Y-109699989D01*
X167147500Y-109751500D01*
X167147500Y-110239915D01*
X167127815Y-110306954D01*
X167075011Y-110352709D01*
X167005853Y-110362653D01*
X166942297Y-110333628D01*
X166935819Y-110327596D01*
X166671492Y-110063269D01*
X166671485Y-110063263D01*
X166558312Y-109987644D01*
X166558309Y-109987642D01*
X166432561Y-109935556D01*
X166432557Y-109935555D01*
X166410075Y-109931083D01*
X166299060Y-109909000D01*
X166299058Y-109909000D01*
X166250000Y-109909000D01*
X166250000Y-109627698D01*
X166255558Y-109627500D01*
X167023500Y-109627500D01*
X167090539Y-109647185D01*
G37*
G04 #@! TD.AperFunction*
M02*
